<svg viewBox="0 0 500 500" xmlns="http://www.w3.org/2000/svg">
  <defs>
    <style>
      /* Light Scheme */
      :root {
        --color-01: #D70718;
        --color-02: #000000;
        --color-03: #252525;
        --color-04: #DBDBDB;
        --color-05: #C8C8C8;
        --color-06: #E7E7E7;
        --color-07: #353535;
      }

      /* Dark Scheme */
      @media (prefers-color-scheme: dark) {
        :root {
          --color-01: #D70718;
          --color-02: #000000;
          --color-03: #FFFFFF;
          --color-04: #878787;
          --color-05: #404040;
          --color-06: #E7E7E7;
          --color-07: #353535;
        }
      }
    </style>
  </defs>
  <path fill="var(--color-03)" d="M471.223 418.35C471.223 418.5 375.103 418.61 256.573 418.61C138.043 418.61 41.9029 418.5 41.9029 418.35C41.9029 418.2 138.003 418.09 256.573 418.09C375.143 418.09 471.223 418.21 471.223 418.35Z" />
  <path fill="var(--color-04)" d="M96.8939 354.301C100.429 352.48 104.588 352.241 108.509 352.892C110.615 353.238 112.808 353.869 114.243 355.45C115.678 357.032 115.944 359.816 114.303 361.178C113.32 361.989 111.957 362.108 110.682 362.095C107.612 362.055 104.21 361.517 101.758 363.364C100.356 364.421 99.4255 366.168 97.771 366.687C96.1165 367.205 94.2892 366.228 93.4254 364.753C92.6262 363.215 92.4502 361.428 92.9337 359.763C93.1293 358.609 93.5884 357.516 94.2753 356.569C94.9621 355.622 95.8582 354.846 96.8939 354.301Z" />
  <path fill="var(--color-04)" d="M88.8007 338.679C90.9602 341.762 95.1596 340.746 97.1065 338.859C99.0534 336.972 99.8774 334.247 100.622 331.649C102.336 325.702 104.057 319.463 102.788 313.409C102.482 311.574 101.675 309.858 100.455 308.453C99.838 307.762 99.0509 307.245 98.1721 306.953C97.2933 306.66 96.3534 306.602 95.4453 306.785C93.3257 307.343 92.01 309.443 91.0599 311.389C88.2584 317.21 86.7919 323.582 86.7674 330.041C86.7674 333.051 87.1063 336.201 88.8007 338.679Z" />
  <path fill="var(--color-04)" d="M82.8736 343.104C85.2192 340.32 85.6644 336.267 84.6212 332.779C83.578 329.29 81.2191 326.327 78.5014 323.901C75.3051 321.058 71.5857 318.864 67.551 317.443C65.9873 316.811 64.3053 316.525 62.6206 316.605C61.7803 316.653 60.9644 316.906 60.244 317.342C59.5237 317.777 58.9207 318.382 58.4877 319.104C57.3315 321.303 58.4411 323.968 59.6372 326.147C61.7434 329.982 64.1473 333.646 66.8267 337.104C68.9863 339.882 71.478 342.626 74.7405 343.882C78.0031 345.138 81.445 344.992 83.1859 342.712" />
  <path fill="var(--color-05)" d="M96.0899 319.004C95.9899 319.198 95.914 319.403 95.8641 319.615C95.7179 320.087 95.5383 320.672 95.319 321.396C95.0998 322.12 94.8337 323.13 94.5546 324.239C94.2755 325.349 93.9569 326.625 93.6579 328.041C92.0616 335.404 90.8615 342.849 90.063 350.341C89.5161 355.354 89.1457 360.092 88.917 364.327C88.8286 363.124 88.6635 361.554 88.3616 359.657C87.9272 357.069 87.3461 354.509 86.6212 351.988C85.7832 348.885 84.7103 345.851 83.4118 342.911C81.1886 337.495 77.9981 332.528 73.9963 328.254C73.302 327.519 72.5607 326.831 71.7771 326.193C71.4382 325.9 71.1127 325.615 70.8336 325.389L70.0095 324.798C69.4923 324.403 68.9431 324.052 68.3678 323.748C68.2748 323.874 70.687 325.297 73.7303 328.533C77.6013 332.847 80.707 337.791 82.9132 343.151C84.1893 346.071 85.2659 349.075 86.1357 352.141C86.8665 354.638 87.472 357.171 87.95 359.729C88.3487 361.915 88.6146 363.716 88.7209 364.938C88.7473 365.252 88.7858 365.564 88.8364 365.875C88.7155 368.446 88.6482 370.809 88.6339 372.879C88.6339 375.77 88.6342 378.114 88.7339 379.729C88.7579 380.117 88.7727 380.369 88.7923 380.686C88.7099 381.973 88.6715 383.042 88.6547 383.81C88.6058 384.273 88.6058 384.741 88.6547 385.205C88.7698 384.748 88.8364 384.28 88.8533 383.81C88.9529 382.786 89.0729 381.504 89.2257 379.982C89.4164 378.1 89.7028 376.228 90.0836 374.375C90.5825 372.108 91.2644 369.886 92.1224 367.73C92.9643 365.588 94.1028 363.575 95.5044 361.75C96.6506 360.265 98.1097 359.051 99.778 358.194C100.912 357.635 102.128 357.258 103.379 357.078C103.85 357.06 104.318 356.991 104.775 356.873C104.304 356.821 103.829 356.821 103.359 356.873C102.059 356.97 100.787 357.301 99.6041 357.849C97.843 358.68 96.2988 359.908 95.0929 361.437C93.6261 363.286 92.4437 365.344 91.585 367.543C90.7276 369.725 90.0606 371.978 89.5916 374.275C89.313 375.758 89.1034 377.253 88.9635 378.755C88.9653 377.213 88.9737 375.305 89.04 372.906C89.1862 367.138 89.7046 360.946 90.6415 352.182C91.5519 343.949 92.767 334.374 94.056 328.148C94.3285 326.732 94.6079 325.456 94.8737 324.34C95.1395 323.224 95.3322 322.253 95.5381 321.476C95.7441 320.698 95.8572 320.148 95.9768 319.669C96.0418 319.453 96.0799 319.229 96.0899 319.004Z" />
  <path fill="var(--color-04)" d="M103.293 391.688H73.0398L74.5814 412.838H101.751L103.293 391.688Z" />
  <path fill="var(--color-04)" d="M106.529 383.358H70.4149V391.691H106.529V383.358Z" />
  <path fill="var(--color-05)" d="M70.4149 412.03V414.335H72.2188L73.7774 418.149H102.701L104.521 414.335H105.938V412.03H70.4149Z" />
  <path fill="var(--color-06)" d="M102.788 398.601C102.754 398.672 102.711 398.739 102.661 398.8C102.555 398.94 102.416 399.119 102.256 399.338L100.675 401.332L100.602 401.425L100.535 401.332L96.6481 395.956H96.8673L93.04 401.372L92.9204 401.545L92.7875 401.385L88.2492 395.983H88.5083L88.2625 396.302L84.2026 401.385L84.063 401.558L83.9434 401.378L80.1094 395.963H80.3354L75.6176 401.332L75.5379 401.432L75.4715 401.319L73.9963 398.873C73.8369 398.608 73.7173 398.388 73.6176 398.209C73.5675 398.135 73.5273 398.054 73.498 397.97C73.5602 398.033 73.6138 398.105 73.6575 398.182L74.0761 398.814L75.6243 401.252H75.4781L80.1294 395.817L80.2423 395.677L80.3487 395.823L84.2159 401.219H83.9634L88.01 396.122C88.0964 396.016 88.1827 395.91 88.2558 395.81L88.3887 395.644L88.5216 395.804L93.0466 401.219H92.7941L96.6614 395.83L96.7743 395.671L96.8806 395.83C98.4155 398.016 99.7179 399.87 100.688 401.265H100.548L102.196 399.272C102.376 399.066 102.522 398.9 102.635 398.76C102.682 398.704 102.733 398.65 102.788 398.601Z" />
  <path fill="var(--color-03)" d="M351.725 82.1902H350.45C349.226 82.1174 347.998 82.1174 346.773 82.1902C342.036 82.4675 337.381 83.5587 333.014 85.4161C326.092 88.3176 320.068 93.011 315.562 99.0133C312.784 102.761 310.717 106.987 309.465 111.481C306.642 122.187 308.167 133.574 313.707 143.16C315.217 145.814 317.06 148.264 319.191 150.45C321.341 152.767 323.846 154.727 326.611 156.257C329.449 157.854 332.662 158.662 335.918 158.596C339.274 158.556 342.493 157.254 344.934 154.951C346.114 153.714 347.039 152.257 347.657 150.663C348.274 149.069 348.571 147.369 348.531 145.66C348.506 142.109 347.379 138.654 345.305 135.773C341.128 129.885 334.353 125.933 327.143 123.804C319.667 121.705 311.772 121.593 304.239 123.482C300.394 124.482 296.689 125.956 293.207 127.869C289.692 129.853 286.499 132.36 283.739 135.305C283.077 136.063 282.319 136.756 281.722 137.595L279.9 140.047C278.792 141.774 277.8 143.574 276.932 145.434C275.207 149.21 274.028 153.213 273.432 157.322C272.261 165.53 273.377 173.901 276.658 181.516C279.793 188.956 285.254 195.181 292.223 199.258C295.602 201.189 299.373 202.33 303.255 202.597C307.062 202.81 310.848 201.902 314.143 199.984C317.414 198.177 319.998 195.342 321.498 191.92C322.912 188.546 323.01 184.765 321.772 181.322C320.497 178.001 318.413 175.052 315.707 172.741C313.084 170.474 310.058 168.718 306.788 167.564C300.41 165.553 293.585 165.435 287.142 167.225C281.113 168.859 275.575 171.943 271.012 176.209C266.856 180.191 263.691 185.091 261.77 190.516C258.41 199.93 258.565 210.241 262.206 219.549C265.045 226.499 269.615 232.607 275.48 237.292C279.175 240.255 283.29 242.653 287.69 244.405C289.207 244.97 290.384 245.389 291.19 245.615L292.384 246.002C292.384 246.002 291.965 245.921 291.158 245.695C289.967 245.376 288.793 244.994 287.642 244.55C283.184 242.875 279.015 240.513 275.287 237.55C269.322 232.868 264.662 226.73 261.754 219.727C258.049 210.33 257.86 199.912 261.222 190.387C263.146 184.879 266.346 179.905 270.561 175.871C275.188 171.519 280.808 168.363 286.932 166.677C293.511 164.841 300.481 164.953 306.997 166.999C310.364 168.173 313.478 169.974 316.175 172.306C318.987 174.692 321.15 177.749 322.466 181.193C323.792 184.79 323.735 188.75 322.304 192.307C320.713 195.864 318.015 198.812 314.611 200.71C311.193 202.702 307.27 203.654 303.32 203.452C299.343 203.175 295.482 201.994 292.029 200C284.901 195.866 279.305 189.533 276.077 181.951C272.726 174.197 271.577 165.67 272.754 157.305C273.37 153.114 274.576 149.03 276.335 145.176C277.221 143.277 278.234 141.439 279.368 139.676L281.239 137.176C281.835 136.321 282.61 135.563 283.287 134.821C286.112 131.82 289.375 129.264 292.965 127.24C296.528 125.29 300.321 123.795 304.255 122.788C311.932 120.865 319.978 120.981 327.595 123.127C334.95 125.321 341.837 129.337 346.176 135.434C348.357 138.436 349.542 142.046 349.563 145.757C349.642 149.408 348.267 152.942 345.741 155.58C343.16 158.002 339.763 159.366 336.224 159.402C332.838 159.479 329.493 158.638 326.547 156.967C323.715 155.405 321.155 153.395 318.966 151.015C316.807 148.779 314.937 146.281 313.401 143.579C307.762 133.816 306.23 122.213 309.143 111.32C310.434 106.774 312.55 102.504 315.385 98.7229C319.974 92.6751 326.101 87.9685 333.127 85.0935C337.53 83.272 342.221 82.2454 346.983 82.0611C348.218 81.9796 349.457 81.9796 350.692 82.0611L351.725 82.1902Z" />
  <path fill="var(--color-01)" d="M405.581 243.583H179.429V418.007H405.581V243.583Z" />
  <path fill="var(--color-01)" d="M179.421 243.583L221.196 282.551H443.51L405.573 243.583H179.421Z" />
  <path fill="var(--color-02)" d="M247.367 324.021C246.141 324.065 244.983 324.588 244.139 325.478C243.296 326.368 242.836 327.554 242.858 328.779C242.88 330.005 243.383 331.173 244.258 332.032C245.132 332.891 246.309 333.373 247.535 333.373C248.761 333.373 249.938 332.891 250.813 332.032C251.687 331.173 252.19 330.005 252.212 328.779C252.234 327.554 251.774 326.368 250.931 325.478C250.088 324.588 248.929 324.065 247.704 324.021H247.367ZM300.802 324.021C299.582 324.067 298.429 324.591 297.591 325.478C296.753 326.366 296.296 327.547 296.32 328.768C296.343 329.988 296.844 331.151 297.716 332.006C298.587 332.861 299.759 333.34 300.98 333.34C302.201 333.34 303.373 332.861 304.245 332.006C305.116 331.151 305.617 329.988 305.641 328.768C305.664 327.547 305.208 326.366 304.369 325.478C303.531 324.591 302.378 324.067 301.158 324.021H300.802ZM272.73 342.352C268.265 342.511 263.912 343.795 260.076 346.085C256.52 348.11 253.427 350.858 250.996 354.15C249.347 356.334 248.056 358.767 247.172 361.358C246.929 362.06 246.731 362.776 246.576 363.503C246.503 363.755 246.46 364.015 246.447 364.278C247.562 360.763 249.257 357.458 251.463 354.502C253.912 351.358 256.967 348.736 260.447 346.794C264.661 344.319 269.485 343.078 274.37 343.213C279.255 343.347 284.004 344.851 288.076 347.553C291.451 349.677 294.36 352.464 296.626 355.747C298.661 358.815 300.176 362.199 301.108 365.762C301.1 365.496 301.069 365.231 301.014 364.971C300.9 364.237 300.744 363.51 300.545 362.794C299.801 360.154 298.642 357.65 297.111 355.375C294.865 351.967 291.931 349.067 288.498 346.86C283.85 343.73 278.33 342.152 272.73 342.352Z" />
  <path fill="var(--color-02)" opacity="0.5" d="M221.196 282.552L179.937 245.502L219.938 296.213H405.573V282.552H221.196Z" />
  <path fill="var(--color-02)" d="M360.983 417.62C360.757 417.62 360.564 387.281 360.564 349.876C360.564 312.472 360.757 282.132 360.983 282.132C361.209 282.132 361.419 312.456 361.419 349.876C361.419 387.297 361.225 417.62 360.983 417.62Z" />
  <path fill="var(--color-07)" d="M396.5 378.071H376.564V400.604H396.5V378.071Z" />
  <path fill="var(--color-01)" d="M133 282.551H179.421V243.583L133 282.551Z" />
  <g opacity="0.4">
    <path fill="var(--color-02)" d="M133 282.551H179.421V243.583L133 282.551Z" />
  </g>
</svg>