<svg class="w-40 h-40" viewBox="0 0 500 500" version="1.1" xmlns="http://www.w3.org/2000/svg">
  <defs>
    <style>
      /* Light Scheme */
      :root {
        --primary: #d70718;
        --color-01: #dde0e8;
        --color-02: #f1f3f9;
        --color-03: #b4bbcc;
        --color-04: #7e8695;
        --color-05: #1d0205;
      }

      /* Dark Scheme */
      @media (prefers-color-scheme: dark) {
        :root {
          --primary: #d70718;
          --color-01: #a5a5a5;
          --color-02: #b3b3b3;
          --color-03: #9b9b9b;
          --color-04: #7d7b7b;
          --color-05: #814e54;
        }
      }
    </style>
  </defs>
  <g transform="matrix(.90357 0 0 .91728 -1217.2 -1225)">
    <g>
      <path fill="var(--color-01)" d="m1676.7 1429.1-66.214-4.716c-4.226-15.734-9.888-27.789-16.024-37.03-18.806-28.329-42.078-30.172-42.078-30.172 116.6-44.029 124.32 71.918 124.32 71.918z" />
      <path fill="var(--color-02)" d="m1586.6 1429.1-34.157 3.661s-18.249-64.728 0-75.579c0 0 23.272 1.843 42.078 30.172-21.164 11.516-7.921 41.746-7.921 41.746z" />
      <path fill="var(--color-01)" d="m1552.4 1418.8-54.939 33.767c-9.739-24.792-26.095-38.823-44.419-46.262-14.953-6.069-31.218-7.746-46.229-7.281 6.725-17.336 15.543-29.491 26.685-34.307 74.624-32.264 118.9 54.083 118.9 54.083z" />
      <path fill="var(--color-02)" d="m1457.1 1687.9-5.33 112.6c-53.768-35.718-83.293-302.67-44.959-401.45 15.011-0.465 31.276 1.212 46.229 7.281-65.782 95.547 4.06 281.57 4.06 281.57z" />
      <path fill="var(--color-02)" d="m1832.6 1724.4s-5.711-119.94-81.102-222.74c-75.391-102.8-230.52-43.407-230.52-43.407l50.865 365.53 197.34 4.569z" />
      <path fill="var(--color-01)" d="m1632.3 1791.4c-0.689 50.198-27.673 70.963-60.485 76.053-39.363 6.119-87.12-10.328-107.98-25.581-19.661-14.372-19.262-49.027-15.584-96.286 3.479-44.693 9.905-100.66 5.09-161.41-9.897-124.99 22.849-145.36 22.849-145.36s0.01 0 0.016-0.01c0.291-0.083 3.562-1.03 8.485-2.25 12.936-1.976 39.222-0.432 68.896 32.571 22.426 55.379 56.865 163.22 71.619 249.33 3.778 22.01 6.26 42.609 6.932 60.535 0.167 4.293 0.224 8.436 0.167 12.404z" />
      <path fill="var(--color-03)" d="m1811.2 1853.9c-27.781 5.555-110.31 9.39-170.74 11.541-38.948 1.386-68.705 2.076-68.705 2.076v-0.01c32.812-5.089 59.796-25.854 60.485-76.053 0.282-20.557-2.416-45.656-7.099-72.939 0 0 196.72-42.759 221.08-5.09s10.661 131.33-35.029 140.47z" />
      <path fill="var(--color-04)" d="m1846.3 1713.6c-2.203-3.405-5.82-6.15-10.566-8.332 15.802 42.482 0.685 120.45-40.796 128.74-27.781 5.555-110.31 9.39-170.74 11.541-3.235 0.115-6.399 0.225-9.495 0.331-10.983 12.535-26.169 19.204-42.876 21.796v0.01s29.757-0.689 68.705-2.076c60.427-2.151 142.96-5.986 170.74-11.541 45.689-9.14 59.397-102.8 35.028-140.47z" />
      <path fill="var(--color-01)" d="m1661.2 1796c-0.698 34.647-10.37 56.209-20.715 69.419-38.948 1.386-68.705 2.076-68.705 2.076v-0.01c32.812-5.089 59.796-25.854 60.485-76.053 0.282-20.557-2.416-45.656-7.099-72.939 1e-3 -1e-3 37.554 1.353 36.034 77.505z" />
      <path fill="var(--color-01)" d="m1625.2 1718.5c0.057 0.333 0.11 0.661 0.167 0.993 10.044 3.232 32.479 16.953 31.298 75.027-0.597 29.086-7.769 48.77-16.309 61.963-2.488 3.843-6.715 6.208-11.29 6.362-17.217 0.583-32.26 1.023-43.2 1.322-4.515 1.474-9.218 2.575-14.052 3.324v0.01s29.757-0.689 68.705-2.076c10.345-13.21 20.018-34.772 20.715-69.419 1.519-76.15-36.034-77.504-36.034-77.504z" opacity=".25" />
    </g>
    <path stroke="#d70718" fill="none" d="m1403.8 1409.3" stroke-miterlimit="10" />
    <g fill="var(--color-03)">
      <path d="m1632.3 1791.4c-0.689 50.198-27.673 70.963-60.485 76.053-39.363 6.119-87.12-10.328-107.98-25.581-19.661-14.372-19.262-49.027-15.584-96.286l183.89 33.41c0.166 4.293 0.223 8.436 0.166 12.404z" />
      <path d="m1532.5 1753.5c-0.782 0-1.477-0.554-1.63-1.349-6.108-31.98-6.473-48.431-6.895-67.48-0.469-21.2-1.002-45.229-9.863-97.355-16.635-97.854 4.433-156.55 4.648-157.13 0.317-0.859 1.27-1.3 2.132-0.982 0.86 0.317 1.3 1.272 0.983 2.132-0.211 0.574-20.963 58.523-4.49 155.42 8.902 52.365 9.437 76.523 9.91 97.837 0.419 18.901 0.781 35.223 6.838 66.931 0.172 0.901-0.419 1.77-1.32 1.943-0.105 0.02-0.21 0.029-0.313 0.029z" />
      <path d="m1813.5 1559.9c-41.887-9.897-204.85 9.141-204.85 9.141-18.15-48.77-37.246-80.046-55.105-99.906-29.674-33.003-55.96-34.547-68.896-32.571-5.189 0.78-8.228 2.134-8.485 2.25-0.01 0.01-0.016 0.01-0.016 0.01-1.519-13.708 69.302-43.406 217.8-22.085 148.49 21.321 119.56 143.16 119.56 143.16z" />
    </g>
    <g>
      <path fill="var(--color-04)" d="m1665.6 1547c-25.319 2.417-49.364-11.354-60.288-34.322-13.031-27.398-26.21-47.025-38.777-61-21.943-24.405-42.026-31.6-56.236-32.898-23.431 6.344-34.668 14.509-34.053 20.056 0 0 0.01 0 0.016-0.01 0.257-0.116 3.296-1.47 8.485-2.25 12.936-1.976 39.222-0.432 68.896 32.571 17.859 19.86 36.955 51.136 55.105 99.906 0 0 162.96-19.038 204.85-9.141 0 0 1.786-7.526 2.193-19.162-34.315-3.578-104.29 1.868-150.19 6.248z" />
      <path fill="var(--color-01)" d="m1685.1 1733.6c-2.551-0.101-5.558-1.404-7.864-3.497-2.15-1.951-3.699-4.597-4.263-7.673-1.847-26.552-5.166-55.789-10.727-87.144-6.188-34.888-14.091-66.426-22.476-94.257-0.164-0.898-0.948-5.688 2.203-10.251 1.992-2.885 5.085-5.01 8.806-5.691 7.445-1.363 14.58 3.568 15.942 11.009 10.983 19.694 25.259 50.738 32.184 91.176 6.374 37.222 4.188 68.783 1.019 90.226-1.957 9.93-8.756 16.343-14.824 16.102z" />
      <path fill="var(--color-03)" d="m1696 1654.4-22.816 3.557c-6.999 1.091-13.557-3.698-14.648-10.696l-4.434-28.435c-1.091-6.999 3.698-13.557 10.696-14.648l22.816-3.557c6.999-1.091 13.557 3.698 14.648 10.696l4.433 28.435c1.093 6.998-3.696 13.556-10.695 14.648z" />
      <path fill="var(--color-02)" d="m1690 1649.5-12.592 1.963c-6.999 1.091-13.557-3.698-14.648-10.696l-2.653-17.017c-1.091-6.999 3.698-13.557 10.696-14.648l12.592-1.963c6.999-1.091 13.557 3.698 14.648 10.697l2.653 17.017c1.091 6.998-3.697 13.556-10.696 14.647z" />
      <path fill="var(--color-01)" d="m1789.4 1721.5c-2.551-0.102-5.558-1.404-7.864-3.497-2.15-1.95-3.699-4.597-4.263-7.673-1.847-26.552-5.166-55.789-10.727-87.144-6.188-34.888-14.091-66.426-22.475-94.257-0.164-0.898-0.948-5.688 2.203-10.251 1.992-2.885 5.085-5.01 8.806-5.691 7.445-1.363 14.579 3.568 15.942 11.009 10.983 19.694 25.259 50.738 32.184 91.175 6.374 37.222 4.188 68.783 1.019 90.226-1.958 9.931-8.757 16.344-14.825 16.103z" />
      <path fill="var(--color-03)" d="m1799.4 1641.6-21.323 3.325c-6.999 1.091-13.557-3.698-14.648-10.696l-4.174-26.767c-1.091-6.999 3.698-13.557 10.696-14.648l21.323-3.325c6.999-1.091 13.557 3.698 14.648 10.696l4.174 26.767c1.092 6.998-3.697 13.557-10.696 14.648z" />
      <path fill="var(--color-02)" d="m1794.3 1637.4-12.592 1.963c-6.999 1.091-13.557-3.698-14.648-10.696l-2.653-17.017c-1.091-6.999 3.698-13.557 10.696-14.648l12.591-1.963c6.999-1.091 13.557 3.698 14.648 10.696l2.653 17.017c1.092 6.998-3.697 13.556-10.695 14.648z" />
    </g>
    <path fill="#d70718" d="m1437.9 1559.9" />
    <path fill="var(--color-05)" d="m1632.1 1779c-0.672-17.925-3.155-38.524-6.932-60.535-14.754-86.107-49.193-193.95-71.619-249.33-29.2-32.476-55.11-34.487-68.256-32.66 11.536 1.485 26.513 6.835 43.028 21.295 6.948 6.084 12.244 13.77 15.589 22.299 22.294 56.84 53.21 154.3 66.979 233.18 3.778 21.604 6.26 41.822 6.933 59.416 0.166 4.213 0.224 8.28 0.166 12.175-0.689 49.271-27.673 69.652-60.485 74.648-30.257 4.617-65.461-3.857-89.611-14.822 22.543 14.38 66.917 28.541 103.89 22.794 32.812-5.089 59.796-25.854 60.485-76.053 0.057-3.97 0-8.112-0.167-12.405z" opacity=".25" />
  </g>
</svg>