<svg version="1.1" viewBox="0 0 500 500" xmlns="http://www.w3.org/2000/svg">
  <defs>
    <style>
      /* Light Scheme */
      :root {
        --color-01: #263238;
        --color-02: #FAFAFA;
        --color-03: #E0E0E0;
        --color-04: #d70718;
        --color-05: #000000;
      }

      /* Dark Scheme */
      @media (prefers-color-scheme: dark) {
        :root {
          --color-01: #263238;
          --color-02: #FAFAFA;
          --color-03: #2D2D2D;
          --color-04: #d70718;
          --color-05: #000000;
        }
      }
    </style>
  </defs>
  <path d="M473.56 192.39C474.3 186.95 466.63 182.48 460.87 182.01C458.12 181.79 455.26 182.21 452.66 181.3C447.01 179.3 444.76 172.05 439.25 169.72C435.14 167.99 430.4 169.53 426.41 171.54C422.42 173.55 418.47 176.08 414.01 176.36C410.13 176.61 405.92 175.17 402.53 177.07C400 178.48 398.68 181.39 396.35 183.07C394.02 184.75 391.09 185.07 388.26 185.26C385.43 185.45 382.5 185.45 379.93 186.63C377.36 187.81 375.22 190.53 375.76 193.31L473.56 192.39Z" fill="var(--color-03)" />
  <path d="M247.34 103.87C247.93 99.59 241.89 96.07 237.34 95.7C235.18 95.53 232.93 95.86 230.88 95.15C226.44 93.6 224.67 87.86 220.34 86.03C217.1 84.67 213.34 85.88 210.23 87.46C207.12 89.04 203.99 91.03 200.48 91.26C197.48 91.45 194.11 90.32 191.48 91.81C189.48 92.92 188.48 95.22 186.62 96.57C184.76 97.92 182.48 98.17 180.26 98.29C178.04 98.41 175.73 98.44 173.7 99.36C171.67 100.28 170 102.44 170.42 104.62L247.34 103.87Z" fill="var(--color-03)" />
  <path d="M164.57 61.6971C165.57 54.5471 155.45 48.6971 147.86 48.0471C144.25 47.7571 140.49 48.3071 137.06 47.1071C129.63 44.5171 126.66 34.9271 119.41 31.8671C113.99 29.5771 107.75 31.6171 102.5 34.2571C97.25 36.8971 92.05 40.2271 86.18 40.6371C81.08 40.9671 75.53 39.0671 71.07 41.5671C67.74 43.4271 65.99 47.2571 62.93 49.5671C59.87 51.8771 56.01 52.2571 52.29 52.4571C48.57 52.6571 44.71 52.6971 41.29 54.2471C37.87 55.7971 35.1 59.3871 35.8 63.0471L164.57 61.6971Z" fill="var(--color-03)" />
  <path d="M121.42 340.19C121.42 340.19 113.92 337.76 110.42 355.06C106.92 372.36 106.42 381.92 106.42 381.92C106.42 381.92 105.26 385.67 102.5 384.2C99.74 382.73 95.12 377.66 91.71 379.75C88.3 381.84 88.09 386.57 90.57 392.67C93.05 398.77 98.01 412.35 98.45 413.58C98.89 414.81 98.68 416.79 96.64 416.09C94.6 415.39 81.71 407.15 78.16 413.51C74.61 419.87 84.33 435.73 85.36 437.51C86.39 439.29 86.24 440.17 85.47 440.89C84.7 441.61 80.63 438.43 76.86 436.24C73.09 434.05 68.35 432.16 66.61 436C64.87 439.84 67.61 453 85.77 470.6L94.71 478.2L105.83 474.45C129.23 464.91 136.71 453.74 136.53 449.53C136.35 445.32 131.25 445.29 126.93 445.92C122.61 446.55 117.65 447.97 117.21 447.01C116.77 446.05 116.97 445.16 118.58 443.91C120.19 442.66 135.13 431.58 134.22 424.36C133.31 417.14 118.22 419.97 116.11 419.85C114 419.73 114.52 417.8 115.38 416.85C116.24 415.9 125.91 405.08 130.54 400.35C135.17 395.62 136.79 391.28 134.31 387.94C131.83 384.6 125.75 387.7 122.64 388.03C119.53 388.36 119.82 384.45 119.82 384.45C119.82 384.45 122.92 375.4 126.13 358.03C129.34 340.66 121.27 340.14 121.27 340.14" fill="var(--color-03)" />
  <path d="M93.425 480.71C95.835 467.97 100.485 445.39 104.375 425.98C108.265 406.57 111.775 388.98 114.245 376.29C115.475 369.93 116.465 364.78 117.155 361.21C117.495 359.44 117.765 358.06 117.945 357.11C118.035 356.65 118.115 356.3 118.165 356.04C118.215 355.78 118.245 355.68 118.245 355.68V356.05C118.245 356.29 118.145 356.66 118.065 357.12C117.895 358.12 117.655 359.46 117.345 361.23C116.705 364.8 115.755 369.96 114.545 376.34C112.145 389.08 108.675 406.66 104.785 426.06C100.895 445.46 96.195 468.06 93.785 480.76" fill="var(--color-03)" />
  <path d="M97.855 387.09C98.0437 387.303 98.2112 387.534 98.355 387.78C98.655 388.24 99.075 388.9 99.575 389.78C100.575 391.44 101.935 393.78 103.365 396.38L107.015 403.06L108.135 405.06C108.289 405.298 108.417 405.553 108.515 405.82C108.321 405.608 108.15 405.377 108.005 405.13C107.705 404.68 107.295 404.01 106.795 403.13C105.795 401.45 104.485 399.13 103.045 396.5C101.605 393.87 100.345 391.62 99.355 389.85L98.225 387.85C98.0706 387.613 97.9463 387.358 97.855 387.09Z" fill="var(--color-03)" />
  <path d="M109.6 405.71C109.6 405.62 114.24 402.65 120.09 399.06C125.94 395.47 130.71 392.63 130.76 392.72C130.81 392.81 126.12 395.78 120.28 399.37C114.44 402.96 109.65 405.8 109.6 405.71Z" fill="var(--color-03)" />
  <path d="M102.28 435.24C102.541 435.116 102.817 435.026 103.1 434.97L105.37 434.34C107.29 433.82 109.93 433.08 112.82 432.15C115.71 431.22 118.3 430.32 120.16 429.63L122.38 428.83C122.644 428.715 122.918 428.628 123.2 428.57C122.961 428.732 122.702 428.863 122.43 428.96C121.92 429.19 121.18 429.51 120.26 429.88C118.41 430.62 115.83 431.58 112.93 432.5C110.03 433.42 107.37 434.13 105.44 434.59C104.44 434.82 103.68 435 103.14 435.1C102.858 435.173 102.57 435.22 102.28 435.24Z" fill="var(--color-03)" />
  <path d="M87.945 420.74C88.1742 420.881 88.3828 421.052 88.565 421.25L90.155 422.73C91.485 424 93.315 425.73 95.305 427.73C97.295 429.73 99.095 431.49 100.385 432.81L101.895 434.37C102.093 434.554 102.268 434.762 102.415 434.99C102.192 434.841 101.984 434.67 101.795 434.48L100.205 432.99C98.875 431.72 97.045 429.99 95.055 427.99C93.065 425.99 91.265 424.22 89.975 422.91L88.465 421.34C88.2691 421.161 88.0946 420.959 87.945 420.74Z" fill="var(--color-03)" />
  <path d="M78.175 445.98C78.452 446.179 78.7128 446.4 78.955 446.64L81.005 448.54C82.715 450.15 85.075 452.4 87.655 454.9C90.235 457.4 92.565 459.68 94.235 461.34L96.235 463.34C96.4898 463.57 96.721 463.824 96.925 464.1C96.6431 463.907 96.3818 463.686 96.145 463.44C95.605 462.95 94.925 462.31 94.095 461.54C92.375 459.93 90.025 457.68 87.445 455.18C84.865 452.68 82.535 450.41 80.865 448.75L78.865 446.75C78.6084 446.518 78.3771 446.26 78.175 445.98Z" fill="var(--color-03)" />
  <path d="M96.545 463.52C96.8705 463.376 97.2044 463.253 97.545 463.15L100.395 462.26C102.805 461.5 106.125 460.45 109.755 459.18C113.385 457.91 116.645 456.68 118.995 455.77L121.785 454.7C122.106 454.55 122.441 454.433 122.785 454.35C122.465 454.537 122.131 454.697 121.785 454.83C121.145 455.12 120.205 455.53 119.045 456.01C116.715 457.01 113.465 458.26 109.825 459.52C106.185 460.78 102.825 461.81 100.415 462.52C99.205 462.86 98.215 463.13 97.535 463.3C97.2107 463.397 96.8798 463.47 96.545 463.52Z" fill="var(--color-03)" />
  <path d="M328.34 410.45C330.376 410.447 332.391 410.855 334.266 411.648C336.14 412.442 337.836 413.606 339.25 415.07C342.067 418.024 344.167 421.586 345.39 425.48C347.97 432.9 347.39 441.93 345.76 449.62C337.35 447.29 331.66 438.91 329.04 434.48C324.9 427.48 321.67 412.31 328.34 410.48" fill="var(--color-03)" />
  <path d="M358.22 457.99C356.852 456.169 355.99 454.018 355.72 451.757C355.449 449.495 355.78 447.202 356.68 445.11C357.62 443.042 358.961 441.181 360.626 439.636C362.292 438.091 364.247 436.893 366.38 436.11C368.38 435.35 370.64 434.92 372.46 435.96C373.284 436.495 373.95 437.241 374.39 438.12C374.829 438.999 375.026 439.979 374.96 440.96C374.783 442.927 374.093 444.813 372.96 446.43C369.36 452.11 364.84 456.96 358.19 458" fill="var(--color-03)" />
  <path d="M359.01 477.64C358.364 476.028 357.891 474.352 357.6 472.64C357.202 470.781 357.028 468.881 357.08 466.98C357.081 464.669 357.232 462.361 357.53 460.07C358.095 455.857 359.685 451.846 362.16 448.39C362.94 447.373 363.818 446.436 364.78 445.59C365.48 445.03 365.9 444.75 365.93 444.8C365.96 444.85 364.47 446.15 362.67 448.8C360.413 452.248 358.954 456.156 358.4 460.24C358.106 462.496 357.936 464.766 357.89 467.04C357.806 468.889 357.913 470.743 358.21 472.57C358.589 474.24 358.856 475.934 359.01 477.64Z" fill="var(--color-03)" />
  <path d="M331.82 421.83C332.345 422.533 332.804 423.282 333.19 424.07C334.02 425.55 335.19 427.69 336.61 430.36C339.45 435.69 343.3 443.1 347.35 451.36C351.4 459.62 354.85 467.26 357.23 472.81C358.42 475.59 359.36 477.81 359.98 479.42C360.34 480.221 360.635 481.051 360.86 481.9C360.391 481.157 359.99 480.374 359.66 479.56C358.89 477.88 357.88 475.7 356.66 473.07C354.14 467.58 350.6 460.07 346.56 451.74C342.52 443.41 338.81 436.16 336.06 430.61C334.77 428.01 333.7 425.86 332.89 424.2C332.47 423.44 332.112 422.648 331.82 421.83Z" fill="var(--color-03)" />
  <path d="M350.54 464.98C347.26 461.469 343.191 458.789 338.67 457.163C334.149 455.537 329.305 455.012 324.54 455.63C322.13 455.96 319.36 456.97 318.75 459.34C318.14 461.71 320.11 463.93 322.1 465.34C326.312 468.207 331.279 469.763 336.374 469.811C341.469 469.859 346.465 468.397 350.73 465.61" fill="var(--color-03)" />
  <path d="M329.74 460.58C330.189 460.456 330.655 460.405 331.12 460.43C332 460.38 333.29 460.43 334.88 460.43C339.053 460.551 343.169 461.439 347.02 463.05C349.131 463.999 351.073 465.286 352.77 466.86C355.05 469.042 356.807 471.712 357.91 474.67C358.116 475.087 358.248 475.537 358.3 476C358.14 476.07 357.45 474.22 355.75 471.6C354.75 470.079 353.564 468.688 352.22 467.46C350.558 465.985 348.683 464.769 346.66 463.85C342.891 462.292 338.897 461.347 334.83 461.05C333.126 460.988 331.427 460.831 329.74 460.58Z" fill="var(--color-03)" />
  <path d="M77.645 192.065L90.145 184.035L104.045 200.755L91.755 175.425L79.415 183.295L60.475 167.015L77.645 192.065Z" fill="var(--color-03)" />
  <path d="M82.695 214.104L85.995 204.604L100.365 207.704L83.255 199.354L79.975 208.695L63.095 207.934L82.695 214.104Z" fill="var(--color-03)" />
  <path d="M432.03 454.32C431.816 454.3 431.604 454.257 431.4 454.19C430.99 454.09 430.4 453.89 429.62 453.72C424.172 452.4 418.515 452.179 412.98 453.07C406.182 454.256 399.793 457.139 394.405 461.451C389.018 465.764 384.806 471.366 382.16 477.74C381.83 478.47 381.65 479.06 381.48 479.45C381.408 479.653 381.321 479.85 381.22 480.04C381.25 479.828 381.304 479.62 381.38 479.42C381.51 479.02 381.67 478.42 381.97 477.67C382.779 475.542 383.783 473.493 384.97 471.55C388.837 465.066 394.466 459.813 401.203 456.403C407.939 452.994 415.505 451.567 423.02 452.29C425.284 452.492 427.524 452.907 429.71 453.53C430.49 453.72 431.07 453.96 431.47 454.09C431.663 454.15 431.851 454.227 432.03 454.32Z" fill="var(--color-01)" />
  <path d="M428.59 452.78C426.802 454.803 425.597 457.273 425.106 459.928C424.614 462.583 424.854 465.321 425.8 467.85C426.19 468.85 426.9 469.93 427.97 469.94C429.04 469.95 429.82 468.73 430.19 467.65C430.94 465.379 431.216 462.978 431.001 460.595C430.786 458.213 430.084 455.9 428.94 453.8C430.437 457.457 432.984 460.589 436.26 462.8C437.5 463.63 439.26 464.31 440.42 463.42C441.58 462.53 441.47 460.78 440.99 459.42C440.095 457.07 438.472 455.068 436.358 453.706C434.244 452.344 431.75 451.694 429.24 451.85C431.486 452.015 433.729 451.49 435.67 450.347C437.61 449.203 439.156 447.495 440.1 445.45C440.78 443.86 440.85 441.61 439.32 440.81C438.833 440.632 438.313 440.56 437.795 440.6C437.278 440.639 436.775 440.789 436.32 441.04C434.45 441.85 432.778 443.057 431.419 444.576C430.06 446.095 429.047 447.891 428.45 449.84C429.411 447.626 429.706 445.18 429.297 442.802C428.889 440.424 427.795 438.216 426.15 436.45C425.08 435.34 423.55 434.39 422.07 434.82C420.21 435.36 419.59 437.71 419.64 439.65C419.729 442.076 420.361 444.451 421.489 446.601C422.617 448.75 424.214 450.619 426.16 452.07C424.902 451.261 423.466 450.771 421.977 450.642C420.487 450.513 418.988 450.749 417.61 451.33C415.81 452.1 414.13 454.08 414.93 455.86C415.73 457.64 418.07 457.72 419.93 457.38C423.282 456.751 426.451 455.385 429.21 453.38" fill="var(--color-04)" />
  <path d="M394.17 460.66C396.975 464.147 400.509 466.98 404.523 468.959C408.537 470.939 412.935 472.017 417.41 472.12C417.26 470.12 415.71 468.62 414.15 467.43C408.515 463.155 401.612 460.888 394.54 460.99" fill="var(--color-01)" />
  <path d="M427.66 463.37C428.095 461.462 428.413 459.528 428.61 457.58C428.633 455.623 428.539 453.666 428.33 451.72C429.629 455.543 429.388 459.721 427.66 463.37Z" fill="var(--color-01)" />
  <path d="M435.15 459.19C434.307 457.85 433.332 456.597 432.24 455.45C430.32 453.64 428.35 452.66 428.44 452.51C430.013 453.015 431.441 453.893 432.6 455.07C433.862 456.141 434.754 457.583 435.15 459.19Z" fill="var(--color-01)" />
  <path d="M434.78 446.09C434.38 447.615 433.567 448.999 432.43 450.09C431.4 451.318 429.994 452.172 428.43 452.52C429.729 451.722 430.94 450.786 432.04 449.73C433.015 448.564 433.929 447.349 434.78 446.09Z" fill="var(--color-01)" />
  <path d="M428.54 450.27C428.899 450.242 429.258 450.322 429.572 450.499C429.885 450.676 430.139 450.943 430.3 451.265C430.461 451.587 430.522 451.95 430.476 452.307C430.43 452.664 430.278 452.999 430.04 453.27C429.59 452.914 429.083 452.637 428.54 452.45C428.645 451.727 428.645 450.993 428.54 450.27Z" fill="var(--color-02)" />
  <path d="M423.22 439.66C423.778 440.096 424.258 440.624 424.64 441.22C426.662 443.98 427.89 447.241 428.19 450.65C428.318 451.344 428.318 452.056 428.19 452.75C427.898 450.41 427.372 448.105 426.62 445.87C425.688 443.696 424.549 441.616 423.22 439.66Z" fill="var(--color-01)" />
  <path d="M68.885 442.27C69.959 442.281 71.0199 442.508 72.0043 442.937C72.9887 443.367 73.8766 443.99 74.615 444.77C76.0768 446.35 77.1607 448.24 77.785 450.3C79.095 454.23 78.735 458.99 77.785 463.04C73.365 461.75 70.405 457.3 69.055 454.95C66.915 451.23 65.295 443.21 68.835 442.27" fill="var(--color-04)" />
  <path d="M84.355 467.5C83.6454 466.531 83.2042 465.392 83.076 464.198C82.9478 463.004 83.1372 461.798 83.625 460.7C84.1299 459.612 84.8474 458.635 85.7353 457.828C86.6231 457.021 87.6634 456.399 88.795 456C89.2976 455.766 89.8455 455.645 90.4 455.645C90.9545 455.645 91.5023 455.766 92.005 456C92.4354 456.287 92.781 456.685 93.0061 457.151C93.2312 457.617 93.3275 458.134 93.285 458.65C93.1771 459.66 92.8084 460.625 92.215 461.45C90.285 464.45 87.865 466.95 84.355 467.45" fill="var(--color-04)" />
  <path d="M85.645 480.83C85.5422 480.564 85.462 480.289 85.405 480.01C85.255 479.43 85.055 478.67 84.825 477.76C84.0845 475.29 83.7468 472.717 83.825 470.14C83.9737 467.547 84.8051 465.039 86.235 462.87C86.6818 462.228 87.1983 461.638 87.775 461.11C87.975 460.92 88.155 460.8 88.265 460.71C88.375 460.62 88.445 460.58 88.455 460.59C87.7088 461.32 87.0386 462.124 86.455 462.99C85.1011 465.149 84.3135 467.615 84.165 470.16C84.0783 472.705 84.3646 475.248 85.015 477.71C85.235 478.71 85.405 479.45 85.505 479.99C85.5814 480.264 85.6283 480.546 85.645 480.83Z" fill="var(--color-01)" />
  <path d="M70.645 448.27C70.7263 448.363 70.7937 448.468 70.845 448.58L71.345 449.52C71.785 450.34 72.395 451.52 73.135 453C74.625 455.95 76.625 460.05 78.735 464.63C80.845 469.21 82.655 473.45 83.925 476.45C84.555 477.97 85.055 479.21 85.395 480.07C85.555 480.48 85.675 480.81 85.775 481.07C85.8303 481.184 85.8706 481.305 85.895 481.43C85.8265 481.327 85.7695 481.216 85.725 481.1C85.605 480.85 85.465 480.52 85.285 480.1C84.905 479.21 84.375 478 83.725 476.51C82.405 473.51 80.565 469.31 78.465 464.73C76.365 460.15 74.385 456.04 72.945 453.07C72.245 451.61 71.665 450.42 71.245 449.55C71.0517 449.163 70.9017 448.83 70.795 448.55C70.74 448.459 70.6899 448.366 70.645 448.27Z" fill="var(--color-01)" />
  <path d="M79.975 472.31C78.5393 470.226 76.6296 468.512 74.4027 467.309C72.1759 466.106 69.6954 465.448 67.165 465.39C65.875 465.39 64.355 465.69 63.845 466.87C63.335 468.05 64.195 469.37 65.125 470.26C67.0989 472.086 69.5687 473.287 72.2235 473.712C74.8783 474.137 77.5996 473.768 80.045 472.65" fill="var(--color-04)" />
  <path d="M69.315 468.7C69.5843 468.672 69.8557 468.672 70.125 468.7C70.4379 468.678 70.7521 468.678 71.065 468.7C71.425 468.75 71.845 468.76 72.305 468.86C72.8035 468.937 73.2976 469.04 73.785 469.17C74.3475 469.313 74.9017 469.486 75.445 469.69C76.6926 470.162 77.8834 470.773 78.995 471.51C80.0948 472.266 81.1017 473.149 81.995 474.14C82.3805 474.573 82.7411 475.027 83.075 475.5C83.3745 475.909 83.6483 476.337 83.895 476.78C84.1074 477.14 84.301 477.51 84.475 477.89C84.6175 478.168 84.7412 478.455 84.845 478.75C84.9594 478.997 85.0466 479.255 85.105 479.52C85.045 479.52 84.665 478.46 83.715 476.89C83.465 476.5 83.205 476.07 82.875 475.65C82.5363 475.19 82.1724 474.75 81.785 474.33C80.8865 473.362 79.88 472.499 78.785 471.76C77.6984 471.031 76.5347 470.424 75.315 469.95C74.7815 469.742 74.2374 469.561 73.685 469.41C73.165 469.25 72.685 469.16 72.225 469.06C70.465 468.75 69.315 468.76 69.315 468.7Z" fill="var(--color-01)" />
  <path d="M410.48 146.15C410.612 146.203 410.739 146.266 410.86 146.34L411.93 146.95C413.277 147.775 414.558 148.705 415.76 149.73C420.212 153.536 423.604 158.427 425.61 163.93C426.973 167.73 427.683 171.733 427.71 175.77C427.74 180.405 426.938 185.009 425.34 189.36C423.6 194.199 420.876 198.626 417.34 202.36C415.475 204.33 413.353 206.039 411.03 207.44C408.629 208.876 406.027 209.945 403.31 210.61C397.948 211.79 392.433 212.111 386.97 211.56C381.68 211.17 376.63 210.48 371.79 210.26C367.217 209.944 362.622 210.319 358.16 211.37C354.276 212.285 350.658 214.089 347.59 216.64C345.072 218.766 343.207 221.56 342.21 224.7C341.424 227.059 341.188 229.566 341.52 232.03C341.734 233.586 342.229 235.09 342.98 236.47C343.51 237.41 343.86 237.86 343.83 237.88C343.484 237.45 343.17 236.995 342.89 236.52C342.091 235.145 341.559 233.632 341.32 232.06C340.942 229.563 341.151 227.012 341.93 224.61C342.919 221.402 344.798 218.541 347.35 216.36C350.45 213.75 354.118 211.901 358.06 210.96C362.559 209.866 367.2 209.465 371.82 209.77C376.69 209.98 381.75 210.66 387.01 211.04C392.422 211.581 397.886 211.264 403.2 210.1C405.866 209.442 408.42 208.394 410.78 206.99C413.06 205.607 415.146 203.926 416.98 201.99C420.46 198.311 423.142 193.954 424.86 189.19C426.45 184.891 427.259 180.343 427.25 175.76C427.248 171.772 426.572 167.813 425.25 164.05C422.778 157.065 418.072 151.089 411.86 147.05L410.86 146.4L410.48 146.15Z" fill="var(--color-01)" />
  <path d="M341.3 19.909C343.9 27.449 346.51 35.109 346.88 43.069C347.25 51.029 345.04 59.459 339.26 64.909C332.56 71.269 322.62 72.479 313.43 73.369C320.04 73.599 327.29 75.169 331.25 80.469C335.79 86.539 334.31 95.219 331.25 102.139C328.19 109.059 323.6 115.509 322.35 122.989C327.618 119.653 333.69 117.804 339.923 117.636C346.156 117.468 352.319 118.989 357.759 122.036C363.199 125.083 367.714 129.544 370.826 134.947C373.939 140.35 375.533 146.494 375.44 152.729C381.13 141.999 390.89 133.219 402.58 129.929C414.27 126.639 427.75 129.329 436.49 137.759C433.081 132.843 430.691 127.294 429.462 121.44C428.232 115.586 428.187 109.545 429.33 103.673C430.472 97.8007 432.78 92.2172 436.115 87.2513C439.45 82.2854 443.747 78.0378 448.75 74.759C443.43 79.179 435.11 78.649 429.45 74.669C423.79 70.689 420.57 63.969 419.37 57.159C418.17 50.349 418.76 43.369 419.37 36.479C413.37 44.269 400.94 46.039 393.02 40.219C384.9 34.219 382.85 23.219 381.42 13.219C382.16 22.999 374.67 32.709 365.02 34.479C355.37 36.249 344.93 29.819 342.15 20.419" fill="var(--color-03)" />
  <path d="M405.5 140.48C404.79 145.19 406.1 150.01 407.56 154.54C407.792 155.416 408.224 156.227 408.82 156.91C409.122 157.249 409.518 157.492 409.957 157.607C410.396 157.723 410.86 157.707 411.29 157.56C411.66 157.345 411.982 157.057 412.237 156.713C412.491 156.369 412.673 155.977 412.77 155.56C413.371 153.806 413.679 151.964 413.68 150.11C415.17 151.21 416.78 152.36 418.68 152.45C420.58 152.54 422.57 151.03 422.28 149.2C421.997 148.182 421.381 147.287 420.53 146.66L410.64 137.53L405.57 140.48" fill="var(--color-04)" />
  <path d="M352.7 45.309C352.7 45.309 326.39 64.729 334.44 95.779L337.09 96.109L346.38 86.489L359.18 104.269L357.4 86.139L362.88 90.139L372.27 70.519C372.27 70.519 358.27 60.519 360.27 50.729C360.31 50.689 352.08 50.229 352.7 45.309Z" fill="var(--color-04)" />
  <path d="M342.46 110.91C343.804 119.048 347.798 126.514 353.82 132.15L369.44 122.74C369.44 122.74 349.14 119.04 342.46 110.91Z" fill="var(--color-04)" />
  <path d="M375.19 131.67C375.19 131.67 382.4 143.28 400.71 142.67C413.71 142.23 422.1 125.67 418.86 109.84L408.26 117.84L404.33 115.28V123.64C404.33 123.64 400.06 129.81 394.54 126.33C394.56 126.33 389.76 136.53 375.19 131.67Z" fill="var(--color-04)" />
  <path d="M381.94 41.959C381.32 42.229 394.45 57.699 394.56 66.959C394.56 66.959 398.89 58.509 407.72 58.149C407.72 58.149 408.04 50.829 415.17 52.359C415.17 52.339 399.94 34.199 381.94 41.959Z" fill="var(--color-04)" />
  <path d="M424.63 72.219C424.63 72.219 430.84 83.119 430.63 94.219C430.63 94.219 421.68 85.009 414.45 91.489L412.64 87.119C412.64 87.119 416.91 86.269 416.89 81.119C416.87 75.969 411.82 72.959 411.82 72.959C411.82 72.959 421.61 81.169 424.63 72.219Z" fill="var(--color-04)" />
  <path d="M371.11 98.999C371.11 99.139 359.71 101.999 345.57 105.419C331.43 108.839 319.94 111.419 319.91 111.329C319.88 111.239 331.31 108.329 345.45 104.909C359.59 101.489 371.08 98.909 371.11 98.999Z" fill="var(--color-01)" />
  <path d="M374.11 80.9089C374.06 81.0389 367.91 78.9089 360.36 76.1989C352.81 73.4889 346.74 71.1989 346.79 71.0089C346.84 70.8189 352.99 73.0089 360.54 75.7189C368.09 78.4289 374.16 80.7789 374.11 80.9089Z" fill="var(--color-01)" />
  <path d="M365.1 13.429C365.24 13.429 370.03 26.889 375.81 43.599C381.59 60.309 386.16 73.909 386.02 73.909C385.88 73.909 381.09 60.459 375.32 43.749C369.55 27.039 364.97 13.479 365.1 13.429Z" fill="var(--color-01)" />
  <path d="M403.2 52.239C403.27 53.2395 403.24 54.2445 403.11 55.239C402.97 57.059 402.69 59.579 402.23 62.339C401.77 65.099 401.23 67.569 400.77 69.339C400.574 70.3099 400.279 71.2582 399.89 72.169C399.993 71.1844 400.166 70.2085 400.41 69.249C400.78 67.459 401.26 64.989 401.72 62.249C402.18 59.509 402.51 57.009 402.72 55.199C402.799 54.2009 402.959 53.2109 403.2 52.239Z" fill="var(--color-01)" />
  <path d="M441.32 54.1389C441.39 54.2689 432.64 59.5089 421.77 65.8489C410.9 72.1889 402.04 77.2289 401.97 77.0989C401.9 76.9689 410.64 71.7389 421.51 65.3989C432.38 59.0589 441.24 54.0189 441.32 54.1389Z" fill="var(--color-01)" />
  <path d="M441.42 102.78C440.935 102.796 440.449 102.762 439.97 102.68C439.04 102.57 437.69 102.41 436.04 102.18C432.72 101.73 428.15 101.04 423.11 100.18C418.07 99.32 413.54 98.42 410.27 97.72C408.63 97.38 407.27 97.08 406.4 96.86C405.92 96.7824 405.451 96.6516 405 96.47C405.485 96.4967 405.966 96.5636 406.44 96.67L410.34 97.36L423.2 99.67L436.09 101.83L440 102.48C440.482 102.534 440.957 102.635 441.42 102.78Z" fill="var(--color-01)" />
  <path d="M426.96 145.96C426.85 146.06 419.23 137.76 409.96 127.42C400.69 117.08 393.21 108.61 393.32 108.52C393.43 108.43 401.05 116.73 410.32 127.07C419.59 137.41 427.07 145.91 426.96 145.96Z" fill="var(--color-01)" />
  <path d="M366.33 142.25C366.406 141.856 366.53 141.473 366.7 141.11C366.96 140.38 367.37 139.34 367.89 138.11C368.89 135.56 370.42 132.05 372.15 128.21C373.88 124.37 375.53 120.92 376.75 118.45C377.37 117.22 377.88 116.22 378.24 115.54C378.404 115.182 378.613 114.846 378.86 114.54C378.75 114.927 378.603 115.302 378.42 115.66L377.09 118.66C375.9 121.28 374.34 124.66 372.63 128.47C370.92 132.28 369.4 135.69 368.23 138.31C367.7 139.49 367.23 140.48 366.88 141.31C366.732 141.643 366.548 141.958 366.33 142.25Z" fill="var(--color-01)" />
  <path d="M374.08 91.909C374.08 91.819 374.88 91.739 376.08 91.259C377.625 90.6496 378.962 89.6077 379.931 88.258C380.899 86.9083 381.458 85.3081 381.54 83.649C381.61 82.379 381.43 81.579 381.54 81.569C381.843 82.2219 381.977 82.9406 381.93 83.659C381.952 85.4162 381.412 87.1346 380.388 88.563C379.365 89.9915 377.911 91.0553 376.24 91.599C375.558 91.8859 374.815 91.9926 374.08 91.909Z" fill="var(--color-01)" />
  <path d="M382.37 106.11C382.29 106.11 382.72 105.4 382.95 104.18C383.269 102.616 382.975 100.989 382.128 99.6354C381.281 98.2821 379.946 97.3063 378.4 96.91C377.22 96.57 376.4 96.66 376.4 96.57C377.075 96.3637 377.795 96.3637 378.47 96.57C379.311 96.735 380.109 97.0715 380.814 97.5586C381.52 98.0456 382.117 98.6727 382.569 99.4008C383.021 100.129 383.319 100.942 383.443 101.79C383.567 102.638 383.515 103.503 383.29 104.33C383.162 105 382.843 105.618 382.37 106.11Z" fill="var(--color-01)" />
  <path d="M401.87 97.629C401.87 97.709 400.99 97.379 399.56 97.209C397.7 96.9955 395.817 97.2357 394.07 97.909C392.336 98.6146 390.802 99.7339 389.6 101.169C388.67 102.279 388.28 103.099 388.2 103.059C388.403 102.268 388.782 101.532 389.31 100.909C390.477 99.3372 392.059 98.1218 393.878 97.3993C395.698 96.6769 397.683 96.4759 399.61 96.819C400.414 96.9176 401.186 97.1943 401.87 97.629Z" fill="var(--color-01)" />
  <path d="M401.34 91.7889C400.742 91.8262 400.146 91.6945 399.62 91.4089C398.293 90.8099 397.21 89.7763 396.55 88.4789C395.908 87.1698 395.738 85.6789 396.07 84.2589C396.15 83.6682 396.404 83.1146 396.8 82.6689C396.88 82.6689 396.58 83.2989 396.43 84.3289C396.227 85.6652 396.432 87.0317 397.02 88.2489C397.649 89.4512 398.624 90.4371 399.82 91.0789C400.7 91.5789 401.35 91.6989 401.34 91.7889Z" fill="var(--color-01)" />
  <path d="M395.44 79.2089C395.072 79.6321 394.636 79.9904 394.15 80.2689C393.046 81.0923 391.74 81.6004 390.37 81.7389C389.665 81.7815 388.961 81.6452 388.323 81.3428C387.685 81.0403 387.133 80.5815 386.72 80.0089C386.12 79.0589 386.33 78.3289 386.37 78.3589C386.513 78.8658 386.732 79.348 387.02 79.7889C387.422 80.2712 387.932 80.6519 388.509 80.9004C389.086 81.1488 389.713 81.2579 390.34 81.2189C391.625 81.0703 392.861 80.6401 393.96 79.9589C394.413 79.6358 394.912 79.3829 395.44 79.2089Z" fill="var(--color-01)" />
  <g opacity="0.3">
    <path d="M405.357 141.759C407.444 140.792 409.389 139.544 411.137 138.049L412.987 139.759C410.467 141.569 407.547 143.269 405.427 145.539C405.286 144.284 405.262 143.018 405.357 141.759Z" fill="var(--color-05)" />
  </g>
  <path d="M411.69 137.45C410.914 138.627 409.903 139.63 408.721 140.398C407.539 141.165 406.211 141.68 404.82 141.91C404.82 141.76 406.54 141.2 408.41 139.97C410.28 138.74 411.57 137.35 411.69 137.45Z" fill="var(--color-01)" />
  <path d="M407.69 137.7C407.352 137.915 406.994 138.096 406.62 138.24C406.194 138.438 405.756 138.612 405.31 138.76C404.727 138.981 404.133 139.171 403.53 139.33C401.966 139.764 400.366 140.058 398.75 140.21C396.769 140.375 394.777 140.352 392.8 140.14C390.824 139.889 388.875 139.454 386.98 138.84C385.439 138.309 383.95 137.64 382.53 136.84C381.91 136.53 381.4 136.17 380.93 135.84C380.526 135.601 380.141 135.33 379.78 135.03C379.446 134.807 379.138 134.549 378.86 134.26C378.93 134.18 380.27 135.26 382.71 136.48C384.132 137.204 385.61 137.813 387.13 138.3C390.866 139.498 394.799 139.957 398.71 139.65C400.304 139.522 401.886 139.268 403.44 138.89C406.09 138.32 407.64 137.6 407.69 137.7Z" fill="var(--color-02)" />
  <path d="M408.27 154.16C407.536 152.988 407.078 151.665 406.93 150.29C406.623 148.941 406.623 147.539 406.93 146.19C407.09 146.19 407.08 148.01 407.46 150.19C407.84 152.37 408.41 154.1 408.27 154.16Z" fill="var(--color-02)" />
  <path d="M352.5 127.58C351.864 127.197 351.291 126.718 350.8 126.16C348.256 123.629 346.186 120.662 344.69 117.4C344.341 116.743 344.088 116.039 343.94 115.31C344.09 115.24 345.4 118.31 347.78 121.75C350.16 125.19 352.61 127.47 352.5 127.58Z" fill="var(--color-02)" />
  <path d="M343.11 60.689C343.19 60.749 342.18 62.249 340.85 64.829C337.372 71.5709 335.519 79.0331 335.44 86.619C335.44 89.529 335.59 91.319 335.5 91.329C335.382 90.9217 335.312 90.5023 335.29 90.079C335.155 88.9304 335.082 87.7754 335.07 86.619C335.01 82.7986 335.447 78.9866 336.37 75.279C337.294 71.5731 338.689 68.0007 340.52 64.649C341.24 63.379 341.86 62.369 342.34 61.649C342.56 61.3009 342.818 60.9789 343.11 60.689Z" fill="var(--color-02)" />
  <path d="M350.47 52.009C350.56 52.119 349.94 52.789 349.07 53.499C348.2 54.209 347.43 54.689 347.34 54.579C347.25 54.469 347.88 53.799 348.74 53.089C349.6 52.379 350.38 51.909 350.47 52.009Z" fill="var(--color-02)" />
  <path d="M370.91 297.55C371.139 297.73 371.33 297.955 371.47 298.21C371.9 298.943 372.086 299.794 372 300.64C371.842 301.975 371.239 303.218 370.29 304.17C369.084 305.452 367.627 306.474 366.01 307.17C364.05 308.031 361.901 308.375 359.77 308.17C357.312 307.88 355.005 306.832 353.17 305.17C351.18 303.286 349.917 300.762 349.6 298.04C349.247 295.144 349.686 292.206 350.87 289.54C352.038 286.903 353.614 284.467 355.54 282.32C357.36 280.22 359.26 278.32 360.78 276.32C362.282 274.473 363.352 272.314 363.91 270C364.473 267.514 364.347 264.921 363.545 262.502C362.744 260.082 361.296 257.928 359.36 256.27C358.51 255.56 357.604 254.922 356.65 254.36C357.683 254.789 358.642 255.38 359.49 256.11C361.88 258.072 363.563 260.762 364.28 263.77C364.762 265.847 364.783 268.004 364.34 270.09C363.784 272.475 362.697 274.703 361.16 276.61C359.62 278.66 357.72 280.55 355.93 282.61C354.045 284.725 352.5 287.121 351.35 289.71C350.202 292.288 349.774 295.128 350.11 297.93C350.401 300.54 351.601 302.965 353.5 304.78C355.257 306.376 357.464 307.389 359.82 307.68C361.879 307.899 363.959 307.597 365.87 306.8C369.35 305.33 371.64 302.8 371.8 300.61C371.897 299.802 371.751 298.984 371.38 298.26C371.12 297.77 370.88 297.57 370.91 297.55Z" fill="var(--color-01)" />
  <path d="M182.91 427.8C185.85 414.09 202.64 314.59 202.64 314.59C202.64 314.59 190.53 316.51 188.09 320.85C185.36 325.62 172.36 398.93 170.9 423.8C169.705 423.71 168.505 423.71 167.31 423.8C164.265 423.96 161.373 425.184 159.14 427.26C157.881 428.575 157.01 430.212 156.625 431.992C156.241 433.771 156.356 435.622 156.96 437.34C157.654 439.143 158.869 440.7 160.45 441.81C160.26 443.94 160.94 446.55 162.61 447.64C163.582 448.256 164.716 448.568 165.866 448.538C167.016 448.508 168.132 448.136 169.07 447.47C169.275 448.119 169.661 448.696 170.183 449.134C170.704 449.572 171.34 449.852 172.015 449.941C172.689 450.03 173.376 449.925 173.993 449.638C174.611 449.351 175.133 448.894 175.5 448.32C176.3 450.18 178.92 450.32 180.81 449.66C182.576 448.969 184.141 447.848 185.364 446.399C186.586 444.949 187.427 443.217 187.81 441.36C188.16 439.504 188.132 437.597 187.73 435.752C187.329 433.907 186.56 432.162 185.47 430.62C184.725 429.587 183.866 428.641 182.91 427.8Z" fill="var(--color-04)" />
  <g opacity="0.3">
    <path d="M185.362 413.53C178.202 400.95 174.552 387.53 179.982 368.07C183.862 354.12 191.602 339.85 198.722 327.24" fill="var(--color-05)" />
  </g>
  <path d="M181.44 440.27C181.758 440.047 182.053 439.793 182.32 439.51C182.658 439.114 182.899 438.645 183.024 438.14C183.149 437.635 183.154 437.108 183.04 436.6C182.832 435.865 182.413 435.208 181.836 434.709C181.258 434.209 180.547 433.89 179.79 433.79C178.847 433.698 177.896 433.854 177.032 434.241C176.167 434.629 175.419 435.235 174.86 436C173.697 437.537 173.049 439.403 173.01 441.33C172.953 442.908 173.247 444.479 173.87 445.93C174.485 447.258 175.339 448.461 176.39 449.48C176.39 449.48 176.29 449.48 176.12 449.32C175.874 449.154 175.646 448.963 175.44 448.75C174.644 447.986 173.996 447.08 173.53 446.08C172.837 444.587 172.495 442.955 172.53 441.31C172.55 439.273 173.223 437.296 174.45 435.67C175.07 434.843 175.896 434.193 176.845 433.784C177.794 433.376 178.833 433.222 179.86 433.34C180.702 433.464 181.488 433.835 182.118 434.406C182.749 434.978 183.195 435.724 183.4 436.55C183.509 437.108 183.482 437.684 183.32 438.229C183.158 438.774 182.866 439.272 182.47 439.68C182.257 439.895 182.01 440.074 181.74 440.21C181.55 440.26 181.44 440.29 181.44 440.27Z" fill="var(--color-01)" />
  <path d="M159.29 441.16C159.635 441.313 159.97 441.49 160.29 441.69C161.186 442.141 162.16 442.416 163.16 442.5C164.63 442.64 166.11 442.352 167.42 441.67C168.196 441.281 168.878 440.728 169.42 440.05C169.695 439.699 169.896 439.295 170.01 438.863C170.123 438.432 170.147 437.981 170.08 437.54C169.723 435.925 168.879 434.459 167.66 433.34C166.658 432.375 165.461 431.635 164.15 431.17L163.54 430.95L164.17 430.79C165.733 430.349 167.256 429.774 168.72 429.07C168.389 429.371 168.015 429.62 167.61 429.81C166.551 430.393 165.426 430.85 164.26 431.17V430.79C165.642 431.245 166.908 431.996 167.97 432.99C168.59 433.567 169.131 434.222 169.58 434.94C170.084 435.705 170.425 436.567 170.58 437.47C170.656 437.979 170.627 438.498 170.495 438.995C170.362 439.492 170.129 439.957 169.81 440.36C169.224 441.089 168.487 441.683 167.65 442.1C166.254 442.801 164.68 443.07 163.13 442.87C162.093 442.751 161.094 442.41 160.2 441.87C159.961 441.729 159.737 441.564 159.53 441.38C159.363 441.247 159.283 441.173 159.29 441.16Z" fill="var(--color-01)" />
  <path d="M168.41 441.33C168.58 441.39 167.98 442.82 168.21 444.61C168.473 445.681 168.807 446.733 169.21 447.76C168.34 446.96 167.807 445.859 167.72 444.68C167.607 444.104 167.61 443.511 167.729 442.936C167.847 442.361 168.079 441.815 168.41 441.33Z" fill="var(--color-01)" />
  <path d="M175.78 434.31C175.687 433.883 175.532 433.472 175.32 433.09C175.071 432.72 174.725 432.426 174.32 432.24C173.808 432.025 173.241 431.976 172.7 432.1C171.677 432.357 170.776 432.961 170.15 433.81C169.64 434.46 169.39 434.92 169.32 434.88C169.25 434.84 169.39 434.34 169.85 433.6C170.149 433.1 170.546 432.665 171.017 432.322C171.488 431.978 172.023 431.733 172.59 431.6C173.242 431.452 173.925 431.526 174.53 431.81C175.014 432.051 175.412 432.435 175.67 432.91C176.07 433.74 175.83 434.34 175.78 434.31Z" fill="var(--color-01)" />
  <g opacity="0.3">
    <path d="M164.592 430.86C165.4 430.648 166.25 430.65 167.057 430.868C167.864 431.085 168.6 431.51 169.192 432.1C170.216 430.86 171.623 429.994 173.192 429.64C173.979 429.49 174.793 429.635 175.481 430.046C176.169 430.457 176.681 431.106 176.922 431.87C177.497 431.613 178.125 431.495 178.754 431.526C179.383 431.557 179.996 431.736 180.543 432.049C181.09 432.362 181.555 432.8 181.901 433.326C182.246 433.853 182.463 434.454 182.532 435.08C181.642 434.181 180.472 433.613 179.215 433.471C177.958 433.329 176.69 433.622 175.622 434.3C175.608 433.804 175.438 433.324 175.137 432.929C174.835 432.535 174.417 432.245 173.942 432.1C173.461 431.973 172.958 431.953 172.469 432.043C171.979 432.133 171.516 432.33 171.112 432.62C170.307 433.209 169.667 433.994 169.252 434.9C168.159 433.004 166.425 431.561 164.362 430.83" fill="var(--color-05)" />
  </g>
  <path d="M161.11 440.6C160.419 440.273 159.818 439.782 159.36 439.17C158.103 437.75 157.348 435.955 157.21 434.063C157.073 432.172 157.561 430.287 158.6 428.7C158.961 428.018 159.483 427.435 160.12 427C160.19 427.06 159.55 427.67 158.87 428.87C157.975 430.427 157.567 432.216 157.697 434.007C157.827 435.798 158.49 437.509 159.6 438.92C160.45 440 161.17 440.53 161.11 440.6Z" fill="var(--color-02)" />
  <path d="M377.97 245.25C377.31 243.34 375.51 241.43 373.57 241.98C373.784 241.333 373.808 240.638 373.64 239.978C373.472 239.317 373.118 238.719 372.621 238.253C372.124 237.787 371.503 237.473 370.833 237.349C370.163 237.224 369.472 237.294 368.84 237.55C368.761 236.395 368.337 235.29 367.624 234.377C366.911 233.465 365.942 232.787 364.84 232.43C362.93 231.83 360.49 232.95 358.96 234.43C357.1 233.903 355.124 233.948 353.29 234.56C351.585 235.172 350.083 236.242 348.948 237.654C347.813 239.066 347.091 240.764 346.86 242.56C346.665 245.604 347.546 248.62 349.35 251.08C350.872 253.175 352.63 255.088 354.59 256.78C344.29 304.87 291.52 313.23 291.52 313.23L296.47 332.59C347.04 320.1 360.97 279.78 364.76 260.84H366.09C367.975 260.705 369.814 260.193 371.497 259.334C373.18 258.475 374.674 257.287 375.89 255.84C377.087 254.385 377.904 252.656 378.267 250.807C378.63 248.959 378.528 247.049 377.97 245.25Z" fill="var(--color-04)" />
  <path d="M371.09 251.68C371.144 251.769 371.181 251.867 371.2 251.97C371.273 252.268 371.293 252.576 371.26 252.88C371.196 253.443 370.995 253.982 370.677 254.451C370.358 254.919 369.93 255.303 369.43 255.57C368.66 255.935 367.799 256.062 366.957 255.935C366.115 255.809 365.329 255.435 364.7 254.86C363.957 254.142 363.416 253.24 363.132 252.247C362.848 251.253 362.83 250.203 363.08 249.2C363.562 247.22 364.666 245.447 366.23 244.14C367.483 243.073 368.965 242.306 370.56 241.9C371.631 241.626 372.743 241.555 373.84 241.69C374.135 241.714 374.427 241.771 374.71 241.86C374.91 241.86 375.01 241.95 375 241.96C373.547 241.796 372.076 241.898 370.66 242.26C369.14 242.698 367.734 243.463 366.54 244.5C365.078 245.756 364.046 247.438 363.59 249.31C363.359 250.225 363.369 251.184 363.619 252.094C363.87 253.004 364.353 253.833 365.02 254.5C365.576 255.026 366.274 255.378 367.027 255.511C367.781 255.645 368.557 255.554 369.26 255.25C369.724 255.014 370.127 254.675 370.439 254.259C370.751 253.843 370.964 253.361 371.06 252.85C371.096 252.461 371.106 252.07 371.09 251.68Z" fill="var(--color-01)" />
  <path d="M357.76 234H358.05C358.329 234.051 358.603 234.124 358.87 234.22C359.852 234.566 360.749 235.118 361.5 235.84C362.632 236.92 363.419 238.312 363.76 239.84C363.965 240.749 363.965 241.691 363.76 242.6C363.648 243.102 363.435 243.577 363.134 243.995C362.834 244.412 362.451 244.765 362.01 245.03C361.21 245.483 360.325 245.766 359.41 245.86C357.112 246.135 354.79 245.605 352.84 244.36L353.12 244.11C353.604 245.217 353.963 246.374 354.19 247.56C354.303 247.994 354.344 248.443 354.31 248.89C353.937 247.306 353.418 245.759 352.76 244.27L352.49 243.69L353.05 244.03C354.24 244.747 355.57 245.201 356.95 245.36C358.589 245.602 360.263 245.33 361.74 244.58C362.123 244.352 362.456 244.048 362.717 243.687C362.978 243.326 363.163 242.915 363.26 242.48C363.445 241.643 363.445 240.777 363.26 239.94C362.958 238.493 362.246 237.164 361.21 236.11C360.509 235.39 359.678 234.81 358.76 234.4C358.14 234.1 357.75 234 357.76 234Z" fill="var(--color-01)" />
  <path d="M363.67 240.92C363.831 240.355 364.104 239.828 364.471 239.37C364.839 238.911 365.294 238.531 365.81 238.25C366.78 237.576 367.97 237.294 369.14 237.46C368.092 237.797 367.069 238.208 366.08 238.69C364.55 239.64 363.81 241 363.67 240.92Z" fill="var(--color-01)" />
  <path d="M362.89 251.07C362.94 251.07 362.63 251.66 361.71 251.85C361.176 251.945 360.626 251.879 360.13 251.66C359.527 251.371 359.038 250.889 358.74 250.29C358.485 249.766 358.338 249.195 358.307 248.613C358.277 248.031 358.362 247.449 358.56 246.9C358.85 246.08 359.16 245.64 359.22 245.67C359.164 246.122 359.064 246.568 358.92 247C358.654 248.018 358.753 249.097 359.2 250.05C359.45 250.549 359.848 250.958 360.34 251.22C360.742 251.433 361.197 251.524 361.65 251.48C362.083 251.412 362.502 251.274 362.89 251.07Z" fill="var(--color-01)" />
  <g opacity="0.3">
    <path d="M353.132 244.59C353.481 245.35 354.022 246.006 354.703 246.492C355.384 246.978 356.18 247.277 357.012 247.36C356.701 248.943 356.922 250.586 357.642 252.03C358.462 253.4 360.322 254.26 361.732 253.51C361.899 254.112 362.204 254.668 362.624 255.131C363.044 255.594 363.567 255.952 364.15 256.176C364.733 256.401 365.361 256.486 365.983 256.424C366.605 256.362 367.204 256.155 367.732 255.82C366.469 255.703 365.283 255.157 364.374 254.273C363.464 253.389 362.884 252.22 362.732 250.96C362.338 251.264 361.859 251.436 361.362 251.452C360.864 251.468 360.375 251.328 359.962 251.05C359.558 250.76 359.225 250.383 358.986 249.946C358.747 249.51 358.609 249.026 358.582 248.53C358.523 247.536 358.723 246.544 359.162 245.65C357.013 246.006 354.808 245.584 352.942 244.46" fill="var(--color-05)" />
  </g>
  <path d="M224.02 431.71C227.2 445.19 230.373 458.673 233.54 472.16C228.614 471.453 223.592 472.387 219.25 474.82C217.75 475.67 216.16 477.34 216.97 478.82C217.6 480.02 219.25 480.11 220.6 480.05C231.12 479.6 241.6 480.49 252.18 480.05L251.6 439.05" fill="var(--color-04)" />
  <path d="M281.06 431.71C277.893 445.19 274.72 458.673 271.54 472.16C276.469 471.452 281.495 472.387 285.84 474.82C287.34 475.67 288.92 477.34 288.12 478.82C287.48 480.02 285.84 480.11 284.49 480.05C273.96 479.6 263.49 480.49 252.91 480.05L253.49 439.05" fill="var(--color-04)" />
  <g opacity="0.3">
    <path d="M226.242 441.13L227.552 446.48C236.152 446.95 244.492 448.25 251.712 446.66L251.642 441.94C251.642 441.94 242.742 441.47 237.642 440.13L239.972 444.4C235.288 443.823 230.683 442.726 226.242 441.13Z" fill="var(--color-05)" />
    <path d="M253.362 446.58C253.362 446.58 261.842 448.88 270.022 447.46C276.942 446.27 277.912 445.02 277.912 445.02L280.062 436C280.062 436 270.482 441.47 255.592 438.52L263.362 441.7H253.442L253.362 446.58Z" fill="var(--color-05)" />
  </g>
  <path d="M319.55 379.84C316.211 373.122 312.068 366.836 307.21 361.12V361.05C309.839 361.596 312.529 361.795 315.21 361.64C310.519 358.152 306.54 353.797 303.49 348.81C299.4 333.72 295.02 318.56 294.93 303.14L203.18 302.43C200.732 320.802 196.485 338.889 190.5 356.43C184.17 375.43 177.02 398.04 189.65 416.65C191.965 419.972 194.857 422.851 198.19 425.15C202.123 429.313 206.34 433.199 210.81 436.78C210.037 434.827 209.273 432.877 208.52 430.93L210.09 431.63C219.072 438.9 229.898 443.53 241.36 445L239.66 440.93C252.8 443.21 266.15 442.52 278.08 436.93C300.35 426.43 312.08 414 314.84 397.7C316.25 389.44 314.65 382.02 312.17 374.61L319.55 379.84Z" fill="var(--color-04)" />
  <path d="M289.27 384.37H288.9C288.66 384.37 288.3 384.27 287.9 384.16C286.605 383.869 285.332 383.488 284.09 383.02C279.859 381.424 276.015 378.95 272.81 375.76L273.23 375.48C273.67 376.61 274.13 377.78 274.59 378.98C275.43 381.16 276.25 383.26 277 385.2L277.57 386.68L276.57 385.45C273.71 381.9 271.23 378.83 269.41 376.56L267.41 373.97C267.154 373.655 266.924 373.321 266.72 372.97C267.024 373.226 267.299 373.514 267.54 373.83L269.69 376.34L277 385.1L276.57 385.35C275.82 383.41 275 381.35 274.15 379.14C273.68 377.94 273.23 376.76 272.79 375.64L272.35 374.5L273.21 375.37C276.356 378.508 280.096 380.99 284.21 382.67C285.43 383.164 286.675 383.595 287.94 383.96C288.391 384.072 288.835 384.209 289.27 384.37Z" fill="var(--color-01)" />
  <path d="M210.01 366.22C209.564 365.479 209.227 364.677 209.01 363.84C208.349 361.851 207.929 359.79 207.76 357.7C207.588 355.612 207.665 353.51 207.99 351.44C208.079 350.575 208.291 349.726 208.62 348.92C208.585 349.778 208.498 350.633 208.36 351.48C208.141 353.53 208.114 355.595 208.28 357.65C208.455 359.705 208.816 361.74 209.36 363.73C209.625 364.547 209.842 365.378 210.01 366.22Z" fill="var(--color-01)" />
  <path d="M213.08 358.4C212.763 357.84 212.549 357.226 212.45 356.59C212.086 355.093 211.891 353.56 211.87 352.02C211.85 350.482 211.997 348.946 212.31 347.44C212.402 346.806 212.598 346.191 212.89 345.62C212.613 347.743 212.447 349.88 212.39 352.02C212.508 354.157 212.738 356.287 213.08 358.4Z" fill="var(--color-01)" />
  <path d="M245.67 417.13C245.483 417.121 245.298 417.087 245.12 417.03C244.76 416.94 244.23 416.83 243.56 416.63C241.656 416.082 239.789 415.414 237.97 414.63C231.898 412.048 226.368 408.344 221.67 403.71L222.06 403.37C222.27 403.65 222.48 403.96 222.7 404.27C224.638 407.092 226.148 410.186 227.18 413.45L227.37 414.05L226.83 413.73C222.911 411.456 219.617 408.247 217.24 404.39C216.567 403.288 215.976 402.138 215.47 400.95C215.3 400.53 215.19 400.2 215.11 399.95C215.06 399.839 215.027 399.721 215.01 399.6C215.241 399.999 215.445 400.413 215.62 400.84C216.172 401.995 216.796 403.114 217.49 404.19C219.914 407.937 223.199 411.05 227.07 413.27L226.72 413.56C225.679 410.361 224.18 407.33 222.27 404.56L221.65 403.67L222.04 403.33C226.691 407.933 232.135 411.66 238.11 414.33C239.909 415.131 241.748 415.839 243.62 416.45C244.28 416.68 244.8 416.82 245.14 416.94C245.323 416.985 245.5 417.049 245.67 417.13Z" fill="var(--color-01)" />
  <path d="M198.71 324.06C198.719 324.14 198.719 324.22 198.71 324.3V324.98C198.66 325.59 198.55 326.47 198.4 327.61C198.08 329.88 197.48 333.16 196.51 337.14C195.54 341.12 194.17 345.83 192.51 351C190.85 356.17 189.02 361.83 187.33 367.85C185.679 373.472 184.422 379.203 183.57 385C182.916 389.743 182.839 394.548 183.34 399.31C183.696 402.519 184.431 405.674 185.53 408.71C185.95 409.77 186.28 410.6 186.53 411.14L186.8 411.77C186.838 411.839 186.865 411.913 186.88 411.99C186.88 411.99 186.88 411.93 186.75 411.8C186.62 411.67 186.56 411.43 186.43 411.19C186.14 410.66 185.78 409.84 185.34 408.78C184.154 405.749 183.355 402.581 182.96 399.35C182.406 394.557 182.45 389.713 183.09 384.93C183.901 379.092 185.134 373.32 186.78 367.66C188.49 361.66 190.37 355.98 192.01 350.81C193.65 345.64 195.07 340.98 196.08 337.02C197.09 333.06 197.75 329.8 198.08 327.54C198.26 326.41 198.4 325.54 198.48 324.93L198.59 324.25C198.621 324.181 198.661 324.117 198.71 324.06Z" fill="var(--color-01)" />
  <path d="M202.61 421.74C202.381 421.576 202.164 421.395 201.96 421.2C201.57 420.83 200.96 420.33 200.2 419.56C198.125 417.457 196.318 415.106 194.82 412.56C192.581 408.77 190.897 404.678 189.82 400.41C188.505 395.182 187.916 389.798 188.07 384.41C188.26 379.041 188.95 373.701 190.13 368.46C191.19 363.63 192.43 359.35 193.54 355.78C194.65 352.21 195.63 349.36 196.31 347.39C196.65 346.44 196.91 345.68 197.11 345.12C197.195 344.852 197.302 344.591 197.43 344.34C197.375 344.618 197.302 344.892 197.21 345.16C197.04 345.72 196.8 346.49 196.5 347.45C195.88 349.45 194.96 352.32 193.89 355.89C192.82 359.46 191.63 363.74 190.6 368.56C189.457 373.776 188.787 379.084 188.6 384.42C188.476 389.758 189.068 395.089 190.36 400.27C191.397 404.503 193.023 408.569 195.19 412.35C196.646 414.901 198.395 417.274 200.4 419.42C201.08 420.21 201.71 420.72 202.08 421.13C202.275 421.317 202.453 421.521 202.61 421.74Z" fill="var(--color-02)" />
  <path d="M211.99 424.81C210.275 423.709 208.658 422.461 207.16 421.08C205.545 419.838 204.042 418.456 202.67 416.95C204.379 418.055 205.991 419.303 207.49 420.68C209.104 421.927 210.61 423.308 211.99 424.81Z" fill="var(--color-02)" />
  <path d="M175.73 144.06C174.98 144.25 156.5 152.79 159.98 177.3C162.98 198.77 175.73 199.3 175.73 199.3L199.41 178.6C199.41 178.6 182.22 176.77 177.78 164.24C173.27 151.49 175.73 144.06 175.73 144.06Z" fill="var(--color-01)" />
  <path d="M186.08 173.77C186.08 173.87 184.37 173.83 181.72 174.47C178.25 175.28 175.033 176.933 172.354 179.282C169.675 181.632 167.616 184.605 166.36 187.94C165.36 190.49 165.2 192.2 165.1 192.18C165.084 191.777 165.117 191.374 165.2 190.98C165.379 189.902 165.65 188.841 166.01 187.81C167.199 184.371 169.261 181.301 171.994 178.899C174.727 176.498 178.037 174.847 181.6 174.11C182.669 173.88 183.757 173.749 184.85 173.72C185.26 173.68 185.674 173.697 186.08 173.77Z" fill="var(--color-01)" />
  <path d="M179.03 166C179.03 166.1 177.64 165.84 175.43 166C172.55 166.208 169.771 167.143 167.35 168.717C164.93 170.291 162.948 172.452 161.59 175C160.59 177 160.22 178.31 160.12 178.28C160.129 177.939 160.193 177.601 160.31 177.28C160.561 176.419 160.896 175.585 161.31 174.79C162.619 172.124 164.624 169.86 167.113 168.239C169.602 166.618 172.482 165.699 175.45 165.58C176.339 165.539 177.229 165.583 178.11 165.71C178.43 165.759 178.74 165.857 179.03 166Z" fill="var(--color-01)" />
  <path d="M160.98 161.65C160.98 161.65 160.98 161.4 161.2 160.98C161.473 160.393 161.809 159.836 162.2 159.32C163.495 157.602 165.285 156.321 167.33 155.65C169.394 154.988 171.63 155.109 173.61 155.99C174.207 156.251 174.768 156.587 175.28 156.99C175.64 157.26 175.81 157.45 175.79 157.47C175.77 157.49 174.96 156.91 173.47 156.37C171.549 155.628 169.434 155.561 167.47 156.18C165.519 156.83 163.787 158.011 162.47 159.59C161.47 160.77 161.07 161.69 160.98 161.65Z" fill="var(--color-01)" />
  <path d="M171.12 148.34C171.12 148.34 170.64 148.87 169.77 149.81C168.552 151.139 167.441 152.564 166.45 154.07C163.109 159.019 161.192 164.791 160.91 170.756C160.628 176.72 161.991 182.648 164.85 187.89C165.7 189.48 166.673 191.001 167.76 192.44C168.53 193.44 168.99 194 168.96 194.03C168.82 193.925 168.692 193.804 168.58 193.67C168.36 193.42 168 193.07 167.58 192.56C166.419 191.159 165.391 189.652 164.51 188.06C161.52 182.79 160.084 176.78 160.369 170.727C160.654 164.674 162.648 158.826 166.12 153.86C167.153 152.36 168.321 150.957 169.61 149.67C170.05 149.2 170.44 148.89 170.69 148.67C170.816 148.539 170.961 148.428 171.12 148.34Z" fill="var(--color-02)" />
  <path d="M315.97 146.17C316.71 146.35 335.19 154.9 331.71 179.41C328.71 200.88 315.97 201.41 315.97 201.41L292.29 180.72C292.29 180.72 309.47 178.89 313.92 166.36C318.42 153.6 315.97 146.17 315.97 146.17Z" fill="var(--color-01)" />
  <path d="M305.61 175.87C306.007 175.807 306.409 175.79 306.81 175.82C307.903 175.859 308.99 175.993 310.06 176.22C313.626 176.951 316.939 178.599 319.673 181.002C322.407 183.404 324.467 186.478 325.65 189.92C326.01 190.952 326.281 192.012 326.46 193.09C326.548 193.48 326.585 193.88 326.57 194.28C326.46 194.28 326.28 192.6 325.3 190.04C324.049 186.711 321.996 183.741 319.324 181.393C316.652 179.046 313.443 177.393 309.98 176.58C307.36 175.94 305.6 176 305.61 175.87Z" fill="var(--color-01)" />
  <path d="M313.15 168.19C313.451 168.073 313.768 167.999 314.09 167.97C314.953 167.839 315.828 167.792 316.7 167.83C319.612 167.96 322.429 168.906 324.83 170.56C327.234 172.182 329.174 174.401 330.46 177C330.844 177.787 331.156 178.607 331.39 179.45C331.499 179.752 331.56 180.069 331.57 180.39C331.48 180.39 331.15 179.09 330.13 177.17C328.789 174.681 326.873 172.548 324.54 170.95C322.207 169.352 319.498 168.39 316.68 168.16C314.51 168 313.16 168.29 313.15 168.19Z" fill="var(--color-01)" />
  <path d="M330.71 163.76C330.63 163.76 330.23 162.88 329.23 161.65C327.914 160.072 326.182 158.894 324.23 158.25C322.267 157.625 320.149 157.692 318.23 158.44C316.74 158.98 315.97 159.62 315.91 159.54C315.85 159.46 316.06 159.33 316.42 159.05C316.934 158.65 317.495 158.315 318.09 158.05C320.075 157.173 322.312 157.052 324.38 157.71C326.422 158.387 328.208 159.671 329.5 161.39C329.894 161.905 330.229 162.461 330.5 163.05C330.62 163.269 330.692 163.511 330.71 163.76Z" fill="var(--color-01)" />
  <path d="M317.64 148.39C317.816 148.755 317.954 149.137 318.05 149.53C318.204 149.981 318.324 150.442 318.41 150.91C318.556 151.527 318.669 152.151 318.75 152.78C318.858 153.536 318.924 154.297 318.95 155.06C318.995 155.939 318.995 156.821 318.95 157.7C318.823 159.709 318.488 161.7 317.95 163.64C317.362 165.571 316.571 167.435 315.59 169.2C315.11 169.99 314.68 170.76 314.18 171.42C313.743 172.051 313.269 172.655 312.76 173.23C312.357 173.715 311.926 174.175 311.47 174.61C311.149 174.972 310.798 175.307 310.42 175.61C310.118 175.897 309.782 176.145 309.42 176.35C309.35 176.27 310.71 175.18 312.42 173.03C312.899 172.448 313.346 171.84 313.76 171.21C314.24 170.56 314.65 169.79 315.12 169.01C316.05 167.26 316.81 165.425 317.39 163.53C317.933 161.626 318.288 159.673 318.45 157.7C318.45 156.79 318.56 155.93 318.52 155.11C318.512 154.358 318.465 153.607 318.38 152.86C318.08 150.07 317.53 148.42 317.64 148.39Z" fill="var(--color-02)" />
  <path d="M231.22 160.31C231.22 160.31 228.1 161.2 229.44 148.7L240.15 160.32C240.15 160.32 235.8 153.16 234.63 146.91C234.63 146.91 248.17 159.44 252.87 160.32C257.57 161.2 289.73 162.99 308.48 179.07C327.23 195.15 335.74 210.73 337.78 227.59C341.1 254.92 336.17 278.21 323.22 293.84L322.78 289.38C322.78 289.38 308.93 309.47 287.94 315.28C266.95 321.09 204.87 315.28 204.87 315.28C204.87 315.28 170.04 305.9 157.98 278.66C145.92 251.42 152.62 247.4 152.62 247.4L147.43 252.3C147.43 252.3 146.07 213.08 181.2 185.3C208.89 163.44 231.22 160.31 231.22 160.31Z" fill="var(--color-04)" />
  <path d="M298.78 310.82C298.78 310.82 298.71 310.88 298.55 310.96L297.84 311.33C297.21 311.65 296.3 312.13 295.08 312.71C292.66 313.87 289.08 315.49 284.53 317.2C279.118 319.252 273.527 320.799 267.83 321.82C264.41 322.435 260.945 322.769 257.47 322.82C253.682 322.885 249.899 322.529 246.19 321.76L246.39 321.3L255.06 327.3L256.11 328.03L254.85 327.76L252.53 327.27L231.89 322.84L232.12 322.42L236.96 327.52L237.52 328.1L236.74 327.91C227.5 325.661 218.554 322.345 210.08 318.03C206.98 316.45 204.61 315.08 203 314.11C202.19 313.63 201.59 313.24 201.18 312.98L200.72 312.67C200.61 312.6 200.56 312.57 200.57 312.56L200.74 312.64L201.22 312.91L203.08 313.98C204.7 314.91 207.08 316.24 210.21 317.78C218.701 321.989 227.637 325.232 236.85 327.45L236.62 327.84C235.053 326.2 233.437 324.507 231.77 322.76L231.21 322.18L232 322.35L252.64 326.76L254.96 327.26L254.76 327.72L246.1 321.67L245.1 320.94L246.34 321.21C250.01 321.973 253.752 322.332 257.5 322.28C260.953 322.247 264.398 321.933 267.8 321.34C273.473 320.344 279.045 318.842 284.45 316.85C289.03 315.19 292.6 313.61 295.05 312.51L297.84 311.21L298.57 310.88L298.78 310.82Z" fill="var(--color-01)" />
  <g opacity="0.3">
    <path d="M298.782 310.82C281.922 319.27 262.832 325.12 246.252 321.5L254.912 327.55L231.912 322.63C233.532 324.33 235.152 326.02 236.762 327.72C223.964 324.631 211.738 319.528 200.542 312.6C200.542 312.6 218.802 331.68 239.942 332.7C274.822 334.37 298.782 310.82 298.782 310.82Z" fill="var(--color-05)" />
  </g>
  <path d="M182.11 283.94C181.89 283.849 181.682 283.731 181.49 283.59C181.1 283.34 180.49 283 179.78 282.48C177.716 281.042 175.791 279.415 174.03 277.62C168.131 271.669 164.027 264.176 162.19 256L162.7 255.94V256.31C162.85 261.67 163 266.74 163.14 271.25V272.45L162.66 271.35C160.65 266.809 159.351 261.986 158.81 257.05C158.653 255.655 158.566 254.253 158.55 252.85V251.73C158.537 251.604 158.537 251.476 158.55 251.35C158.565 251.476 158.565 251.604 158.55 251.73C158.55 252.017 158.57 252.387 158.61 252.84C158.61 253.84 158.76 255.23 159 257.02C159.632 261.904 160.98 266.668 163 271.16L162.55 271.26C162.4 266.76 162.23 261.68 162.05 256.33V256L162.57 255.94C163.564 260.366 165.226 264.615 167.5 268.54C170.611 273.919 174.786 278.608 179.77 282.32C180.46 282.87 181.05 283.23 181.42 283.52C181.664 283.636 181.895 283.777 182.11 283.94Z" fill="var(--color-01)" />
  <path d="M320.43 259.17C320.43 259.17 320.52 259 320.74 258.71L321.74 257.44C322.13 256.87 322.53 256.12 323.04 255.28L323.7 253.86L324.06 253.09C324.16 252.81 324.27 252.53 324.37 252.24C326.18 247.64 327.27 240.79 327.21 233.24C327.21 232.17 327.21 231.11 327.1 230.09L326.97 228.09L327.61 229.99C328.27 231.99 328.9 233.85 329.5 235.63H329.04C329.892 233.347 330.313 230.926 330.28 228.49C330.254 226.575 329.958 224.672 329.4 222.84C328.879 221.219 328.209 219.649 327.4 218.15C327.4 218.15 327.49 218.24 327.62 218.43C327.75 218.62 327.95 218.89 328.17 219.28C328.81 220.379 329.333 221.542 329.73 222.75C330.345 224.6 330.682 226.531 330.73 228.48C330.806 230.974 330.402 233.459 329.54 235.8L329.3 236.45L329.08 235.79L327.16 230.16L327.66 230.06C327.73 231.11 327.76 232.16 327.77 233.24C327.83 240.84 326.68 247.75 324.77 252.37C324.65 252.66 324.54 252.95 324.43 253.22L324.05 254L323.34 255.42C322.8 256.26 322.34 257 321.95 257.55L320.95 258.77C320.57 259.05 320.44 259.19 320.43 259.17Z" fill="var(--color-01)" />
  <path d="M276.16 184.85C275.927 184.872 275.693 184.872 275.46 184.85C275.01 184.85 274.33 184.85 273.46 184.79C271.013 184.654 268.58 184.336 266.18 183.84C258.196 182.213 250.678 178.817 244.18 173.9L244.52 173.51L244.69 173.69C247.97 177.02 251.09 180.2 253.93 183.1L254.48 183.66L253.72 183.5C250.886 182.937 248.177 181.87 245.72 180.35C243.788 179.171 242.028 177.731 240.49 176.07C239.491 174.991 238.597 173.819 237.82 172.57C237.55 172.14 237.38 171.78 237.25 171.57C237.12 171.36 237.06 171.21 237.08 171.21C237.394 171.627 237.684 172.061 237.95 172.51C238.778 173.709 239.701 174.839 240.71 175.89C242.253 177.501 244.01 178.894 245.93 180.03C248.37 181.487 251.047 182.503 253.84 183.03L253.63 183.44L244.36 174.07L244.19 173.9L244.53 173.51C250.966 178.375 258.379 181.786 266.26 183.51C268.641 184.029 271.053 184.4 273.48 184.62C274.34 184.72 275.01 184.73 275.48 184.78C275.709 184.777 275.937 184.801 276.16 184.85Z" fill="var(--color-01)" />
  <path d="M210.07 171.91C209.996 171.959 209.915 171.996 209.83 172.02L209.12 172.28C208.5 172.51 207.55 172.8 206.38 173.28C191.937 178.624 179.162 187.687 169.345 199.552C159.527 211.416 153.016 225.662 150.47 240.85C150.23 242.09 150.13 243.06 150.02 243.72C150.02 244.02 149.93 244.27 149.89 244.47C149.883 244.556 149.863 244.64 149.83 244.72V244.46C149.83 244.29 149.83 244.01 149.9 243.71C149.99 243.05 150.05 242.06 150.26 240.81C150.779 237.27 151.534 233.769 152.52 230.33C153.966 225.218 155.888 220.253 158.26 215.5C164.059 203.784 172.505 193.578 182.93 185.69C187.155 182.47 191.671 179.651 196.42 177.27C199.617 175.659 202.917 174.262 206.3 173.09C207.49 172.65 208.44 172.4 209.08 172.2L209.8 171.99C209.885 171.948 209.976 171.921 210.07 171.91Z" fill="var(--color-02)" />
  <path d="M164.77 281.37C164.407 281.068 164.072 280.733 163.77 280.37C163.45 280.04 163.08 279.62 162.67 279.11C162.26 278.6 161.77 278.04 161.31 277.36C160.174 275.797 159.155 274.153 158.26 272.44C157.172 270.341 156.256 268.157 155.52 265.91C154.804 263.653 154.269 261.342 153.92 259C153.658 257.088 153.534 255.16 153.55 253.23C153.55 252.41 153.55 251.66 153.64 251.01C153.664 250.451 153.718 249.894 153.8 249.34C153.837 248.867 153.917 248.398 154.04 247.94C154.088 248.412 154.088 248.888 154.04 249.36C154.04 249.82 153.97 250.36 153.97 251.03V253.23C154.006 255.138 154.167 257.042 154.45 258.93C154.816 261.239 155.347 263.518 156.04 265.75C156.768 267.97 157.66 270.133 158.71 272.22C159.574 273.925 160.553 275.569 161.64 277.14C162.08 277.83 162.55 278.41 162.93 278.93C163.31 279.45 163.66 279.93 163.93 280.24C164.244 280.59 164.526 280.968 164.77 281.37Z" fill="var(--color-02)" />
  <path d="M173.04 290.75C172.99 290.88 172.04 290.66 171.04 289.96C170.04 289.26 169.48 288.42 169.59 288.34C169.7 288.26 170.39 288.88 171.34 289.53C172.29 290.18 173.09 290.6 173.04 290.75Z" fill="var(--color-02)" />
  <path d="M233.87 161.88C232.431 160.659 231.313 159.103 230.616 157.349C229.918 155.595 229.662 153.696 229.87 151.82C230.099 153.638 230.514 155.427 231.11 157.16C231.862 158.826 232.787 160.408 233.87 161.88Z" fill="var(--color-02)" />
  <g opacity="0.3">
    <path d="M224.802 272.71C225.402 271.71 226.012 270.71 226.622 269.71C226.56 270.001 226.569 270.303 226.647 270.589C226.726 270.876 226.871 271.141 227.072 271.36C227.479 271.792 227.96 272.147 228.492 272.41C229.492 272.97 230.812 273.41 231.832 272.87C232.298 272.51 232.643 272.017 232.821 271.456C233 270.895 233.004 270.293 232.832 269.73C232.642 268.81 232.222 267.94 231.972 267.03C231.817 266.583 231.752 266.109 231.783 265.637C231.814 265.164 231.94 264.703 232.152 264.28C232.836 263.428 233.813 262.861 234.892 262.69C238.759 261.566 242.795 261.136 246.812 261.42C250.843 261.725 254.703 263.171 257.942 265.59C257.672 264.16 256.402 263.16 255.152 262.41C252.572 260.86 249.705 259.848 246.723 259.434C243.742 259.019 240.707 259.212 237.802 260C234.903 260.83 232.23 262.309 229.988 264.326C227.746 266.343 225.993 268.844 224.862 271.64" fill="var(--color-05)" />
  </g>
  <path d="M227.51 267.41C227.889 269.108 228.808 270.638 230.13 271.77C230.342 272.011 230.619 272.186 230.927 272.275C231.235 272.363 231.563 272.362 231.87 272.27C232.52 271.94 232.54 271.02 232.42 270.27C232.058 268.156 231.283 266.135 230.14 264.32" fill="var(--color-02)" />
  <path d="M261.11 267.41C260.737 269.108 259.821 270.639 258.5 271.77C258.286 272.011 258.007 272.185 257.697 272.274C257.388 272.363 257.059 272.361 256.75 272.27C256.1 271.94 256.08 271.02 256.2 270.27C256.561 268.155 257.34 266.132 258.49 264.32" fill="var(--color-02)" />
  <path d="M265.79 271.91C265.47 272.15 263.66 269.91 260.11 267.06C258.038 265.431 255.77 264.067 253.36 263C250.451 261.71 247.328 260.971 244.15 260.82C241.001 260.651 237.853 261.176 234.93 262.36C232.553 263.35 230.415 264.836 228.66 266.72C225.66 269.98 225.12 272.94 224.71 272.83C224.55 272.83 224.46 272.05 224.71 270.71C225.167 268.826 226.019 267.06 227.21 265.53C228.986 263.232 231.287 261.394 233.92 260.17C237.152 258.696 240.693 258.027 244.24 258.22C247.75 258.383 251.188 259.268 254.34 260.82C256.882 262.072 259.216 263.708 261.26 265.67C264.76 269 266.05 271.74 265.79 271.91Z" fill="var(--color-01)" />
  <g opacity="0.3">
    <path d="M252.452 284.88C252.612 285.18 251.762 286.02 250.072 286.88C247.838 287.924 245.418 288.512 242.954 288.61C240.49 288.708 238.032 288.314 235.722 287.45C233.972 286.75 233.062 285.98 233.192 285.66C233.482 284.97 237.652 286.26 242.852 286.01C248.052 285.76 252.102 284.21 252.452 284.88Z" fill="var(--color-05)" />
  </g>
  <path d="M206.19 211.21C231.039 219.761 257.996 219.996 282.99 211.88C282.99 211.88 278.06 246.95 244.65 248.88C211.24 250.81 206.19 211.21 206.19 211.21Z" fill="var(--color-02)" />
  <path d="M231.65 217.21C230.443 225.419 231.798 233.8 235.53 241.21C236.405 243.296 237.746 245.153 239.45 246.64C240.311 247.371 241.346 247.867 242.455 248.081C243.564 248.295 244.709 248.219 245.78 247.86C247.78 247.03 249.06 245 249.98 243.01C253.98 234.32 254.4 227.23 254.82 217.66C247.48 219.55 239.72 219.2 231.65 217.21Z" fill="var(--color-01)" />
  <g opacity="0.3">
    <path d="M278.032 230.44C278.162 230.51 277.742 231.67 276.632 233.59C274.987 236.295 272.967 238.752 270.632 240.89C269.053 242.391 267.357 243.765 265.562 245C263.458 246.38 261.236 247.571 258.922 248.56C253.59 250.888 247.793 251.956 241.981 251.68C236.17 251.405 230.5 249.793 225.412 246.97C223.204 245.762 221.106 244.363 219.142 242.79C217.454 241.404 215.879 239.886 214.432 238.25C212.329 235.901 210.571 233.265 209.212 230.42C208.282 228.42 207.972 227.21 208.112 227.15C208.252 227.09 208.922 228.15 210.112 229.92C211.757 232.468 213.664 234.838 215.802 236.99C217.268 238.464 218.835 239.834 220.492 241.09C222.407 242.503 224.433 243.757 226.552 244.84C231.373 247.367 236.689 248.811 242.126 249.07C247.564 249.329 252.992 248.397 258.032 246.34C260.243 245.458 262.379 244.402 264.422 243.18C266.19 242.083 267.88 240.867 269.482 239.54C271.808 237.599 273.929 235.424 275.812 233.05C277.132 231.32 277.852 230.34 278.032 230.44Z" fill="var(--color-05)" />
    <path d="M275.462 206C274.416 205.818 273.339 206.051 272.462 206.65C263.254 211.223 252.907 212.996 242.702 211.75C232.572 210.49 222.152 206.95 214.412 200.29C212.302 201.41 211.772 204.37 212.682 206.57C213.592 208.77 215.572 210.32 217.582 211.57C224.574 215.931 232.531 218.506 240.752 219.07C248.953 219.623 257.19 218.843 265.142 216.76C269.062 215.76 273.142 214.45 275.732 211.33C276.449 210.542 276.9 209.549 277.022 208.49C277.057 207.964 276.924 207.44 276.644 206.993C276.364 206.546 275.951 206.199 275.462 206Z" fill="var(--color-05)" />
  </g>
  <path d="M274.15 205.77C274.53 206.3 271.93 209.17 266.4 211.98C263.153 213.608 259.707 214.804 256.15 215.54C247.319 217.393 238.134 216.507 229.82 213C226.467 211.601 223.308 209.776 220.42 207.57C215.53 203.76 213.52 200.44 214 200C214.48 199.56 217.43 201.74 222.44 204.49C228.843 208.139 235.947 210.388 243.283 211.09C250.62 211.791 258.021 210.929 265 208.56C270.45 206.83 273.71 205.13 274.15 205.77Z" fill="var(--color-01)" />
  <path d="M239 241.07C239 241.07 238.77 240.87 238.44 240.44C237.977 239.836 237.556 239.201 237.18 238.54C235.911 236.363 234.99 234.001 234.45 231.54C233.905 229.076 233.743 226.543 233.97 224.03C234.038 223.27 234.155 222.515 234.32 221.77C234.44 221.25 234.52 220.96 234.56 220.97C234.6 220.98 234.43 222.15 234.34 224.06C234.094 229.027 235.185 233.969 237.5 238.37C238.36 240.05 239.07 241 239 241.07Z" fill="var(--color-02)" />
  <path d="M290.93 209.81C289.889 210.423 288.782 210.916 287.63 211.28C286.54 211.71 285.21 212.23 283.63 212.72C282.05 213.21 280.28 213.86 278.26 214.36C276.24 214.86 274.05 215.52 271.64 215.99C270.44 216.24 269.21 216.54 267.92 216.76L263.92 217.42C257.996 218.296 252.018 218.75 246.03 218.78C240.044 218.764 234.066 218.329 228.14 217.48C225.42 217.02 222.82 216.63 220.44 216.06C219.24 215.79 218.08 215.55 216.98 215.28L213.82 214.42C211.82 213.9 210.02 213.27 208.45 212.76C207.66 212.49 206.93 212.26 206.26 212.02L204.46 211.3C203.309 210.933 202.205 210.433 201.17 209.81C201.26 209.55 206.08 211.36 214.1 213.35L217.25 214.1C218.35 214.35 219.51 214.55 220.7 214.79C223.07 215.31 225.64 215.63 228.34 216.06C234.207 216.809 240.115 217.196 246.03 217.22C251.953 217.194 257.869 216.787 263.74 216L267.68 215.42C268.96 215.23 270.19 214.95 271.38 214.73C273.77 214.32 275.97 213.73 277.98 213.3C279.99 212.87 281.79 212.3 283.38 211.89C284.97 211.48 286.32 211.06 287.38 210.72C288.524 210.281 289.715 209.975 290.93 209.81Z" fill="var(--color-01)" />
  <path d="M253.694 135.735L253.244 155.025L247.824 130.635L260.744 129.305L264.944 107.535L266.814 134.425L253.694 135.735Z" fill="var(--color-04)" />
  <path d="M270.064 146.685L260.564 158.235L268.924 140.775L277.444 146.145L290.404 134.875L278.694 152.165L270.064 146.685Z" fill="var(--color-04)" />
  <path opacity="0.6" d="M253.694 135.735L253.244 155.025L247.824 130.635L260.744 129.305L264.944 107.535L266.814 134.425L253.694 135.735Z" fill="var(--color-02)" />
  <path opacity="0.6" d="M270.064 146.685L260.564 158.235L268.924 140.775L277.444 146.145L290.404 134.875L278.694 152.165L270.064 146.685Z" fill="var(--color-02)" />
</svg>