<svg viewBox="0 0 500 500" xmlns="http://www.w3.org/2000/svg">
  <defs>
    <style>
      /* Light Scheme */
      :root {
        --color-01: #d70718;
        --color-02: #FFFFFF;
        --color-03: #455A64;
        --color-04: #263238;
        --color-05: #FFFFFF;
      }

      /* Dark Scheme */
      @media (prefers-color-scheme: dark) {
        :root {
          --color-01: #d70718;
          --color-02: #D9D9D9;
          --color-03: #455A64;
          --color-04: #263238;
          --color-05: #5E5E5E;
        }
      }
    </style>
  </defs>
  <path fill="var(--color-05)" d="M341.45 34.234C332.14 34.234 320.319 51.365 320.319 51.365H373.219C373.219 51.365 372.27 42.2252 366.18 41.275C360.09 40.325 353.52 45.6539 353.52 45.6539C353.52 45.6539 350.76 34.234 341.45 34.234ZM135.46 68.078C135.004 68.0877 134.539 68.1238 134.067 68.1854C118.977 70.1554 104.868 101.654 104.868 101.654H207.868C202.618 86.3444 187.327 94.4044 187.327 94.4044C187.327 94.4044 181.419 82.5934 173.768 82.5934C166.118 82.5934 156.377 91.5934 156.377 91.5934C156.377 91.5934 149.603 67.776 135.46 68.078ZM79.907 117.494C70.597 117.494 58.778 134.605 58.778 134.605H111.698C111.698 134.605 110.708 125.485 104.628 124.535C98.5477 123.585 91.9677 128.914 91.9677 128.914C91.9677 128.914 89.2174 117.494 79.907 117.494ZM379.927 180.015C362.657 180.015 351.437 210.663 351.437 210.663H464.617C455.257 196.693 441.697 204.864 441.697 204.864C441.697 204.864 433.418 189.673 423.838 189.673C414.258 189.673 402.608 201.173 402.608 201.173C402.608 201.173 397.198 180.015 379.928 180.015L379.927 180.015ZM119.287 242.827C118.831 242.837 118.366 242.873 117.894 242.934C102.804 244.904 88.6954 276.403 88.6954 276.403H191.695C186.415 261.093 171.154 269.144 171.154 269.144C171.154 269.144 165.246 257.333 157.595 257.333C149.945 257.333 140.204 266.333 140.204 266.333C140.204 266.333 133.43 242.524 119.287 242.827Z" />
  <path fill="var(--color-03)" d="M250 432.32C296.651 432.32 334.47 425.519 334.47 417.13C334.47 408.741 296.651 401.94 250 401.94C203.349 401.94 165.53 408.741 165.53 417.13C165.53 425.519 203.349 432.32 250 432.32Z" />
  <path fill="var(--color-03)" d="M162.55 417.13C163.16 411.05 176.83 408.13 181.85 406.75C219.11 398.75 257.85 399.09 295.62 402.98C351.53 409.34 351.69 424.89 295.62 431.55C257.83 435.4 219.09 435.45 181.82 427.55C176.66 426.13 163.16 423.23 162.52 417.17L162.55 417.13ZM162.65 417.13C163.25 423.04 176.97 425.99 181.91 427.24C196.79 430.46 212.01 431.74 227.19 432.45C249.987 433.566 272.836 432.954 295.54 430.62C350.73 424.43 350.92 409.84 295.54 403.35C265.236 400.333 234.705 400.377 204.41 403.48C196.85 404.234 189.339 405.409 181.91 407C176.83 408.28 163.28 411.2 162.65 417.12V417.13Z" />
  <path fill="var(--color-03)" d="M340 417.13C339.41 423.78 325.94 427.04 320.51 428.67C282.07 437.77 241.77 437.37 202.7 432.96C145.54 425.8 145.38 408.47 202.7 401.01C234.114 397.183 265.879 397.237 297.28 401.17C305.121 402.154 312.893 403.627 320.55 405.58C326.11 407.24 339.41 410.46 340.04 417.13H340ZM339.9 417.13C339.28 410.6 325.83 407.34 320.44 405.84C305.1 402.15 289.32 400.68 273.6 399.84C249.977 398.552 226.287 399.247 202.78 401.92C146.32 408.92 146.14 425.3 202.78 432.56C234.156 436.035 265.823 435.994 297.19 432.44C305.024 431.583 312.799 430.247 320.47 428.44C325.97 426.92 339.3 423.66 339.93 417.16L339.9 417.13Z" />
  <path fill="var(--color-03)" d="M275.68 400.27C275.19 380.45 275.18 358.63 275.68 338.8C276.18 358.63 276.17 380.45 275.68 400.27Z" />
  <path fill="var(--color-03)" d="M340 417.13C339.51 397.3 339.5 375.48 340 355.66C340.49 375.48 340.49 397.3 340 417.13Z" />
  <path fill="var(--color-03)" d="M160 417.13C159.51 384.54 159.51 347.97 160 315.38C160.49 347.97 160.49 384.54 160 417.13Z" />
  <path fill="var(--color-03)" d="M331.77 410.54C331.28 386.04 331.27 358.54 331.77 334.03C332.26 358.54 332.25 386.03 331.77 410.54Z" />
  <path fill="var(--color-03)" d="M205.73 396C205.23 381.15 205.24 365.55 205.73 350.68C206.23 365.55 206.24 381.15 205.73 396Z" />
  <path fill="var(--color-03)" d="M300 403.14C299.51 384.95 299.51 364.94 300 346.75C300.5 364.94 300.49 384.95 300 403.14Z" />
  <path fill="var(--color-03)" d="M177.36 408.53C176.87 384.02 176.86 356.53 177.36 332.02C177.85 356.52 177.84 384.02 177.36 408.53Z" />
  <path fill="var(--color-03)" d="M340 326.72C340.51 334.321 340.51 341.949 340 349.55C339.485 341.949 339.485 334.321 340 326.72Z" />
  <path fill="var(--color-03)" d="M190.46 373.18C190.97 380.781 190.97 388.408 190.46 396.01C189.945 388.409 189.945 380.781 190.46 373.18Z" />
  <path fill="var(--color-03)" d="M320.13 360.48C320.64 368.085 320.64 375.715 320.13 383.32C319.615 375.715 319.615 368.085 320.13 360.48Z" />
  <path fill="var(--color-03)" d="M220.9 376C221.415 383.601 221.415 391.229 220.9 398.83C220.39 391.229 220.39 383.601 220.9 376Z" />
  <path fill="var(--color-03)" d="M290.75 374.32C291.265 381.924 291.265 389.555 290.75 397.16C290.24 389.555 290.24 381.925 290.75 374.32Z" />
  <path fill="var(--color-02)" d="M261.73 419.35C258.084 419.376 254.44 419.55 250.808 419.873C248.088 420.143 245.367 420.464 242.677 421.004C240.377 421.544 237.867 421.935 235.947 423.405C235.808 423.51 235.693 423.643 235.61 423.797C235.528 423.95 235.479 424.12 235.468 424.293C235.488 424.124 235.545 423.961 235.635 423.816C235.725 423.671 235.845 423.547 235.988 423.454C237.968 422.134 240.457 421.855 242.747 421.385C245.427 420.945 248.137 420.625 250.857 420.385C256.287 419.865 261.737 419.644 267.197 419.444V419.424C265.375 419.362 263.553 419.338 261.73 419.35ZM277.117 419.684C282.637 420.304 290.639 420.775 295.879 422.485C305.499 425.665 287.078 428.074 284.678 428.374C287.856 428.174 291.014 427.743 294.129 427.084C295.736 426.815 297.267 426.204 298.617 425.293C300.387 423.673 297.308 422.404 296.028 422.014C289.888 420.164 283.467 420.034 277.117 419.684ZM262.812 421.424C260.373 421.414 257.932 421.452 255.507 421.664C251.907 422.134 248.047 422.035 244.767 423.725C244.657 423.785 244.562 423.869 244.489 423.971C244.416 424.073 244.368 424.191 244.347 424.315C244.376 424.197 244.433 424.088 244.514 423.997C244.594 423.906 244.695 423.837 244.808 423.793C247.618 422.523 252.489 422.524 255.548 422.164C259.418 421.764 263.317 421.835 267.196 421.465C265.738 421.454 264.276 421.43 262.812 421.424ZM274.337 421.604C278.727 422.104 283.397 422.255 287.677 423.315C294.787 424.985 281.306 426.454 279.786 426.684C281.066 426.674 293.446 425.985 289.447 423.395C284.637 421.605 279.337 421.824 274.337 421.604ZM250.769 426.129C250.461 426.134 250.154 426.146 249.847 426.164C251.933 426.717 254.094 426.934 256.248 426.805C254.461 426.328 252.618 426.1 250.769 426.129ZM273.568 426.75C271.437 426.732 269.308 426.867 267.197 427.155C270.384 427.408 273.589 427.321 276.758 426.895C275.696 426.808 274.633 426.76 273.568 426.75ZM243.097 427.475C245.982 428.318 248.984 428.692 251.988 428.584C249.053 428.01 246.083 427.639 243.097 427.475ZM278.804 428.731C274.927 428.74 271.073 428.877 267.197 429.174C271.623 429.523 276.075 429.376 280.468 428.735C279.913 428.731 279.358 428.73 278.804 428.731Z" />
  <path fill="var(--color-01)" d="M314.78 251C314.78 251 325.98 270.49 333.53 281.28C341.08 292.07 349.37 315.59 350.97 317.87C352.57 320.15 355.37 433.35 355.37 433.35C355.37 433.35 337.03 435.63 333.19 435.84C329.35 436.05 311.06 440.78 311.06 440.78L348.06 437.78L333.3 440.78C333.3 440.78 357.92 439.71 359.1 439.61C360.28 439.51 368.97 440.05 369.39 439.74C369.81 439.43 371.11 437.53 370.73 436.74C370.35 435.95 363.41 433.04 363.41 433.04C363.41 433.04 365.71 322.43 365.56 320.49C365.41 318.55 367.56 315.65 366.32 313.72C365.08 311.79 360.99 309.98 360.38 308.6C359.77 307.22 353.98 270.29 353.38 253.7C353.15 246.37 318.51 240.72 314.78 251Z" />
  <path fill="var(--color-02)" opacity="0.7" d="M314.78 251C314.78 251 325.98 270.49 333.53 281.28C341.08 292.07 349.37 315.59 350.97 317.87C352.57 320.15 355.37 433.35 355.37 433.35C355.37 433.35 337.03 435.63 333.19 435.84C329.35 436.05 311.06 440.78 311.06 440.78L348.06 437.78L333.3 440.78C333.3 440.78 357.92 439.71 359.1 439.61C360.28 439.51 368.97 440.05 369.39 439.74C369.81 439.43 371.11 437.53 370.73 436.74C370.35 435.95 363.41 433.04 363.41 433.04C363.41 433.04 365.71 322.43 365.56 320.49C365.41 318.55 367.56 315.65 366.32 313.72C365.08 311.79 360.99 309.98 360.38 308.6C359.77 307.22 353.98 270.29 353.38 253.7C353.15 246.37 318.51 240.72 314.78 251Z" />
  <path fill="var(--color-01)" d="M355.81 278.57L319.32 258.75C316.62 254.23 314.78 251.02 314.78 251.02C318.51 240.71 353.14 246.37 353.42 253.71C353.65 260.07 354.64 269.4 355.81 278.57Z" />
  <path fill="var(--color-01)" d="M360.51 339.83C360.51 339.83 362.36 340.04 365.3 340.3V339.83H360.51ZM346.1 306.65C346.26 307.02 346.42 307.39 346.57 307.76C349.492 307.622 352.398 307.251 355.26 306.65H346.1ZM354.64 268.71V268.55H349.44C349.44 268.55 350.25 268.65 351.66 268.78L354.66 269.06C354.67 268.94 354.65 268.83 354.64 268.71ZM336.8 286.63C336.89 286.81 336.99 286.99 337.09 287.17C338.09 287.02 339.09 286.84 340.03 286.63H336.8ZM356.8 286.09H354.14C354.14 286.09 355.14 286.21 356.83 286.37L356.8 286.09ZM357.94 294.09H347.64C347.64 294.09 352.04 294.6 358.09 294.99C358 294.66 358 294.36 358 294.06L357.94 294.09ZM333.34 281.09L333.51 281.33L333.84 281.81L334.17 282.3C337.866 282.231 341.548 281.826 345.17 281.09H333.34ZM357.2 352.8C357.2 352.8 360.3 353.08 365.04 353.38V352.8H357.2ZM358.61 389.14C360.494 389.576 362.4 389.91 364.32 390.14V389.14H358.61ZM337.88 276.54C337.88 276.54 344.33 279.44 347.59 276.54H337.88ZM355.28 356.63C355.28 356.63 361.72 359.53 364.98 356.63H355.28ZM351.74 325.35C351.74 325.77 351.8 326.2 351.82 326.64C354.294 326.721 356.757 326.281 359.05 325.35H351.74ZM352.04 330.71V330.97L353.93 330.67L352.04 330.71ZM355.04 420.58V421.07C356.23 420.93 357.36 420.76 358.43 420.58H355.04ZM358.89 376.7C358.89 376.7 361.07 376.89 364.59 377.13V376.7H358.89ZM354.77 410.33V410.97C356.45 410.79 358.04 410.58 359.49 410.33H354.77ZM354.56 403.05V404.05C357.553 403.885 360.535 403.551 363.49 403.05H354.56Z" />
  <path fill="var(--color-01)" d="M337.65 251C337.65 251 354.72 272.23 362.27 283C369.82 293.77 386.57 315.57 388.18 317.85C389.79 320.13 414 433.37 414 433.37C414 433.37 395.66 435.65 391.82 435.86C387.98 436.07 369.68 440.8 369.68 440.8L406.68 437.8L391.93 440.8C391.93 440.8 416.55 439.73 417.73 439.63C418.91 439.53 427.6 440.07 428.02 439.76C428.44 439.45 429.73 437.55 429.35 436.76C428.97 435.97 422.04 433.06 422.04 433.06C422.04 433.06 403 322.45 402.81 320.51C402.62 318.57 404.81 315.67 403.57 313.74C402.33 311.81 398.23 310 397.62 308.62C397.01 307.24 376.9 270.31 376.29 253.72C376 246.37 341.39 240.72 337.65 251Z" />
  <path fill="var(--color-02)" opacity="0.7" d="M337.65 251C337.65 251 354.72 272.23 362.27 283C369.82 293.77 386.57 315.57 388.18 317.85C389.79 320.13 414 433.37 414 433.37C414 433.37 395.66 435.65 391.82 435.86C387.98 436.07 369.68 440.8 369.68 440.8L406.68 437.8L391.93 440.8C391.93 440.8 416.55 439.73 417.73 439.63C418.91 439.53 427.6 440.07 428.02 439.76C428.44 439.45 429.73 437.55 429.35 436.76C428.97 435.97 422.04 433.06 422.04 433.06C422.04 433.06 403 322.45 402.81 320.51C402.62 318.57 404.81 315.67 403.57 313.74C402.33 311.81 398.23 310 397.62 308.62C397.01 307.24 376.9 270.31 376.29 253.72C376 246.37 341.39 240.72 337.65 251Z" />
  <path fill="var(--color-01)" d="M406 339.83H402.71C402.71 339.83 403.96 339.97 406.05 340.16C406.08 340.05 406.06 339.94 406 339.83ZM379.67 306.65C379.923 306.97 380.163 307.303 380.39 307.65C382.627 307.473 384.85 307.139 387.04 306.65H379.67ZM379.24 267.53C379.234 267.507 379.234 267.483 379.24 267.46L379.15 267.2H374C374 267.2 375.49 267.37 377.94 267.6L379.34 267.72C379.312 267.659 379.292 267.596 379.28 267.53H379.24ZM363.53 284.88C363.73 285.17 363.95 285.48 364.18 285.78L364.3 285.95C367.013 285.796 369.711 285.438 372.37 284.88H363.53ZM392.21 298.06H388.01C388.01 298.06 389.7 298.26 392.43 298.49C392.39 298.35 392.32 298.21 392.25 298.06H392.21ZM360.82 281.06C361.12 281.47 361.41 281.87 361.68 282.26C365.272 282.178 368.849 281.777 372.37 281.06H360.82ZM408.31 353.35C408.18 353.15 408.03 352.97 407.88 352.77H399.42C399.42 352.77 402.97 353.09 408.33 353.42C408.33 353.42 408.38 353.37 408.35 353.35H408.31ZM416.67 401.94H411.81C411.81 401.94 413.68 402.1 416.74 402.32C416.76 402.2 416.74 402.07 416.71 401.94H416.67ZM420.51 424.16C420.51 423.98 420.44 423.79 420.41 423.6H413.73C415.994 424.114 418.289 424.482 420.6 424.7L420.51 424.16ZM417.58 407.16H409.79C412.424 407.75 415.098 408.145 417.79 408.34C417.75 408 417.68 407.58 417.62 407.18L417.58 407.16ZM381.39 273.53C381.31 273.33 381.24 273.14 381.17 272.94H368.11C371.713 273.8 375.406 274.223 379.11 274.2L379.99 274.15C380.51 274.15 380.99 274.07 381.53 274L381.39 273.53ZM397.52 356.63C397.52 356.63 403.97 359.53 407.23 356.63H397.52ZM347 262.82L348 264.08C350.055 264.192 352.117 264.057 354.14 263.68C354.642 263.588 355.136 263.461 355.62 263.3C356.04 263.172 356.451 263.015 356.85 262.83L347 262.82ZM390.19 325.35C390.26 325.64 390.33 325.93 390.41 326.23L390.47 326.49C394.12 326.8 398.39 326.73 401.29 325.35H390.19ZM391.46 330.71C391.46 330.91 391.56 331.13 391.61 331.34C393.24 331.17 394.78 330.96 396.2 330.71H391.46ZM412.36 376.71H401.14L401.74 376.76C403.22 376.88 407.23 377.21 412.47 377.49C412.45 377.22 412.4 377 412.36 376.7V376.71ZM402.61 380.71L402.7 381.11C403.6 380.99 404.45 380.86 405.28 380.71H402.61ZM411 419.28C411.06 419.573 411.12 419.853 411.18 420.12C413.64 419.92 415.93 419.65 417.98 419.28H411ZM404.18 387.82C404.25 388.12 404.31 388.42 404.38 388.72C407.13 388.51 409.69 388.22 411.96 387.82H404.18Z" />
  <path fill="var(--color-01)" d="M281.89 311.29C281.89 319.05 281.83 326.383 281.71 333.29C281.25 360.83 279.96 381.87 278.63 397C277.23 412.88 275.77 422.26 275.17 425.8C271.22 426.02 267.17 426.19 262.97 426.3C263.66 422.99 265.7 412.6 267.53 396.44C269.734 376.379 270.832 356.212 270.82 336.03C270.82 331.69 270.773 327.23 270.68 322.65C270.613 319.01 270.503 315.297 270.35 311.51V311.25L281.89 311.29Z" />
  <path fill="var(--color-02)" opacity="0.7" d="M281.89 311.29C281.89 319.05 281.83 326.383 281.71 333.29C281.25 360.83 279.96 381.87 278.63 397C277.23 412.88 275.77 422.26 275.17 425.8C271.22 426.02 267.17 426.19 262.97 426.3C263.66 422.99 265.7 412.6 267.53 396.44C269.734 376.379 270.832 356.212 270.82 336.03C270.82 331.69 270.773 327.23 270.68 322.65C270.613 319.01 270.503 315.297 270.35 311.51V311.25L281.89 311.29Z" />
  <path fill="var(--color-01)" d="M264.36 405.12C266.129 404.14 267.464 402.53 268.1 400.61C268.291 399.957 268.422 399.287 268.49 398.61C268.49 398.51 268.35 398.5 268.33 398.61C268.168 399.236 267.94 399.842 267.65 400.42C267.382 400.995 267.068 401.546 266.71 402.07C266.017 403.114 265.171 404.048 264.2 404.84C264.06 405 264.21 405.21 264.36 405.12Z" />
  <path fill="var(--color-02)" d="M268.36 394.55C269.279 394.122 270.046 393.424 270.56 392.55C270.813 392.125 271.014 391.672 271.16 391.2C271.327 390.746 271.402 390.263 271.38 389.78C271.38 389.7 271.26 389.71 271.23 389.78C271.04 390.19 270.92 390.63 270.72 391.05C270.518 391.463 270.281 391.858 270.01 392.23C269.75 392.59 269.48 392.94 269.19 393.23C268.88 393.585 268.545 393.92 268.19 394.23C268.148 394.253 268.116 394.291 268.103 394.337C268.089 394.383 268.094 394.432 268.116 394.474C268.138 394.517 268.177 394.548 268.222 394.563C268.268 394.577 268.318 394.572 268.36 394.55Z" />
  <path fill="var(--color-01)" d="M277.52 394.61C278.021 395.566 278.807 396.342 279.77 396.83C279.826 396.862 279.891 396.871 279.953 396.856C280.016 396.84 280.07 396.802 280.104 396.748C280.139 396.694 280.151 396.629 280.139 396.566C280.128 396.503 280.092 396.447 280.04 396.41C279.333 395.729 278.665 395.008 278.04 394.25C277.427 393.467 276.969 392.574 276.69 391.62C276.69 391.54 276.52 391.57 276.54 391.62C276.67 392.671 277.002 393.686 277.52 394.61Z" />
  <path fill="var(--color-02)" d="M275 386.46C275.086 386.901 275.203 387.335 275.35 387.76C275.503 388.548 275.959 389.244 276.62 389.7C276.95 389.87 277.16 389.38 276.86 389.19C276.591 388.993 276.38 388.727 276.25 388.42C276.076 388.095 275.919 387.761 275.78 387.42C275.64 387.05 275.49 386.68 275.37 386.3C275.25 385.92 275.14 385.51 275 385.13C275 385.109 274.992 385.088 274.977 385.073C274.962 385.058 274.941 385.05 274.92 385.05C274.899 385.05 274.878 385.058 274.863 385.073C274.848 385.088 274.84 385.109 274.84 385.13C274.844 385.578 274.897 386.024 275 386.46Z" />
  <path fill="var(--color-01)" d="M281.92 385.13C282.19 385.22 282.29 384.81 282.07 384.68C280.003 383.585 278.451 381.721 277.75 379.49C277.75 379.4 277.59 379.43 277.6 379.49C277.705 380.745 278.168 381.943 278.933 382.943C279.699 383.943 280.736 384.702 281.92 385.13Z" />
  <path fill="var(--color-02)" d="M278.85 378.9C279.04 379.1 279.38 378.79 279.21 378.58C278.185 377.416 277.651 375.9 277.72 374.35C277.72 374.329 277.712 374.308 277.697 374.293C277.682 374.278 277.661 374.27 277.64 374.27C277.619 374.27 277.598 374.278 277.583 374.293C277.568 374.308 277.56 374.329 277.56 374.35C277.416 375.157 277.458 375.985 277.682 376.773C277.905 377.562 278.305 378.289 278.85 378.9Z" />
  <path fill="var(--color-01)" d="M267.74 382.74C268.754 382.363 269.646 381.717 270.32 380.87C271.005 380.022 271.515 379.047 271.82 378C271.82 377.9 271.71 377.87 271.67 378C271.285 378.962 270.71 379.836 269.98 380.57C269.637 380.922 269.277 381.255 268.9 381.57C268.49 381.9 268.04 382.16 267.61 382.46C267.46 382.51 267.53 382.8 267.74 382.74Z" />
  <path fill="var(--color-01)" d="M268.64 385.13C269.11 384.752 269.536 384.323 269.91 383.85C270.272 383.37 270.606 382.869 270.91 382.35C270.914 382.334 270.913 382.316 270.907 382.3C270.9 382.285 270.889 382.271 270.874 382.262C270.86 382.253 270.843 382.249 270.826 382.251C270.809 382.252 270.793 382.259 270.78 382.27C270.081 383.227 269.283 384.109 268.4 384.9C268.37 384.932 268.353 384.974 268.354 385.018C268.355 385.062 268.374 385.104 268.406 385.134C268.437 385.165 268.48 385.181 268.524 385.181C268.568 385.18 268.609 385.162 268.64 385.13Z" />
  <path fill="var(--color-01)" d="M267.06 371.11C268.152 370.422 269.064 369.482 269.72 368.37C270.371 367.132 270.868 365.819 271.2 364.46C271.2 364.37 271.08 364.33 271.05 364.46C270.596 365.712 270.016 366.915 269.32 368.05C268.636 369.104 267.812 370.059 266.87 370.89C266.861 370.918 266.859 370.948 266.865 370.976C266.871 371.005 266.884 371.031 266.903 371.054C266.922 371.076 266.947 371.093 266.974 371.102C267.002 371.112 267.031 371.115 267.06 371.11Z" />
  <path fill="var(--color-01)" d="M267.68 374.19C268.438 373.611 269.074 372.887 269.55 372.06C270.013 371.227 270.349 370.331 270.55 369.4C270.55 369.3 270.43 369.28 270.4 369.4C270.086 370.268 269.656 371.089 269.12 371.84C268.616 372.583 268.051 373.282 267.43 373.93C267.26 374.06 267.5 374.33 267.68 374.19Z" />
  <path fill="var(--color-02)" d="M275.7 372.49C275.8 372.62 276.05 372.49 275.97 372.35C274.949 370.596 274.447 368.588 274.52 366.56C274.52 366.46 274.38 366.43 274.37 366.56C274.16 368.58 274.31 370.85 275.7 372.49Z" />
  <path fill="var(--color-01)" d="M281 364.59C281.041 364.615 281.089 364.626 281.137 364.622C281.185 364.617 281.231 364.596 281.266 364.563C281.301 364.53 281.324 364.487 281.332 364.439C281.34 364.392 281.333 364.343 281.31 364.3C280.418 363.059 279.6 361.767 278.86 360.43C278.143 359.062 277.586 357.616 277.2 356.12C277.2 356.03 277.05 356.07 277.05 356.12C277.206 359.352 278.625 362.393 281 364.59Z" />
  <path fill="var(--color-02)" d="M278.48 366.07C278.64 366.19 278.91 365.99 278.75 365.82C278.325 365.377 277.955 364.883 277.65 364.35C277.35 363.792 277.179 363.173 277.15 362.54C277.15 362.44 276.99 362.46 276.99 362.54C276.95 363.203 277.064 363.867 277.322 364.479C277.581 365.091 277.977 365.636 278.48 366.07Z" />
  <path fill="var(--color-01)" d="M271.67 358.51C273.734 356.225 274.813 353.216 274.67 350.14C274.67 350.06 274.53 350.05 274.52 350.14C274.044 353.056 273.026 355.858 271.52 358.4C271.45 358.5 271.59 358.59 271.67 358.51Z" />
  <path fill="var(--color-02)" d="M274 360C274.163 359.701 274.294 359.386 274.39 359.06C274.479 358.752 274.543 358.438 274.58 358.12C274.58 357.81 274.64 357.5 274.64 357.19V356.71C274.625 356.514 274.625 356.316 274.64 356.12C274.64 356 274.46 356.01 274.49 356.12C274.51 356.293 274.51 356.467 274.49 356.64L274.43 357.12C274.38 357.43 274.33 357.75 274.26 358.06C274.19 358.37 274.11 358.68 274.03 358.99C273.95 359.3 273.88 359.61 273.79 359.91C273.7 360.21 274 360.14 274 360Z" />
  <path fill="var(--color-01)" d="M281.88 348.71C282.07 348.8 282.26 348.53 282.09 348.4C280.338 346.795 279.099 344.707 278.53 342.4C278.53 342.32 278.37 342.35 278.38 342.4C278.81 344.86 279.47 347.59 281.88 348.71Z" />
  <path fill="var(--color-01)" d="M283.6 341.31C283.639 341.304 283.674 341.286 283.702 341.26C283.731 341.233 283.75 341.198 283.757 341.16C283.765 341.121 283.761 341.082 283.745 341.046C283.729 341.01 283.703 340.98 283.67 340.96C282.605 340.617 281.594 340.122 280.67 339.49C279.729 338.814 278.981 337.904 278.5 336.85C278.5 336.76 278.32 336.85 278.36 336.85C279.08 339.12 281.14 341.24 283.6 341.31Z" />
  <path fill="var(--color-01)" d="M266 346.41C267.674 345.323 269.095 343.889 270.166 342.205C271.237 340.521 271.934 338.627 272.21 336.65C272.214 336.638 272.216 336.625 272.214 336.612C272.213 336.599 272.208 336.587 272.201 336.577C272.193 336.566 272.183 336.557 272.172 336.551C272.161 336.545 272.148 336.542 272.135 336.542C272.122 336.542 272.109 336.545 272.098 336.551C272.087 336.557 272.077 336.566 272.069 336.577C272.062 336.587 272.057 336.599 272.056 336.612C272.054 336.625 272.056 336.638 272.06 336.65C271.061 340.416 268.873 343.759 265.82 346.18C265.806 346.207 265.799 346.238 265.802 346.269C265.805 346.3 265.816 346.329 265.835 346.353C265.855 346.378 265.88 346.396 265.909 346.406C265.939 346.416 265.97 346.417 266 346.41Z" />
  <path fill="var(--color-02)" d="M268.46 349.32C269.595 348.823 270.563 348.011 271.25 346.98C271.984 345.99 272.499 344.855 272.76 343.65C272.754 343.632 272.742 343.617 272.727 343.606C272.712 343.595 272.694 343.59 272.675 343.59C272.656 343.59 272.638 343.595 272.623 343.606C272.608 343.617 272.596 343.632 272.59 343.65C272.183 344.772 271.599 345.822 270.86 346.76C270.504 347.213 270.109 347.635 269.68 348.02C269.24 348.43 268.77 348.8 268.34 349.2C268.26 349.23 268.36 349.35 268.46 349.32Z" />
  <path fill="var(--color-01)" d="M269.42 353.84C270.305 352.91 270.851 351.708 270.97 350.43C270.97 350.33 270.84 350.31 270.82 350.43C270.666 351.021 270.452 351.594 270.18 352.14C269.884 352.68 269.55 353.198 269.18 353.69C269.16 353.722 269.154 353.76 269.162 353.797C269.171 353.833 269.193 353.865 269.225 353.885C269.257 353.905 269.295 353.911 269.332 353.903C269.368 353.894 269.4 353.872 269.42 353.84Z" />
  <path fill="var(--color-01)" d="M276 341.37C276.08 341.51 276.32 341.37 276.26 341.23C275.961 340.492 275.717 339.734 275.53 338.96C275.349 338.17 275.281 337.359 275.33 336.55C275.33 336.46 275.18 336.45 275.17 336.55C274.91 338.204 275.201 339.898 276 341.37Z" />
  <path fill="var(--color-01)" d="M282.5 331.15C282.74 331.22 282.83 330.88 282.63 330.76C281.703 330.266 280.873 329.609 280.18 328.82C279.489 327.991 279.052 326.981 278.92 325.91C278.92 325.889 278.912 325.869 278.897 325.854C278.882 325.839 278.861 325.83 278.84 325.83C278.819 325.83 278.798 325.839 278.783 325.854C278.768 325.869 278.76 325.889 278.76 325.91C278.86 328.11 280.28 330.58 282.5 331.15Z" />
  <path fill="var(--color-01)" d="M268.38 329.79C270.295 328.28 271.789 326.304 272.72 324.05C272.727 324.041 272.733 324.03 272.735 324.018C272.738 324.007 272.738 323.995 272.736 323.983C272.733 323.971 272.728 323.96 272.721 323.951C272.713 323.942 272.704 323.934 272.693 323.929C272.683 323.923 272.671 323.92 272.659 323.92C272.647 323.92 272.635 323.922 272.624 323.927C272.614 323.932 272.604 323.94 272.596 323.949C272.589 323.958 272.583 323.968 272.58 323.98C271.416 326.063 269.931 327.95 268.18 329.57C268.05 329.69 268.24 329.89 268.38 329.79Z" />
  <path fill="var(--color-01)" d="M269.53 331.76C270.54 330.632 271.346 329.336 271.91 327.93C271.912 327.913 271.908 327.896 271.899 327.882C271.89 327.867 271.877 327.856 271.862 327.849C271.846 327.842 271.829 327.841 271.813 327.845C271.796 327.848 271.781 327.857 271.77 327.87C271.03 329.16 270.13 330.34 269.31 331.57C269.295 331.6 269.291 331.634 269.297 331.666C269.304 331.699 269.321 331.729 269.346 331.75C269.371 331.772 269.403 331.785 269.436 331.787C269.47 331.788 269.503 331.779 269.53 331.76Z" />
  <path fill="var(--color-01)" d="M284.29 322.4C284.44 322.4 284.56 322.18 284.38 322.12C283.399 321.863 282.481 321.406 281.684 320.778C280.887 320.15 280.229 319.364 279.75 318.47C279.75 318.38 279.56 318.42 279.6 318.47C280.36 320.45 282.1 322.28 284.29 322.4Z" />
  <path fill="var(--color-01)" d="M281.2 318.38C281.46 318.72 281.748 319.038 282.06 319.33C282.38 319.623 282.732 319.878 283.11 320.09C283.26 320.18 283.38 319.93 283.23 319.84C282.883 319.627 282.549 319.393 282.23 319.14C281.899 318.891 281.597 318.606 281.33 318.29C281.26 318.22 281.13 318.3 281.2 318.38Z" />
  <path fill="var(--color-01)" d="M269 323C270.232 322.241 271.149 321.062 271.58 319.68C271.587 319.661 271.586 319.641 271.577 319.623C271.569 319.605 271.554 319.592 271.535 319.585C271.516 319.578 271.496 319.579 271.478 319.588C271.46 319.596 271.447 319.611 271.44 319.63C270.957 320.946 270.058 322.069 268.88 322.83C268.75 322.92 268.86 323.09 269 323Z" />
  <path fill="var(--color-01)" d="M278.58 409.76C278.604 409.781 278.631 409.797 278.661 409.808C278.691 409.818 278.723 409.822 278.754 409.82C278.786 409.819 278.817 409.811 278.845 409.797C278.874 409.783 278.899 409.764 278.92 409.74C278.941 409.716 278.957 409.689 278.968 409.659C278.978 409.629 278.982 409.597 278.98 409.566C278.979 409.534 278.97 409.503 278.957 409.475C278.943 409.447 278.924 409.421 278.9 409.4C277.875 408.335 276.97 407.162 276.2 405.9C275.457 404.602 274.946 403.184 274.69 401.71C274.69 401.62 274.53 401.63 274.54 401.71C274.66 404.73 276 408 278.58 409.76Z" />
  <path fill="var(--color-02)" d="M274.42 411.91C274.448 411.943 274.488 411.963 274.531 411.967C274.574 411.971 274.616 411.957 274.65 411.929C274.683 411.902 274.703 411.862 274.707 411.819C274.711 411.776 274.698 411.733 274.67 411.7C273.66 410.473 273.08 408.948 273.02 407.36C273.02 407.339 273.012 407.318 272.997 407.303C272.982 407.288 272.961 407.28 272.94 407.28C272.919 407.28 272.898 407.288 272.883 407.303C272.868 407.318 272.86 407.339 272.86 407.36C272.775 408.186 272.871 409.021 273.14 409.806C273.41 410.592 273.846 411.31 274.42 411.91Z" />
  <path fill="var(--color-01)" d="M267.15 414C269.228 411.594 270.522 408.611 270.86 405.45C270.86 405.36 270.73 405.33 270.71 405.45C269.782 408.382 268.506 411.192 266.91 413.82C266.82 413.92 267 414.14 267.15 414Z" />
  <path fill="var(--color-02)" d="M267.81 418.18C268.307 417.54 268.704 416.828 268.99 416.07C269.253 415.314 269.418 414.528 269.48 413.73C269.485 413.718 269.486 413.705 269.484 413.692C269.483 413.679 269.478 413.667 269.471 413.656C269.463 413.646 269.453 413.637 269.442 413.631C269.431 413.625 269.418 413.622 269.405 413.622C269.392 413.622 269.379 413.625 269.368 413.631C269.357 413.637 269.347 413.646 269.339 413.656C269.332 413.667 269.327 413.679 269.326 413.692C269.324 413.705 269.326 413.718 269.33 413.73C269.173 414.492 268.938 415.236 268.63 415.95C268.33 416.664 267.972 417.353 267.56 418.01C267.549 418.026 267.541 418.045 267.537 418.064C267.533 418.084 267.533 418.104 267.537 418.123C267.54 418.143 267.548 418.161 267.559 418.178C267.57 418.194 267.584 418.209 267.6 418.22C267.616 418.231 267.635 418.239 267.654 418.243C267.674 418.247 267.694 418.247 267.713 418.243C267.733 418.24 267.751 418.232 267.768 418.221C267.785 418.21 267.799 418.196 267.81 418.18Z" />
  <path fill="var(--color-01)" d="M262.45 415C263.509 414.416 264.437 413.62 265.175 412.661C265.913 411.703 266.446 410.603 266.74 409.43C266.74 409.411 266.733 409.393 266.719 409.38C266.706 409.367 266.689 409.36 266.67 409.36C266.651 409.36 266.634 409.367 266.621 409.38C266.607 409.393 266.6 409.411 266.6 409.43C266.159 410.517 265.552 411.529 264.8 412.43C264.038 413.297 263.191 414.084 262.27 414.78C262.262 414.807 262.26 414.835 262.265 414.863C262.271 414.891 262.283 414.917 262.301 414.938C262.318 414.96 262.341 414.977 262.368 414.988C262.394 414.999 262.422 415.003 262.45 415Z" />
  <path fill="var(--color-02)" d="M263.15 426.81C264.118 426.142 264.902 425.241 265.43 424.19C265.997 423.164 266.383 422.047 266.57 420.89C266.57 420.8 266.45 420.77 266.42 420.89C266.079 421.972 265.601 423.007 265 423.97C264.41 424.97 263.64 425.75 263 426.65C262.995 426.671 262.995 426.693 263 426.714C263.005 426.736 263.016 426.755 263.031 426.771C263.046 426.787 263.065 426.799 263.086 426.806C263.106 426.813 263.129 426.814 263.15 426.81Z" />
  <path fill="var(--color-01)" d="M276 424.63C276.14 424.71 276.35 424.53 276.21 424.39C275.081 423.328 274.102 422.117 273.3 420.79C272.509 419.438 272.009 417.936 271.83 416.38C271.824 416.365 271.814 416.352 271.801 416.342C271.787 416.333 271.771 416.328 271.755 416.328C271.739 416.328 271.723 416.333 271.709 416.342C271.696 416.352 271.686 416.365 271.68 416.38C271.79 419.53 273.22 423 276 424.63Z" />
  <path fill="var(--color-01)" d="M275 419.4C275.195 419.704 275.42 419.989 275.67 420.25C275.933 420.515 276.232 420.741 276.56 420.92C276.76 421.04 276.97 420.75 276.77 420.62C275.589 419.873 274.737 418.704 274.39 417.35C274.39 417.329 274.382 417.308 274.367 417.293C274.352 417.278 274.331 417.27 274.31 417.27C274.289 417.27 274.268 417.278 274.253 417.293C274.238 417.308 274.23 417.329 274.23 417.35C274.344 418.079 274.606 418.776 275 419.4Z" />
  <path fill="var(--color-04)" d="M398.65 259.89C420 263 439.94 244.8 445.24 233.71C450.54 222.62 454.18 207.39 452.69 203.58C451.2 199.77 441.1 219.81 441.1 219.81C441.1 219.81 451.03 185.38 447.56 180.25C444.09 175.12 427.2 213 427.2 213C427.2 213 434.71 186.14 431.11 185.59C425.28 184.7 413.92 218.66 413.92 218.66C413.92 218.66 417.26 204.56 413.79 205.39C408.24 206.73 390.8 258.75 398.65 259.89Z" />
  <path fill="var(--color-03)" d="M398.65 259.89C412.36 261.8 425.82 255.14 435.65 245.95C438.99 242.879 441.87 239.343 444.2 235.45C446.29 231.427 448.014 227.223 449.35 222.89C450.774 218.59 451.834 214.178 452.52 209.7C452.87 207.783 452.87 205.818 452.52 203.9C452.01 201.75 448.52 207.44 448.05 208.1C445.64 211.93 443.5 215.94 441.45 219.97L440.77 219.71C442.26 214.02 450.91 183.07 446.77 180.24C445.77 180.46 444.94 181.54 444.22 182.35C441.14 186.27 438.82 190.76 436.45 195.15C433.34 201.07 430.45 207.15 427.67 213.21L426.8 212.9C428.27 207.57 429.61 202.2 430.66 196.79C431.227 194.105 431.585 191.38 431.73 188.64C431.73 187.78 431.79 186.64 431.22 186.04C428.35 185.63 424.76 193.4 423.51 195.71C419.95 203.188 416.831 210.867 414.17 218.71L413.77 218.59C417.55 202.13 413.68 201 407.16 216.47C404.58 221.9 391.81 257.79 398.7 259.85L398.65 259.89ZM398.65 259.89C391.73 257.89 404.44 221.81 406.96 216.45C413.5 200.31 417.89 202.04 414.12 218.73L413.72 218.62C416.317 210.719 419.372 202.976 422.87 195.43C424.043 192.896 425.432 190.467 427.02 188.17C427.8 186.921 428.926 185.924 430.26 185.3C434.35 184.06 431.68 194.96 431.46 196.95C430.46 202.41 429.09 207.79 427.64 213.14L426.78 212.83C429.53 206.7 432.42 200.64 435.53 194.68C438.42 189.57 440.9 183.93 445.29 179.88C452.06 175.68 446.92 197.78 446.42 200.38C445 206.95 443.3 213.45 441.42 219.91L440.75 219.64C441.75 218.02 451.29 198.57 452.99 203.74C453.361 205.723 453.361 207.757 452.99 209.74C451.507 218.74 448.607 227.447 444.4 235.54C435.06 250.35 416.65 262.33 398.67 259.86L398.65 259.89Z" />
  <path fill="var(--color-05)" d="M445.24 233.71C443.557 236.991 441.423 240.02 438.9 242.71C444.83 235.81 450.23 216.31 447.76 215.46C445.29 214.61 436.8 229 436.8 229C436.8 229 439.6 211.21 435.95 210.3C432.3 209.39 424.34 223.49 424.34 223.49C424.34 223.49 424.74 209.32 422.34 209.57C419.94 209.82 412.76 226.79 412.76 226.79C412.76 226.79 412.95 216.68 410.76 216.79C408.57 216.9 403.66 226.63 401.76 230.79C405.76 218.17 411.09 206.11 413.76 205.49C417.14 204.68 414.06 218.02 413.9 218.73C414.28 217.61 425.35 184.81 431.08 185.73C434.59 186.26 427.53 211.8 427.18 213.09C427.86 211.6 444.12 175.33 447.53 180.37C450.94 185.41 441.33 219.01 441.07 219.91C441.36 219.36 451.19 199.91 452.65 203.71C454.11 207.51 450.54 222.62 445.24 233.71Z" />
  <path fill="var(--color-05)" d="M270.36 307.76C264.55 312.81 260.36 324.44 261.97 326.64C263.58 328.84 267.76 318.19 267.76 318.19C267.76 318.19 263.16 341.4 267.45 341.24C270.24 341.14 272.82 328.84 272.82 328.84C272.82 328.84 273.77 347.9 278.61 346.84C282.34 346.01 279.61 328.74 279.61 328.74C279.61 328.74 283.23 338.57 286.02 337.43C288.81 336.29 283.23 321.71 283.23 321.71C283.23 321.71 286.02 327.3 287.57 326C289.12 324.7 285.64 311.19 281.85 307.77C278.06 304.35 270.36 307.76 270.36 307.76Z" />
  <path fill="var(--color-04)" d="M270.4 314.27C270.55 318.27 270.24 324.64 271.53 324.48C272.82 324.32 273.64 314.27 273.64 314.27C273.64 314.27 274.44 327.88 275.74 327.88C277.04 327.88 278.5 315.73 278.5 315.73C278.5 315.73 279.02 324.31 280.5 323.99C281.98 323.67 282.92 288.05 282.44 276.99C281.84 262.9 291.96 259.5 307.35 260.31C322.74 261.12 373.44 263.87 387.35 263.71C401.26 263.55 414.35 260.15 414.73 258.04C415.11 255.93 394.16 201.18 375.2 185.63C356.24 170.08 327.58 156 291.62 158.44C255.66 160.88 248.24 170.44 251.93 198.77C253.93 214.16 265.58 245.52 269.18 274.18C271.42 292 270.05 305.07 270.4 314.27Z" />
  <path fill="var(--color-04)" d="M315.1 184.27C306.29 193.95 306.21 206.04 327.74 234.27C349.27 262.5 378.12 280.76 381.68 280.43C385.24 280.1 374.68 269.26 374.68 269.26C374.68 269.26 396.55 290.15 399.62 288.7C402.69 287.25 389.62 266.02 389.62 266.02C389.62 266.02 398.41 276.02 400.25 274.44C402.09 272.86 391.25 253.38 391.25 253.38C391.25 253.38 396.25 261.32 398.38 260.38C401.5 258.92 395.5 222.81 382.45 201.38C369.4 179.95 322.56 176.09 315.1 184.27Z" />
  <path fill="var(--color-03)" d="M315.1 184.27C308.23 191.41 308.49 200.46 312.24 209.09C315.69 217.29 320.8 224.67 326.07 231.8C336.759 246.036 349.411 258.685 363.65 269.37C368.325 272.996 373.299 276.218 378.52 279C380.2 279.76 383.46 281.45 381.44 278C379.397 274.937 377.052 272.086 374.44 269.49L375 269C380.22 273.89 385.53 278.71 391.11 283.18C393.353 285.091 395.805 286.741 398.42 288.1C398.91 288.32 399.54 288.4 399.58 288.23C399.724 287.785 399.724 287.305 399.58 286.86C398.78 284.027 397.656 281.295 396.23 278.72C394.05 274.5 391.66 270.36 389.23 266.28L390 265.71C392.453 268.652 395.242 271.296 398.31 273.59C398.77 273.87 399.54 274.32 399.96 274.13C400.24 273 399.44 271.37 399.08 270.21C396.688 264.512 393.963 258.959 390.92 253.58L391.58 253.19C392.27 254.29 397.81 262.51 398.58 259.33C398.895 257.094 398.895 254.826 398.58 252.59C397.897 246.518 396.781 240.503 395.24 234.59C392.17 222.8 388.16 211.06 381.75 200.65C378.37 195.56 373.34 191.77 367.97 188.93C357.11 183.31 344.8 180.67 332.61 180.36C329.553 180.29 326.495 180.48 323.47 180.93C320.47 181.46 317.29 182.11 315.08 184.29L315.1 184.27ZM315.1 184.27C317.3 182.08 320.53 181.41 323.48 180.86C326.511 180.398 329.575 180.191 332.64 180.24C349.51 180.65 371.87 185.86 382.09 200.42C388.6 210.86 392.66 222.6 395.81 234.42C396.5 237.1 404.28 268.33 395.18 259.06C393.589 257.37 392.162 255.531 390.92 253.57L391.57 253.17C394.661 258.568 397.43 264.144 399.86 269.87C400.449 271.169 400.788 272.566 400.86 273.99C399.74 278.34 390.57 267.71 389.23 266.31L390 265.74C392.16 269.48 402.28 285.51 400.22 288.74C397.71 292.07 377.4 272.09 374.43 269.46L375 269C377.622 271.652 379.967 274.564 382 277.69C385.87 285.39 372.33 276.2 370.54 275.02C348.358 259.929 329.744 240.171 316 217.13C310.06 206.75 305.48 194.07 315.07 184.27H315.1Z" />
  <path fill="var(--color-05)" d="M389.62 266C389.98 266.58 402.7 287.23 399.62 288.66C396.54 290.09 376.24 270.71 374.77 269.32C375.77 270.32 385.02 280.09 381.64 280.4C378.85 280.66 360.52 269.48 342.37 251.06C350.37 258.55 365.65 268.18 368.13 268.06C370.61 267.94 368.23 260.78 368.13 260.48C368.54 260.81 382.23 271.78 385.42 270.92C388.61 270.06 383 255.76 383 255.76C383 255.76 390.09 262.76 391.7 262.35C393.31 261.94 386.91 246.13 386.7 245.69C386.86 245.86 392.54 251.94 394.41 251.4C397.41 250.53 396.04 237.09 396.04 237.09L396.26 237.56C399.15 249.8 399.94 259.56 398.34 260.32C396.39 261.24 391.8 254.32 391.27 253.44C392.02 254.81 402 272.86 400.27 274.44C398.54 276.02 390 266.37 389.62 266Z" />
  <path fill="var(--color-01)" d="M250 61.24C296.651 61.24 334.47 54.4392 334.47 46.05C334.47 37.6608 296.651 30.86 250 30.86C203.349 30.86 165.53 37.6608 165.53 46.05C165.53 54.4392 203.349 61.24 250 61.24Z" />
  <path fill="var(--color-01)" d="M162.55 46.05C163.16 39.97 176.83 37.05 181.85 35.68C219.11 27.68 257.85 28.01 295.62 31.9C351.53 38.27 351.69 53.81 295.62 60.48C257.83 64.32 219.09 64.37 181.82 56.48C176.66 55.06 163.16 52.17 162.52 46.1L162.55 46.05ZM162.65 46.05C163.25 51.97 176.97 54.91 181.91 56.16C196.79 59.38 212.01 60.66 227.19 61.38C249.987 62.4926 272.836 61.8775 295.54 59.54C350.73 53.35 350.92 38.77 295.54 32.28C265.236 29.2649 234.706 29.3051 204.41 32.4C196.841 33.1607 189.319 34.3392 181.88 35.93C176.8 37.21 163.25 40.13 162.62 46.05H162.65Z" />
  <path fill="var(--color-01)" d="M340 46.05C339.45 52.7 326 56 320.55 57.59C282.11 66.69 241.81 66.29 202.74 61.89C145.58 54.72 145.42 37.39 202.74 29.94C234.154 26.1148 265.919 26.1652 297.32 30.09C305.16 31.0788 312.932 32.5516 320.59 34.5C326.15 36.16 339.45 39.39 340.08 46.05H340ZM339.9 46.05C339.28 39.52 325.83 36.27 320.44 34.77C305.1 31.08 289.32 29.61 273.6 28.77C249.976 27.485 226.287 28.1841 202.78 30.86C146.32 37.86 146.14 54.23 202.78 61.5C234.157 64.9651 265.822 64.9249 297.19 61.38C305.024 60.5233 312.799 59.1874 320.47 57.38C325.97 55.86 339.3 52.6 339.93 46.09L339.9 46.05Z" />
  <path fill="var(--color-01)" d="M160 47.25C160.49 67.08 160.5 88.9 160 108.72C159.51 88.9 159.51 67.08 160 47.25Z" />
  <path fill="var(--color-01)" d="M224.32 64.1C224.81 83.93 224.82 105.75 224.32 125.57C223.82 105.75 223.83 83.93 224.32 64.1Z" />
  <path fill="var(--color-01)" d="M340 47.25C340.49 79.84 340.49 116.41 340 149C339.51 116.41 339.51 79.84 340 47.25Z" />
  <path fill="var(--color-01)" d="M168.23 53.84C168.72 78.34 168.73 105.84 168.23 130.35C167.74 105.84 167.75 78.35 168.23 53.84Z" />
  <path fill="var(--color-01)" d="M294.27 68.37C294.77 83.22 294.76 98.82 294.27 113.68C293.77 98.82 293.76 83.22 294.27 68.37Z" />
  <path fill="var(--color-01)" d="M200.05 61.24C200.54 79.42 200.54 99.44 200.05 117.63C199.55 99.44 199.56 79.42 200.05 61.24Z" />
  <path fill="var(--color-01)" d="M322.64 55.85C323.13 80.35 323.14 107.85 322.64 132.36C322.15 107.86 322.16 80.36 322.64 55.85Z" />
  <path fill="var(--color-01)" d="M160 137.66C159.49 130.059 159.49 122.431 160 114.83C160.515 122.431 160.515 130.059 160 137.66Z" />
  <path fill="var(--color-01)" d="M309.54 91.2C309.03 83.5985 309.03 75.9715 309.54 68.37C310.055 75.9713 310.055 83.5987 309.54 91.2Z" />
  <path fill="var(--color-01)" d="M179.87 103.89C179.36 96.2886 179.36 88.6615 179.87 81.0601C180.385 88.6613 180.385 96.2888 179.87 103.89Z" />
  <path fill="var(--color-01)" d="M279.1 88.3901C278.585 80.7888 278.585 73.1613 279.1 65.5601C279.61 73.1615 279.61 80.7886 279.1 88.3901Z" />
  <path fill="var(--color-01)" d="M209.25 90.05C208.735 82.4487 208.735 74.8213 209.25 67.22C209.76 74.8214 209.76 82.4485 209.25 90.05Z" />
  <path fill="var(--color-02)" d="M288 45.4901C290.4 45.1901 308.81 42.77 299.2 39.6C293.96 37.88 285.96 37.41 280.44 36.8C286.79 37.14 293.2 37.2801 299.35 39.1301C300.63 39.5201 303.71 40.78 301.94 42.41C300.588 43.3208 299.057 43.9312 297.45 44.2001C294.336 44.8593 291.177 45.2904 288 45.4901Z" />
  <path fill="var(--color-02)" d="M270.47 46.29C274.9 45.95 279.3 45.81 283.74 45.85C279.347 46.4912 274.896 46.6388 270.47 46.29Z" />
  <path fill="var(--color-02)" d="M246.37 44.5901C249.355 44.7547 252.326 45.1256 255.26 45.7001C252.256 45.8076 249.255 45.4328 246.37 44.5901Z" />
  <path fill="var(--color-02)" d="M270.47 36.56C265.01 36.76 259.56 36.98 254.13 37.5C251.41 37.74 248.7 38.06 246.02 38.5C243.73 38.96 241.24 39.25 239.25 40.57C239.111 40.6646 238.994 40.7874 238.906 40.9305C238.818 41.0735 238.762 41.2335 238.74 41.4C238.751 41.2282 238.798 41.0607 238.879 40.9089C238.96 40.757 239.073 40.6244 239.21 40.52C241.13 39.05 243.65 38.66 245.95 38.12C248.64 37.58 251.36 37.26 254.08 36.98C259.529 36.4985 265.003 36.3515 270.47 36.54V36.56Z" />
  <path fill="var(--color-02)" d="M283.06 43.8001C284.58 43.5701 298.06 42.1001 290.95 40.4201C286.67 39.3701 282 39.2101 277.61 38.7201C282.61 38.9401 287.91 38.7201 292.72 40.5101C296.72 43.0901 284.34 43.7901 283.06 43.8001Z" />
  <path fill="var(--color-02)" d="M270.47 44.27C273.628 43.8367 276.823 43.7462 280 44C276.835 44.4265 273.634 44.5136 270.45 44.26L270.47 44.27Z" />
  <path fill="var(--color-02)" d="M253.12 43.27C255.274 43.1453 257.435 43.3647 259.52 43.92C257.366 44.0501 255.204 43.8306 253.12 43.27Z" />
  <path fill="var(--color-02)" d="M270.47 38.58C266.59 38.95 262.69 38.88 258.81 39.28C255.76 39.64 250.89 39.63 248.07 40.9C247.88 41.02 247.65 41.17 247.62 41.42C247.642 41.2993 247.69 41.1848 247.761 41.0846C247.832 40.9844 247.923 40.9009 248.03 40.84C251.32 39.15 255.18 39.25 258.77 38.78C262.66 38.44 266.57 38.54 270.47 38.58Z" />
  <path fill="var(--color-01)" d="M277 40.88C275.46 50.15 273.33 61.49 271.7 69.94C271.45 71.22 271.22 72.43 270.99 73.56C270.76 74.69 270.55 75.86 270.35 76.84C270.35 76.93 270.35 77.01 270.3 77.09C270.22 77.53 270.13 77.95 270.06 78.34C269.99 78.73 269.94 78.92 269.89 79.19C269.84 79.46 269.82 79.52 269.79 79.68L269.3 82.15L257.91 80.74V80.61C257.99 80.15 258.3 78.51 258.76 76.04C258.81 75.81 258.85 75.57 258.9 75.32L259.02 74.68C259.07 74.36 259.13 74.04 259.2 73.68C259.39 72.68 259.59 71.53 259.81 70.33C261.33 62.05 263.44 50.25 265.02 40.33C269.17 40.45 273.17 40.64 277 40.88Z" />
  <path fill="var(--color-02)" opacity="0.7" d="M277 40.88C275.46 50.15 273.33 61.49 271.7 69.94C271.45 71.22 271.22 72.43 270.99 73.56C270.76 74.69 270.55 75.86 270.35 76.84C270.35 76.93 270.35 77.01 270.3 77.09C270.22 77.53 270.13 77.95 270.06 78.34C269.99 78.73 269.94 78.92 269.89 79.19C269.84 79.46 269.82 79.52 269.79 79.68L269.3 82.15L257.91 80.74V80.61C257.99 80.15 258.3 78.51 258.76 76.04C258.81 75.81 258.85 75.57 258.9 75.32L259.02 74.68C259.07 74.36 259.13 74.04 259.2 73.68C259.39 72.68 259.59 71.53 259.81 70.33C261.33 62.05 263.44 50.25 265.02 40.33C269.17 40.45 273.17 40.64 277 40.88Z" />
  <path fill="var(--color-01)" d="M271 73.5601C270 78.7401 269.3 82.1501 269.3 82.1501L257.91 80.7401C257.91 80.7401 258.43 78.0001 259.22 73.7401L271 73.5601Z" />
  <path fill="var(--color-01)" d="M275.72 66C274.415 66.3959 273.216 67.0794 272.21 68C271.726 68.5255 271.337 69.1312 271.06 69.79C270.92 70.13 270.77 70.47 270.65 70.79C270.491 71.2009 270.308 71.6016 270.1 71.99C270.05 72.08 270.19 72.15 270.24 72.06C270.401 71.7088 270.595 71.3739 270.82 71.06L271.48 70.18C271.866 69.6264 272.283 69.0955 272.73 68.59C273.673 67.698 274.733 66.9377 275.88 66.33C275.905 66.3005 275.922 66.2642 275.927 66.2255C275.932 66.1869 275.925 66.1477 275.908 66.1126C275.891 66.0776 275.864 66.0483 275.831 66.0283C275.797 66.0083 275.759 65.9985 275.72 66Z" />
  <path fill="var(--color-02)" d="M274.51 63.37C273.563 63.9188 272.736 64.6535 272.08 65.53C271.757 65.9597 271.463 66.4107 271.2 66.88C270.952 67.3576 270.738 67.8521 270.56 68.36C270.56 68.45 270.67 68.5 270.71 68.42C270.965 67.9582 271.246 67.5108 271.55 67.08C271.852 66.642 272.186 66.2274 272.55 65.84C273.236 65.0541 273.974 64.3158 274.76 63.63C274.86 63.5 274.66 63.27 274.51 63.37Z" />
  <path fill="var(--color-01)" d="M259.08 56.84C258.83 56.74 258.63 57.13 258.83 57.29C260.93 59 262.69 61.29 262.83 64.05C262.83 64.0712 262.838 64.0916 262.853 64.1066C262.868 64.1216 262.889 64.13 262.91 64.13C262.931 64.13 262.952 64.1216 262.967 64.1066C262.982 64.0916 262.99 64.0712 262.99 64.05C263.28 61.19 261.91 57.9 259.08 56.84Z" />
  <path fill="var(--color-02)" d="M266.68 56.17C266.538 55.1397 266.068 54.1824 265.34 53.44C265.31 53.4129 265.271 53.3964 265.231 53.3928C265.19 53.3892 265.149 53.3988 265.115 53.4201C265.08 53.4414 265.053 53.4733 265.038 53.5111C265.022 53.5489 265.02 53.5906 265.03 53.63C265.41 54.5122 265.743 55.4134 266.03 56.33C266.155 56.7891 266.246 57.2572 266.3 57.73C266.3 57.98 266.3 58.22 266.35 58.47C266.33 58.6862 266.33 58.9038 266.35 59.12C266.358 59.1324 266.369 59.1425 266.382 59.1496C266.396 59.1566 266.41 59.1603 266.425 59.1603C266.44 59.1603 266.454 59.1566 266.468 59.1496C266.481 59.1425 266.492 59.1324 266.5 59.12C266.689 58.6705 266.784 58.1874 266.78 57.7C266.805 57.1879 266.772 56.6745 266.68 56.17Z" />
  <path fill="var(--color-01)" d="M276.49 49.36C275.08 50.1184 273.87 51.2013 272.961 52.5192C272.051 53.8371 271.469 55.3524 271.26 56.94C271.26 57.05 271.41 57.09 271.45 56.99C272.009 55.5815 272.723 54.2399 273.58 52.99C274.479 51.7475 275.52 50.6133 276.68 49.61C276.81 49.47 276.64 49.29 276.49 49.36Z" />
  <path fill="var(--color-02)" d="M273.47 47.57C272.763 48.1051 272.209 48.8151 271.86 49.63C271.681 50.0198 271.537 50.4247 271.43 50.84C271.3 51.2684 271.23 51.7125 271.22 52.16C271.22 52.26 271.36 52.27 271.4 52.16C271.53 51.77 271.61 51.36 271.76 50.98C271.915 50.5771 272.098 50.1861 272.31 49.81C272.7 49.08 273.22 48.44 273.68 47.74C273.76 47.64 273.59 47.48 273.47 47.57Z" />
  <path fill="var(--color-01)" d="M266.94 47.59C266.866 46.8798 266.695 46.1832 266.43 45.52C265.886 44.2069 264.954 43.0908 263.76 42.32C263.62 42.23 263.47 42.44 263.59 42.55C264.495 43.4142 265.243 44.4294 265.8 45.55C266.071 46.1013 266.289 46.6772 266.45 47.27C266.539 47.5989 266.61 47.9328 266.66 48.27C266.66 48.54 266.82 49.03 266.66 49.27C266.6 49.35 266.66 49.45 266.77 49.38C266.85 49.287 266.911 49.179 266.949 49.0622C266.987 48.9454 267.001 48.8222 266.99 48.7C267.003 48.3292 266.987 47.958 266.94 47.59Z" />
  <path fill="var(--color-02)" d="M265.58 69.57C265.527 68.8716 265.238 68.212 264.76 67.7C264.61 67.57 264.32 67.7 264.4 67.92C264.673 68.4646 264.904 69.0296 265.09 69.61C265.243 70.2177 265.277 70.8493 265.19 71.47C265.19 71.55 265.3 71.62 265.33 71.53C265.572 70.9068 265.658 70.2339 265.58 69.57Z" />
  <path fill="var(--color-01)" d="M260.48 69.11C260.027 68.364 259.42 67.7231 258.7 67.23C258.54 67.12 258.41 67.36 258.51 67.48C259.03 68.1145 259.508 68.7826 259.94 69.48C260.372 70.1681 260.759 70.8829 261.1 71.62C261.1 71.7 261.28 71.62 261.27 71.56C261.189 70.6954 260.919 69.8591 260.48 69.11Z" />
  <path fill="var(--color-01)" d="M280.35 111.75C279.18 114.15 282.04 123.61 279.7 125.91C273.26 132.25 260.33 132.25 253.2 130.91C246.07 129.57 234.03 124.91 230.32 116.63C228.98 113.63 235.07 105.87 234.86 103.21C234.65 100.55 228.55 98.72 230.4 89.57C232.25 80.42 242.2 76 247.92 75.66C258.305 75.2086 268.656 77.152 278.17 81.34C283.37 83.74 291.05 91.47 289.45 100.66C287.85 109.85 281.51 109.36 280.35 111.75Z" />
  <path fill="var(--color-02)" opacity="0.7" d="M280.35 111.75C279.18 114.15 282.04 123.61 279.7 125.91C273.26 132.25 260.33 132.25 253.2 130.91C246.07 129.57 234.03 124.91 230.32 116.63C228.98 113.63 235.07 105.87 234.86 103.21C234.65 100.55 228.55 98.72 230.4 89.57C232.25 80.42 242.2 76 247.92 75.66C258.305 75.2086 268.656 77.152 278.17 81.34C283.37 83.74 291.05 91.47 289.45 100.66C287.85 109.85 281.51 109.36 280.35 111.75Z" />
  <path fill="var(--color-01)" d="M278.91 104.82L237 97C237.53 95.44 250.93 88.68 259.94 90.37C268.95 92.06 279 103.18 278.91 104.82Z" />
  <path fill="var(--color-01)" d="M281.84 106.63C281.67 106.89 277.58 104.75 274.03 104.86C268.89 105.02 263.65 110.76 256.35 109.39C249.05 108.02 246.26 100.77 241.52 98.7501C238.26 97.3601 233.66 97.8801 233.6 97.5601C233.54 97.2401 241.16 95.3001 246 96.0001C250.84 96.7001 254.34 99.7101 258 100.4C261.66 101.09 266 99.5901 270.8 100.67C275.6 101.75 282 106.36 281.84 106.63Z" />
  <path fill="black" opacity="0.1" d="M334.47 417.12C334.47 419.02 332.54 420.83 329 422.51C267.31 411.51 230.05 419.34 204.29 429.9C180.97 427.19 165.53 422.48 165.53 417.12C165.53 408.74 203.35 401.94 250 401.94C296.65 401.94 334.47 408.74 334.47 417.12Z" />
  <path fill="black" opacity="0.1" d="M165.53 46.05C165.53 44.15 167.46 42.34 171 40.66C232.69 51.66 269.95 43.83 295.71 33.27C319 36 334.47 40.69 334.47 46.05C334.47 54.43 296.65 61.23 250 61.23C203.35 61.23 165.53 54.43 165.53 46.05Z" />
  <path fill="black" opacity="0.1" d="M278.91 104.82L237 97C237.423 96.4179 237.978 95.9449 238.62 95.62C241.104 94.9876 243.677 94.7813 246.23 95.01C251.1 95.71 254.62 98.44 258.3 99.13C261.98 99.82 266.25 98.55 271.04 99.67C273.497 100.389 275.815 101.515 277.9 103C278.377 103.517 278.724 104.141 278.91 104.82Z" />
  <path fill="black" opacity="0.1" d="M253.2 106.54C251.49 106.81 249.52 103.06 251.46 102.65C253.4 102.24 254.11 106.4 253.2 106.54Z" />
  <path fill="black" opacity="0.1" d="M260.32 107.88C261.82 108.75 265.01 105.97 263.32 104.88C261.63 103.79 259.53 107.42 260.32 107.88Z" />
  <path fill="var(--color-04)" d="M272.58 113.77C272.58 113.85 272.76 113.71 272.77 113.63C273.15 111.68 273.9 109.51 275.77 109.26C275.83 109.26 275.85 109.16 275.77 109.15C273.6 109 272.63 111.86 272.58 113.77Z" />
  <path fill="var(--color-04)" d="M274.87 117.24C279.46 118.3 280.77 111.1 276.51 110.11C272.25 109.12 271 116.35 274.87 117.24Z" />
  <path fill="var(--color-04)" d="M276.68 117.22C277.43 116.91 278.22 116.28 279.04 116.35C279.86 116.42 280.53 117.35 280.98 118.25C280.98 118.34 281.11 118.25 281.13 118.19C281.43 116.74 281.13 115.19 279.64 114.62C278.15 114.05 276.98 115.24 276.34 116.62C276.22 116.89 276.38 117.34 276.68 117.22Z" />
  <path fill="var(--color-04)" d="M241.32 107.9C241.32 107.97 241.18 107.78 241.19 107.7C241.55 105.7 241.63 103.45 239.96 102.53C239.9 102.53 239.96 102.4 239.96 102.42C242.11 103.05 242 106.1 241.32 107.9Z" />
  <path fill="var(--color-04)" d="M237.93 110.3C233.27 109.62 234.66 102.44 238.99 103.06C243.32 103.68 241.85 110.87 237.93 110.3Z" />
  <path fill="var(--color-04)" d="M236.25 109.62C235.67 109.07 235.16 108.19 234.37 107.96C233.58 107.73 232.61 108.37 231.87 109.03C231.79 109.09 231.73 109.03 231.75 108.92C232 107.45 232.83 106.06 234.43 106.13C236.03 106.2 236.69 107.67 236.78 109.2C236.8 109.49 236.49 109.85 236.25 109.62Z" />
  <path fill="var(--color-01)" d="M252.86 121.44C252.02 123.989 250.893 126.435 249.5 128.73C248.154 131.041 246.528 133.177 244.66 135.09C244.59 135.16 244.66 135.24 244.75 135.19C246.883 133.476 248.715 131.417 250.17 129.1C251.554 126.745 252.515 124.166 253.01 121.48C253.01 121.462 253.005 121.445 252.994 121.43C252.983 121.416 252.968 121.406 252.951 121.401C252.933 121.397 252.915 121.398 252.899 121.405C252.882 121.412 252.869 121.424 252.86 121.44Z" />
  <path fill="var(--color-01)" d="M254.57 125.12C253.67 131.84 250.35 138.2 246.27 143.54C246.259 143.55 246.251 143.563 246.245 143.577C246.239 143.59 246.236 143.605 246.236 143.62C246.236 143.635 246.239 143.65 246.245 143.664C246.251 143.677 246.259 143.69 246.269 143.701C246.28 143.711 246.293 143.719 246.306 143.725C246.32 143.731 246.335 143.734 246.35 143.734C246.365 143.734 246.38 143.731 246.393 143.725C246.407 143.719 246.42 143.711 246.43 143.7C251.63 138.85 254.14 132.12 254.72 125.13C254.73 125.05 254.58 125 254.57 125.12Z" />
  <path fill="var(--color-02)" d="M252.88 126.89C252.436 128.248 251.856 129.558 251.15 130.8C250.457 132.052 249.665 133.246 248.78 134.37C248.78 134.43 248.78 134.49 248.85 134.44C249.91 133.442 250.807 132.285 251.51 131.01C252.189 129.721 252.7 128.35 253.03 126.93C253.03 126.912 253.025 126.895 253.014 126.881C253.003 126.866 252.988 126.856 252.971 126.851C252.953 126.847 252.935 126.848 252.919 126.855C252.902 126.862 252.889 126.874 252.88 126.89Z" />
  <path fill="var(--color-01)" d="M260.93 133.84C259.123 131.573 257.803 128.959 257.05 126.16C257.05 126.09 256.91 126.1 256.92 126.16C257.03 127.636 257.428 129.076 258.09 130.4C258.786 131.731 259.706 132.932 260.81 133.95C260.89 134.05 261 133.93 260.93 133.84Z" />
  <path fill="var(--color-02)" d="M262.64 126C262.19 125.05 261.78 124.11 261.42 123.13C261.032 122.168 260.77 121.159 260.64 120.13C260.64 120.01 260.46 120.02 260.44 120.13C260.243 121.2 260.326 122.302 260.68 123.33C261.075 124.365 261.673 125.311 262.44 126.11C262.52 126.16 262.7 126.09 262.64 126Z" />
  <path fill="var(--color-02)" d="M250 114.67C249.83 114.94 249.62 115.17 249.46 115.44L248.92 116.26C248.56 116.8 248.19 117.32 247.83 117.84C247.47 118.36 247.12 118.84 246.76 119.36C246.4 119.88 245.98 120.36 245.63 120.93C245.619 120.952 245.616 120.978 245.62 121.002C245.624 121.027 245.636 121.049 245.653 121.067C245.671 121.084 245.694 121.096 245.718 121.1C245.742 121.104 245.768 121.101 245.79 121.09C246.817 120.287 247.706 119.321 248.42 118.23C248.794 117.692 249.128 117.127 249.42 116.54C249.57 116.24 249.71 115.95 249.84 115.65C249.97 115.35 250.04 115.04 250.15 114.73C250.18 114.64 250.05 114.6 250 114.67Z" />
  <path fill="var(--color-01)" d="M246.65 123.29C246.413 123.525 246.159 123.743 245.89 123.94C245.63 124.17 245.35 124.39 245.07 124.6C244.537 124.992 243.979 125.35 243.4 125.67C242.233 126.328 241.008 126.877 239.74 127.31C239.713 127.31 239.688 127.321 239.669 127.339C239.651 127.358 239.64 127.384 239.64 127.41C239.64 127.437 239.651 127.462 239.669 127.481C239.688 127.499 239.713 127.51 239.74 127.51C241.129 127.403 242.474 126.975 243.67 126.26C244.259 125.902 244.812 125.487 245.32 125.02C245.57 124.79 245.82 124.54 246.06 124.28C246.3 124.02 246.49 123.68 246.73 123.4C246.83 123.32 246.71 123.21 246.65 123.29Z" />
  <path fill="var(--color-01)" d="M282.59 127.15C282.276 126.875 281.942 126.624 281.59 126.4C281.21 126.13 280.85 125.83 280.49 125.53C279.787 124.936 279.12 124.301 278.49 123.63C277.866 122.96 277.285 122.252 276.75 121.51C276.242 120.745 275.781 119.951 275.37 119.13C275.32 119.04 275.18 119.13 275.2 119.2C275.689 121.056 276.611 122.769 277.89 124.2C278.516 124.885 279.225 125.49 280 126C280.752 126.597 281.621 127.029 282.55 127.27C282.561 127.266 282.572 127.259 282.581 127.251C282.589 127.242 282.596 127.231 282.599 127.22C282.603 127.208 282.604 127.196 282.603 127.184C282.601 127.172 282.597 127.16 282.59 127.15Z" />
  <path fill="var(--color-02)" d="M273.3 124.13C271.794 122.025 270.77 119.615 270.3 117.07C270.287 117.035 270.263 117.006 270.231 116.987C270.199 116.969 270.161 116.962 270.124 116.967C270.088 116.973 270.054 116.992 270.03 117.02C270.005 117.047 269.991 117.083 269.99 117.12C270.133 119.797 271.262 122.326 273.16 124.22C273.23 124.29 273.35 124.2 273.3 124.13Z" />
  <path fill="var(--color-01)" d="M277.79 130.65C276.523 129.729 275.318 128.727 274.18 127.65C273.067 126.522 272.043 125.308 271.12 124.02C271.096 123.982 271.058 123.954 271.014 123.944C270.97 123.934 270.923 123.941 270.885 123.965C270.847 123.989 270.819 124.027 270.809 124.071C270.799 124.115 270.806 124.162 270.83 124.2C271.552 125.671 272.542 126.994 273.75 128.1C274.906 129.222 276.263 130.118 277.75 130.74C277.79 130.81 277.85 130.7 277.79 130.65Z" />
  <path fill="var(--color-01)" d="M239.37 112.2C236.279 114.803 232.408 116.302 228.37 116.46C228.24 116.46 228.21 116.66 228.37 116.68C232.5 117.32 237.11 115.86 239.59 112.36C239.6 112.27 239.46 112.13 239.37 112.2Z" />
  <path fill="var(--color-02)" d="M242.91 110.52C242.484 111.435 241.954 112.297 241.33 113.09C240.723 113.887 240.054 114.636 239.33 115.33C239.22 115.43 239.33 115.6 239.49 115.53C240.391 114.993 241.171 114.274 241.78 113.42C242.374 112.558 242.808 111.596 243.06 110.58C243.08 110.5 243 110.44 242.91 110.52Z" />
  <path fill="var(--color-01)" d="M239.22 117C238.25 118.116 237.109 119.071 235.84 119.83C234.595 120.615 233.25 121.227 231.84 121.65C231.79 121.65 231.84 121.74 231.84 121.73C233.355 121.55 234.812 121.041 236.11 120.24C237.388 119.408 238.495 118.339 239.37 117.09C239.4 117 239.28 116.93 239.22 117Z" />
  <path fill="var(--color-02)" d="M268.36 125.26C267.936 124.43 267.562 123.575 267.24 122.7C267.24 122.6 267.08 122.7 267.09 122.7C267.255 123.641 267.544 124.555 267.95 125.42C268.368 126.271 268.922 127.048 269.59 127.72C269.64 127.78 269.74 127.72 269.69 127.64C269.21 126.9 268.78 126.08 268.36 125.26Z" />
  <path fill="var(--color-01)" d="M264.42 121.19C262.873 118.827 261.784 116.195 261.21 113.43C261.21 113.35 261.09 113.38 261.08 113.43C260.988 114.898 261.241 116.367 261.82 117.72C262.403 119.056 263.246 120.263 264.3 121.27C264.313 121.278 264.328 121.282 264.343 121.281C264.358 121.281 264.373 121.276 264.385 121.268C264.398 121.259 264.408 121.248 264.414 121.234C264.42 121.22 264.422 121.205 264.42 121.19Z" />
  <path fill="var(--color-01)" d="M291.51 99.78C290.407 100.974 289.235 102.103 288 103.16C286.742 104.207 285.37 105.109 283.91 105.85C283.81 105.9 283.91 106.07 283.99 106.04C287.238 105.053 289.977 102.845 291.63 99.88C291.67 99.8 291.57 99.72 291.51 99.78Z" />
  <path fill="var(--color-01)" d="M236.07 99.9999C235.46 99.8199 234.81 99.7299 234.19 99.5699C233.57 99.4099 232.94 99.2399 232.32 99.0399C231.7 98.8399 231.06 98.63 230.44 98.37C229.82 98.11 229.26 97.8099 228.66 97.5699C228.637 97.554 228.61 97.5477 228.582 97.5524C228.555 97.5571 228.531 97.5724 228.515 97.595C228.499 97.6175 228.493 97.6454 228.497 97.6726C228.502 97.6998 228.517 97.724 228.54 97.7399C229.556 98.6617 230.766 99.345 232.08 99.7399C233.36 100.2 234.733 100.34 236.08 100.15C236.16 100.1 236.14 99.9999 236.07 99.9999Z" />
  <path fill="var(--color-01)" d="M232.65 96.64C231.753 95.9792 230.925 95.2287 230.18 94.4C229.469 93.5428 228.842 92.6185 228.31 91.64C228.25 91.53 228.11 91.64 228.13 91.72C228.361 92.8805 228.894 93.9596 229.675 94.8481C230.456 95.7366 231.458 96.403 232.58 96.78C232.598 96.7846 232.617 96.783 232.633 96.7754C232.65 96.7678 232.664 96.7547 232.672 96.7383C232.68 96.7219 232.682 96.7032 232.678 96.6853C232.674 96.6674 232.664 96.6514 232.65 96.64Z" />
  <path fill="var(--color-01)" d="M289.85 91.6999C289.85 91.6099 289.68 91.6299 289.68 91.6999C289.745 93.1943 289.555 94.6888 289.12 96.1199C288.716 97.5971 287.985 98.9643 286.98 100.12C286.971 100.135 286.967 100.153 286.969 100.171C286.971 100.189 286.979 100.206 286.992 100.218C287.004 100.231 287.021 100.239 287.039 100.241C287.057 100.243 287.075 100.239 287.09 100.23C287.668 99.6943 288.194 99.105 288.66 98.4699C289.086 97.8036 289.422 97.0841 289.66 96.3299C290.179 94.8391 290.245 93.2282 289.85 91.6999Z" />
  <path fill="var(--color-01)" d="M246.61 76.8299C246.32 76.5209 245.983 76.2609 245.61 76.0599C245.237 75.8543 244.836 75.7028 244.42 75.6099C244.363 75.5874 244.299 75.5884 244.243 75.6128C244.187 75.6372 244.143 75.6829 244.12 75.7399C244.097 75.797 244.098 75.8606 244.123 75.9169C244.147 75.9731 244.193 76.0174 244.25 76.0399C244.597 76.2009 244.931 76.3881 245.25 76.5999C245.56 76.8099 245.87 77.0099 246.16 77.2499C246.76 77.7448 247.274 78.3362 247.68 78.9999C247.693 79.0117 247.709 79.0194 247.727 79.0219C247.744 79.0245 247.762 79.0219 247.778 79.0145C247.794 79.007 247.808 78.995 247.817 78.98C247.826 78.965 247.831 78.9476 247.83 78.9299C247.605 78.139 247.186 77.417 246.61 76.8299Z" />
  <path fill="var(--color-01)" d="M233.67 80.3699C233.675 80.3366 233.669 80.3027 233.652 80.2734C233.635 80.2442 233.609 80.2214 233.578 80.2087C233.547 80.196 233.513 80.1942 233.48 80.2035C233.448 80.2127 233.42 80.2326 233.4 80.2599C232.774 81.3935 232.466 82.6755 232.51 83.9699C232.57 85.2423 232.911 86.4856 233.51 87.6099C233.521 87.6227 233.536 87.6316 233.553 87.6354C233.569 87.6391 233.586 87.6376 233.602 87.6309C233.617 87.6242 233.63 87.6128 233.639 87.5982C233.648 87.5837 233.652 87.5668 233.65 87.5499C232.992 85.2009 232.998 82.7152 233.67 80.3699Z" />
  <path fill="var(--color-02)" d="M235.41 86.15C235.41 86.0757 235.38 86.0045 235.328 85.952C235.275 85.8995 235.204 85.87 235.13 85.87C235.056 85.87 234.985 85.8995 234.932 85.952C234.879 86.0045 234.85 86.0757 234.85 86.15C234.826 87.0578 234.991 87.9606 235.335 88.8009C235.68 89.6412 236.196 90.4004 236.85 91.03C236.92 91.09 237.02 91.03 236.97 90.93C236.121 89.4633 235.59 87.8349 235.41 86.15Z" />
  <path fill="var(--color-01)" d="M257.76 81.6C257.735 81.5622 257.697 81.5347 257.653 81.5226C257.609 81.5104 257.562 81.5143 257.521 81.5337C257.48 81.5531 257.447 81.5866 257.429 81.6281C257.41 81.6696 257.407 81.7164 257.42 81.76C257.727 82.8727 257.974 84.001 258.16 85.14C258.31 86.3052 258.31 87.4848 258.16 88.65C258.16 88.73 258.27 88.8 258.31 88.71C258.809 87.5709 259.021 86.3263 258.925 85.0862C258.829 83.8461 258.429 82.6488 257.76 81.6Z" />
  <path fill="var(--color-02)" d="M263 79.4801C262.236 80.3339 261.655 81.3342 261.29 82.4201C260.945 83.5146 260.756 84.6526 260.73 85.8001C260.73 85.8213 260.738 85.8416 260.753 85.8566C260.768 85.8716 260.789 85.8801 260.81 85.8801C260.831 85.8801 260.852 85.8716 260.867 85.8566C260.882 85.8416 260.89 85.8213 260.89 85.8001C261.097 84.707 261.415 83.638 261.84 82.6101C262.25 81.6101 262.67 80.6101 263.16 79.6101C263.17 79.5001 263 79.3901 263 79.4801Z" />
  <path fill="var(--color-01)" d="M264.38 83.82C263.656 84.8122 263.108 85.9217 262.76 87.1C262.76 87.18 262.87 87.24 262.9 87.16C263.404 86.0647 263.989 85.0084 264.65 84C264.74 83.86 264.5 83.67 264.38 83.82Z" />
  <path fill="var(--color-01)" d="M274.6 78.32C273.284 78.5532 272.047 79.1099 271 79.94C269.983 80.8051 269.185 81.8981 268.67 83.13C268.659 83.1486 268.657 83.1706 268.662 83.1911C268.668 83.2117 268.682 83.2292 268.7 83.2398C268.719 83.2504 268.741 83.2532 268.761 83.2476C268.782 83.242 268.799 83.2285 268.81 83.21C269.506 82.1376 270.382 81.1936 271.4 80.42C272.384 79.6149 273.483 78.961 274.66 78.48C274.681 78.4721 274.698 78.456 274.708 78.4354C274.717 78.4147 274.718 78.3912 274.71 78.37C274.702 78.3488 274.686 78.3316 274.665 78.3222C274.645 78.3129 274.621 78.3121 274.6 78.32Z" />
  <path fill="var(--color-02)" d="M286.69 96.33C286.3 96.99 285.86 97.63 285.43 98.26C285.004 98.9089 284.497 99.5003 283.92 100.02C283.86 100.02 283.92 100.19 284.02 100.14C284.652 99.6662 285.238 99.1338 285.77 98.55C286.295 97.9594 286.714 97.2828 287.01 96.55C287.09 96.29 286.81 96.12 286.69 96.33Z" />
  <path fill="var(--color-01)" d="M287.22 88.75C287.16 88.5 286.82 88.59 286.81 88.81V90C286.785 90.4027 286.735 90.8035 286.66 91.2C286.5 91.9927 286.217 92.7554 285.82 93.46C285.82 93.53 285.89 93.62 285.95 93.55C286.455 92.8728 286.834 92.1108 287.07 91.3C287.34 90.4773 287.392 89.5987 287.22 88.75Z" />
  <path fill="var(--color-02)" d="M278.73 92.2C278.175 93.6656 277.439 95.0564 276.54 96.34C276.48 96.42 276.54 96.52 276.65 96.45C277.852 95.3498 278.689 93.9089 279.05 92.32C279.08 92.14 278.82 92 278.73 92.2Z" />
  <path fill="var(--color-01)" d="M277.58 87.13C277.36 87.97 277.15 88.82 276.89 89.66C276.628 90.507 276.293 91.3301 275.89 92.12C275.878 92.1412 275.875 92.1662 275.882 92.1896C275.888 92.213 275.904 92.2329 275.925 92.2448C275.946 92.2567 275.971 92.2597 275.995 92.2532C276.018 92.2467 276.038 92.2311 276.05 92.21C277.147 90.7497 277.838 89.0243 278.05 87.21C278.08 86.9 277.65 86.87 277.58 87.13Z" />
  <path fill="var(--color-02)" d="M274.39 83.64C273.631 84.1624 272.996 84.8451 272.53 85.64C272.047 86.4075 271.683 87.2436 271.45 88.12C271.448 88.1368 271.452 88.1538 271.461 88.1683C271.47 88.1829 271.483 88.1943 271.498 88.201C271.514 88.2077 271.531 88.2092 271.547 88.2055C271.564 88.2017 271.579 88.1928 271.59 88.18C271.99 87.3883 272.462 86.6351 273 85.93C273.52 85.22 274.11 84.58 274.65 83.93C274.71 83.75 274.56 83.53 274.39 83.64Z" />
  <path fill="var(--color-01)" d="M248.08 82.87C247.667 81.6539 246.875 80.6023 245.82 79.87C245.74 79.82 245.62 79.94 245.68 80.02C246.041 80.5044 246.375 81.0085 246.68 81.53C247.01 82.04 247.33 82.53 247.61 83.11C248.163 84.1947 248.557 85.3532 248.78 86.55C248.78 86.5712 248.788 86.5915 248.803 86.6065C248.818 86.6215 248.839 86.63 248.86 86.63C248.881 86.63 248.902 86.6215 248.917 86.6065C248.932 86.5915 248.94 86.5712 248.94 86.55C248.861 85.2839 248.57 84.04 248.08 82.87Z" />
  <path fill="var(--color-02)" d="M243.12 82.0601C242.934 81.6949 242.727 81.3409 242.5 81.0001C242.096 80.2852 241.523 79.6807 240.83 79.2401C240.801 79.2241 240.768 79.2183 240.735 79.2233C240.702 79.2284 240.672 79.2441 240.649 79.2681C240.626 79.2921 240.612 79.3229 240.609 79.3558C240.605 79.3887 240.613 79.4219 240.63 79.4501C241.039 80.0751 241.498 80.667 242 81.2201C242.23 81.5201 242.46 81.8101 242.68 82.1201C242.79 82.2801 242.9 82.4401 243 82.6101C243.133 82.7747 243.238 82.9607 243.31 83.1601C243.31 83.2401 243.47 83.2301 243.46 83.1601C243.419 82.7749 243.303 82.4013 243.12 82.0601Z" />
  <path fill="var(--color-02)" d="M251.17 77.06C250.465 75.9222 249.503 74.9664 248.36 74.27C248.344 74.2617 248.325 74.2591 248.307 74.2627C248.29 74.2663 248.273 74.2759 248.262 74.2899C248.25 74.3039 248.244 74.3214 248.243 74.3396C248.243 74.3578 248.249 74.3756 248.26 74.39C249.226 75.2771 250.073 76.2855 250.78 77.39C251.509 78.4775 252.046 79.6815 252.37 80.95C252.37 81.05 252.53 80.95 252.52 80.95C252.345 79.5737 251.885 78.249 251.17 77.06Z" />
  <path fill="var(--color-02)" d="M258.42 118.88C258.001 117.99 257.666 117.063 257.42 116.11C257.154 115.171 256.966 114.211 256.86 113.24C256.853 113.215 256.837 113.194 256.817 113.178C256.796 113.163 256.771 113.154 256.745 113.154C256.719 113.154 256.694 113.163 256.673 113.178C256.653 113.194 256.637 113.215 256.63 113.24C256.519 114.246 256.601 115.264 256.87 116.24C257.168 117.217 257.646 118.129 258.28 118.93C258.35 119.05 258.46 119 258.42 118.88Z" />
  <path fill="var(--color-01)" d="M254.61 114.53C254.209 115.38 253.723 116.187 253.16 116.94C252.618 117.712 252.002 118.428 251.32 119.08C251.32 119.08 251.32 119.19 251.39 119.16C252.247 118.685 252.993 118.034 253.58 117.25C254.156 116.457 254.555 115.55 254.75 114.59C254.77 114.51 254.64 114.45 254.61 114.53Z" />
  <path fill="var(--color-04)" d="M157.57 151.37C158.163 145.705 160.308 140.313 163.77 135.79C165.452 133.495 167.475 131.472 169.77 129.79C172.034 128.072 174.528 126.682 177.18 125.66C179.835 124.616 182.621 123.943 185.46 123.66C186.879 123.528 188.307 123.502 189.73 123.58C191.16 123.612 192.584 123.759 193.99 124.02C199.659 125.063 204.925 127.663 209.2 131.53L208.83 131.42L224.2 129.06L225.31 128.89L224.75 129.89L217.1 143.21V142.69C218.894 147.057 219.668 151.776 219.364 156.487C219.059 161.198 217.685 165.778 215.345 169.878C213.004 173.979 209.76 177.491 205.858 180.149C201.956 182.807 197.499 184.54 192.827 185.216C188.155 185.893 183.389 185.495 178.894 184.053C174.399 182.611 170.291 180.162 166.884 176.894C163.477 173.626 160.86 169.624 159.232 165.193C157.604 160.761 157.009 156.017 157.49 151.32L157.57 151.37ZM157.57 151.37C157.115 156.012 157.719 160.696 159.335 165.071C160.95 169.446 163.537 173.398 166.9 176.63C170.282 179.818 174.334 182.21 178.76 183.63C183.187 184.988 187.863 185.33 192.44 184.63C196.996 183.953 201.336 182.242 205.13 179.63C208.885 177.003 212.024 173.591 214.33 169.63C216.597 165.648 217.93 161.203 218.23 156.63C218.52 152.058 217.782 147.479 216.07 143.23L215.96 142.96L216.11 142.71L223.85 129.44L224.4 130.25L209 132.36H208.79L208.64 132.22C204.534 128.373 199.436 125.748 193.92 124.64C192.542 124.36 191.145 124.19 189.74 124.13C188.342 124.03 186.938 124.03 185.54 124.13C182.732 124.342 179.969 124.948 177.33 125.93C174.673 126.89 172.172 128.238 169.91 129.93C167.617 131.571 165.593 133.558 163.91 135.82C160.4 140.318 158.205 145.7 157.57 151.37Z" />
  <path fill="var(--color-01)" d="M190.23 159.28V163C190.238 163.374 190.171 163.746 190.031 164.093C189.892 164.44 189.684 164.755 189.419 165.019C189.155 165.284 188.84 165.492 188.493 165.631C188.146 165.771 187.774 165.838 187.4 165.83C186.649 165.83 185.928 165.532 185.395 165.002C184.863 164.471 184.563 163.751 184.56 163V157C184.56 156.94 184.62 156.94 184.62 156.89C184.62 156.84 184.56 156.83 184.56 156.77C184.598 156.035 184.911 155.342 185.437 154.829C185.964 154.315 186.665 154.019 187.4 154C188.272 154.034 189.141 153.892 189.957 153.582C190.772 153.272 191.517 152.801 192.146 152.196C192.775 151.592 193.275 150.866 193.617 150.063C193.958 149.261 194.135 148.397 194.135 147.525C194.135 146.653 193.958 145.789 193.617 144.987C193.275 144.184 192.775 143.458 192.146 142.854C191.517 142.249 190.772 141.778 189.957 141.468C189.141 141.158 188.272 141.016 187.4 141.05C186.277 141.048 185.174 141.34 184.2 141.898C183.226 142.456 182.416 143.26 181.85 144.23C181.659 144.555 181.406 144.84 181.104 145.067C180.803 145.293 180.459 145.458 180.094 145.551C179.728 145.644 179.348 145.664 178.975 145.608C178.602 145.553 178.243 145.425 177.92 145.23C177.599 145.043 177.317 144.794 177.093 144.498C176.868 144.202 176.705 143.864 176.612 143.504C176.519 143.144 176.498 142.769 176.551 142.401C176.604 142.033 176.729 141.679 176.92 141.36C177.929 139.621 179.355 138.16 181.068 137.109C182.782 136.057 184.73 135.447 186.737 135.334C188.744 135.221 190.748 135.609 192.569 136.462C194.39 137.315 195.97 138.606 197.168 140.221C198.366 141.835 199.144 143.722 199.433 145.712C199.722 147.702 199.512 149.732 198.822 151.62C198.132 153.509 196.984 155.196 195.481 156.532C193.978 157.867 192.167 158.808 190.21 159.27L190.23 159.28ZM190.23 171.94V172.94C190.238 173.314 190.171 173.686 190.031 174.033C189.892 174.38 189.684 174.695 189.419 174.959C189.155 175.224 188.84 175.432 188.493 175.571C188.146 175.711 187.774 175.778 187.4 175.77C186.649 175.77 185.928 175.472 185.395 174.942C184.863 174.411 184.563 173.691 184.56 172.94V171.94C184.573 171.192 184.877 170.478 185.407 169.95C185.937 169.421 186.652 169.12 187.4 169.11C187.773 169.106 188.143 169.176 188.488 169.317C188.833 169.458 189.146 169.666 189.41 169.93C189.674 170.194 189.882 170.507 190.023 170.852C190.164 171.197 190.234 171.567 190.23 171.94Z" />
</svg>