<svg fill="none" viewBox="0 0 500 500" xmlns="http://www.w3.org/2000/svg">
  <defs>
    <style>
      /* Light Scheme */
      :root {
        --color-01: #EBEBEB;
        --color-02: #F5F5F5;
        --color-03: #FFFFFF;
        --color-04: #E0E0E0;
        --color-05: #263238;
        --color-06: #FB1B00;
        --color-07: #340101;
        --color-08: #000000;
        --color-09: #989898;
      }

      /* Dark Scheme */
      @media (prefers-color-scheme: dark) {
        :root {
          --color-01: #373737;
          --color-02: #373737;
          --color-03: #1E1E1E;
          --color-04: #373737;
          --color-05: #263238;
          --color-06: #FB1B00;
          --color-07: #340101;
          --color-08: #000000;
          --color-09: #7E7E7E;
        }
      }
    </style>
  </defs>
  <path fill="var(--color-01)" d="M140.56 461.08C137.266 462.798 134.691 465.635 133.3 469.08C129.691 465.254 127.583 460.255 127.36 455C125.316 455.869 123.596 457.355 122.439 459.25C121.282 461.146 120.748 463.355 120.91 465.57L101.8 447.73C100.82 454.75 99.82 461.77 98.8 468.79C95.1438 458.357 89.8583 448.569 83.14 439.79C83 447.743 82.8633 455.69 82.73 463.63C73.4988 445.112 59.7996 429.186 42.87 417.29C47.87 428.35 52.87 439.52 55.4 451.4C50.6529 441.916 42.8848 434.282 33.32 429.7C43.6542 443.601 50.9704 459.507 54.8 476.4L146.47 476.46C146.47 476.46 142.57 466.37 149.37 462.97L140.56 461.08Z" />
  <path fill="var(--color-01)" d="M140.353 148.783C163.628 125.508 163.628 87.7711 140.353 64.4958C117.078 41.2206 79.3411 41.2206 56.0658 64.4958C32.7906 87.7711 32.7906 125.508 56.0658 148.783C79.3411 172.058 117.078 172.058 140.353 148.783Z" />
  <path fill="var(--color-01)" d="M478.71 388.45C469.045 393.909 460.768 401.524 454.525 410.702C448.281 419.88 444.238 430.375 442.71 441.37C443.002 422.905 446.017 404.584 451.66 387C438.314 403.251 430.428 423.293 429.12 444.28L426.6 409.5C418.36 425.5 417.6 444.12 417.08 462.08C413.545 454.634 408.639 447.921 402.62 442.29C404.94 453.29 407.3 465.63 409.62 476.66L457.17 476.55L456.28 467.05C453.503 438.952 461.522 410.851 478.71 388.45Z" />
  <path fill="var(--color-02)" d="M435.35 170.73C435.99 166.12 429.49 162.34 424.61 161.94C422.28 161.76 419.86 162.11 417.61 161.34C412.83 159.68 410.92 153.5 406.26 151.53C402.77 150.06 398.76 151.37 395.38 153.07C392 154.77 388.66 156.92 384.88 157.16C381.6 157.37 378.03 156.16 375.16 157.76C373.02 158.95 371.89 161.42 369.92 162.87C367.95 164.32 365.47 164.6 363.07 164.73C360.67 164.86 358.2 164.88 356.02 165.88C353.84 166.88 352.02 169.19 352.48 171.55L435.35 170.73Z" />
  <path fill="var(--color-01)" d="M311.07 87.14C311.62 83.14 305.97 79.84 301.72 79.5C299.72 79.34 297.59 79.65 295.67 78.98C291.51 77.53 289.85 72.16 285.8 70.45C282.8 69.17 279.27 70.31 276.33 71.79C273.39 73.27 270.49 75.13 267.2 75.34C264.34 75.52 261.2 74.46 258.74 75.86C256.88 76.86 255.9 79.04 254.18 80.31C252.46 81.58 250.31 81.81 248.18 81.93C246.089 81.8751 244.006 82.2143 242.04 82.93C240.14 83.8 238.57 85.81 238.96 87.86L311.07 87.14Z" />
  <path fill="var(--color-01)" d="M154.93 247.62C155.7 242.03 147.8 237.43 141.87 236.95C139.05 236.72 136.11 237.15 133.43 236.22C127.63 234.22 125.31 226.7 119.64 224.31C115.41 222.52 110.53 224.11 106.43 226.18C102.33 228.25 98.27 230.84 93.68 231.18C89.68 231.43 85.36 229.95 81.87 231.9C79.27 233.35 77.87 236.35 75.51 238.12C73.15 239.89 70.11 240.21 67.2 240.37C64.29 240.53 61.28 240.56 58.63 241.77C55.98 242.98 53.78 245.77 54.33 248.65L154.93 247.62Z" />
  <path fill="var(--color-01)" d="M373.672 383.715C388.421 378.537 396.18 362.383 391.003 347.634C385.825 332.885 369.671 325.126 354.922 330.304C340.173 335.482 332.414 351.636 337.592 366.385C342.77 381.134 358.923 388.893 373.672 383.715Z" />
  <path fill="var(--color-03)" d="M356.467 358.21C355.665 358.652 354.75 358.846 353.838 358.768C352.925 358.69 352.056 358.343 351.341 357.772C350.626 357.2 350.096 356.429 349.819 355.556C349.542 354.683 349.53 353.748 349.785 352.868C350.039 351.989 350.549 351.204 351.249 350.614C351.949 350.024 352.809 349.655 353.719 349.554C354.629 349.452 355.549 349.623 356.362 350.044C357.175 350.465 357.845 351.118 358.287 351.92C358.582 352.452 358.769 353.037 358.837 353.642C358.905 354.247 358.853 354.859 358.684 355.443C358.515 356.028 358.232 356.573 357.851 357.048C357.471 357.523 357 357.918 356.467 358.21Z" />
  <path fill="var(--color-03)" d="M365.007 346C364.541 346.256 364.009 346.368 363.48 346.322C362.95 346.276 362.446 346.074 362.031 345.741C361.616 345.409 361.309 344.961 361.149 344.454C360.988 343.947 360.981 343.404 361.129 342.894C361.277 342.383 361.573 341.928 361.979 341.585C362.386 341.242 362.885 341.028 363.413 340.969C363.942 340.909 364.476 341.008 364.948 341.252C365.42 341.496 365.81 341.875 366.067 342.34C366.238 342.65 366.347 342.991 366.386 343.342C366.426 343.694 366.395 344.05 366.297 344.39C366.198 344.73 366.034 345.047 365.812 345.324C365.591 345.6 365.317 345.83 365.007 346Z" />
  <path fill="var(--color-04)" d="M346.667 336.36C346.297 336.71 313.957 326.62 312.617 334.55C311.277 342.48 335.297 359.5 362.167 370.5C389.037 381.5 418.427 388.87 420.847 381.09C423.267 373.31 394.417 356.96 394.417 356.96L394.157 360.96C394.157 360.96 411.997 370.63 410.877 377.41C409.757 384.19 387.787 378.72 363.407 367.35C339.027 355.98 319.147 342.96 321.407 338.01C323.667 333.06 343.747 339.5 343.747 339.5L346.667 336.36Z" />
  <path fill="var(--color-03)" d="M375.987 333.79C375.857 334.13 373.497 333.23 369.577 332.9C364.5 332.412 359.39 333.417 354.876 335.793C350.363 338.168 346.64 341.809 344.167 346.27C342.217 349.69 341.617 352.14 341.267 352.06C340.917 351.98 341.077 349.39 342.787 345.56C343.805 343.324 345.153 341.254 346.787 339.42C350.811 334.812 356.409 331.87 362.487 331.17C364.926 330.867 367.397 330.931 369.817 331.36C373.907 332.12 376.107 333.58 375.987 333.79Z" />
  <path fill="var(--color-04)" d="M450.487 130.576C460.164 127.181 465.258 116.584 461.863 106.906C458.468 97.2281 447.871 92.1348 438.193 95.5296C428.515 98.9244 423.422 109.522 426.817 119.2C430.211 128.877 440.809 133.971 450.487 130.576Z" />
  <path fill="var(--color-02)" d="M450.39 106C450.408 105.411 450.599 104.84 450.939 104.358C451.279 103.877 451.753 103.507 452.303 103.293C452.852 103.08 453.453 103.033 454.029 103.159C454.604 103.285 455.13 103.577 455.541 104C455.952 104.423 456.229 104.958 456.337 105.537C456.446 106.116 456.381 106.715 456.152 107.258C455.923 107.801 455.538 108.264 455.047 108.59C454.556 108.916 453.979 109.09 453.39 109.09C452.988 109.09 452.591 109.01 452.221 108.853C451.851 108.697 451.516 108.468 451.236 108.18C450.956 107.892 450.737 107.55 450.592 107.176C450.447 106.801 450.378 106.401 450.39 106Z" />
  <path fill="var(--color-02)" d="M456.45 113C456.458 112.652 456.569 112.314 456.769 112.029C456.969 111.744 457.249 111.525 457.573 111.399C457.898 111.274 458.252 111.247 458.592 111.322C458.932 111.398 459.242 111.573 459.482 111.824C459.722 112.076 459.883 112.393 459.943 112.736C460.003 113.079 459.96 113.432 459.82 113.75C459.68 114.069 459.448 114.339 459.154 114.525C458.86 114.712 458.518 114.808 458.17 114.8C457.938 114.796 457.71 114.746 457.498 114.653C457.286 114.561 457.094 114.427 456.934 114.259C456.774 114.092 456.649 113.894 456.566 113.678C456.483 113.462 456.443 113.231 456.45 113Z" />
  <path fill="var(--color-02)" d="M454.09 118.44C454.175 118.44 454.26 118.457 454.338 118.491C454.417 118.524 454.487 118.573 454.546 118.635C454.605 118.697 454.651 118.77 454.681 118.85C454.711 118.93 454.724 119.015 454.72 119.1C454.72 119.272 454.652 119.438 454.53 119.56C454.408 119.682 454.242 119.75 454.07 119.75C453.898 119.75 453.732 119.682 453.61 119.56C453.488 119.438 453.42 119.272 453.42 119.1C453.419 119.012 453.435 118.925 453.468 118.843C453.502 118.762 453.551 118.688 453.614 118.627C453.676 118.565 453.751 118.517 453.833 118.485C453.915 118.452 454.002 118.437 454.09 118.44Z" />
  <path fill="var(--color-05)" d="M467.27 476.5C467.27 476.64 369.99 476.76 250.01 476.76C130.03 476.76 32.73 476.64 32.73 476.5C32.73 476.36 129.99 476.24 250.01 476.24C370.03 476.24 467.27 476.36 467.27 476.5Z" />
  <path fill="var(--color-05)" d="M100.09 476.5C100.025 476.34 99.9815 476.171 99.96 476C99.88 475.62 99.79 475.14 99.68 474.57C99.46 473.32 99.1 471.52 98.61 469.31C97.3444 463.546 95.5743 457.904 93.32 452.45C92.0489 449.463 90.6065 446.551 89 443.73C88.22 442.46 87.52 441.22 86.76 440.13L85.69 438.53C85.32 438.03 84.97 437.53 84.69 437.1C84.03 436.17 83.37 435.39 82.8 434.69C82.23 433.99 81.74 433.4 81.31 432.93L80.31 431.83C80.1886 431.708 80.0843 431.57 80 431.42C80 431.42 80.15 431.53 80.39 431.76L81.39 432.76C81.9602 433.311 82.4978 433.896 83 434.51C83.58 435.19 84.27 435.96 85 436.88L86 438.29C86.37 438.8 86.73 439.29 87.11 439.89C87.89 440.98 88.61 442.21 89.41 443.49C91.0395 446.32 92.4987 449.246 93.78 452.25C96.0462 457.737 97.7776 463.43 98.95 469.25C99.4 471.48 99.7 473.25 99.86 474.56C99.93 475.14 99.99 475.62 100.04 476.01C100.081 476.17 100.098 476.335 100.09 476.5Z" />
  <path fill="var(--color-05)" d="M72.26 446.42C72.7717 446.533 73.2708 446.698 73.75 446.91C74.327 447.117 74.8913 447.357 75.44 447.63C76.08 447.95 76.84 448.27 77.61 448.74C78.4753 449.212 79.3133 449.733 80.12 450.3C81.02 450.87 81.89 451.6 82.83 452.3C86.826 455.645 90.0528 459.813 92.29 464.52C92.7772 465.54 93.2111 466.585 93.59 467.65C93.9375 468.573 94.2346 469.514 94.48 470.47C94.74 471.34 94.86 472.15 95.01 472.85C95.1402 473.45 95.2304 474.058 95.28 474.67C95.3683 475.185 95.4052 475.708 95.39 476.23C95.28 476.23 95.11 474.01 94.12 470.57C93.8596 469.631 93.5492 468.706 93.19 467.8C92.85 466.8 92.35 465.8 91.86 464.73C90.7343 462.439 89.395 460.259 87.86 458.22C86.2769 456.206 84.5056 454.348 82.57 452.67C81.65 451.93 80.8 451.2 79.92 450.67C79.1324 450.093 78.3146 449.559 77.47 449.07C74.34 447.24 72.22 446.53 72.26 446.42Z" />
  <path fill="var(--color-05)" d="M97.74 416.46C97.7858 416.663 97.8093 416.871 97.81 417.08C97.81 417.54 97.84 418.13 97.9 418.85C97.96 420.39 98.07 422.61 98.24 425.36C98.58 430.84 99.24 438.42 100.49 446.71C101.74 455 103.32 462.45 104.61 467.79C105.25 470.47 105.79 472.63 106.19 474.11C106.36 474.81 106.51 475.38 106.62 475.83C106.681 476.029 106.721 476.233 106.74 476.44C106.648 476.254 106.574 476.06 106.52 475.86C106.38 475.42 106.21 474.86 105.99 474.17C105.54 472.69 104.99 470.55 104.25 467.88C100.676 453.969 98.5385 439.727 97.87 425.38C97.75 422.63 97.69 420.38 97.7 418.86V417.08C97.6902 416.872 97.7036 416.664 97.74 416.46Z" />
  <path fill="var(--color-05)" d="M62.82 461.41C63.0869 461.482 63.3402 461.597 63.57 461.75C64.04 462 64.69 462.39 65.48 462.91C67.5359 464.287 69.4282 465.894 71.12 467.7C72.801 469.524 74.2642 471.538 75.48 473.7C75.94 474.53 76.29 475.21 76.48 475.7C76.6192 475.938 76.7173 476.199 76.77 476.47C76.1774 475.642 75.6332 474.781 75.14 473.89C73.8518 471.822 72.3719 469.88 70.72 468.09C69.0486 466.313 67.2176 464.693 65.25 463.25C63.76 462.1 62.78 461.48 62.82 461.41Z" />
  <path fill="var(--color-05)" d="M78.7 460C78.8761 460.789 78.9765 461.592 79 462.4C79.15 463.9 79.35 465.95 79.62 468.22C79.89 470.49 80.19 472.54 80.4 474.02C80.5629 474.817 80.65 475.627 80.66 476.44C80.364 475.68 80.156 474.888 80.04 474.08C79.74 472.61 79.38 470.56 79.1 468.28C78.82 466 78.69 463.93 78.63 462.43C78.5627 461.62 78.5862 460.805 78.7 460Z" />
  <path fill="var(--color-05)" d="M228.65 424C228.676 424.179 228.676 424.361 228.65 424.54L228.56 426.08C228.46 427.41 228.35 429.34 228.24 431.73C227.674 444.168 228.455 456.63 230.57 468.9C230.97 471.26 231.33 473.16 231.57 474.47C231.68 475.08 231.78 475.58 231.85 475.98C231.889 476.158 231.913 476.338 231.92 476.52C231.838 476.359 231.781 476.188 231.75 476.01L231.37 474.51C231.05 473.21 230.64 471.32 230.19 468.97C229.028 462.838 228.25 456.639 227.86 450.41C227.477 444.183 227.477 437.937 227.86 431.71C228.02 429.32 228.19 427.39 228.35 426.06C228.42 425.44 228.49 424.94 228.54 424.53C228.554 424.349 228.591 424.171 228.65 424Z" />
  <path fill="var(--color-05)" d="M236.74 452.48C236.596 453.644 236.389 454.799 236.12 455.94C235.72 458.06 235.22 461.01 234.86 464.29C234.5 467.57 234.35 470.56 234.28 472.72C234.296 473.892 234.242 475.064 234.12 476.23C234.043 475.923 234.003 475.607 234 475.29C234 474.69 233.92 473.81 233.91 472.72C233.886 469.887 234.029 467.056 234.34 464.24C234.651 461.422 235.125 458.623 235.76 455.86C236.01 454.8 236.24 453.95 236.41 453.37C236.475 453.058 236.586 452.758 236.74 452.48Z" />
  <path fill="var(--color-05)" d="M335.3 429.62C335.346 429.776 335.366 429.938 335.36 430.1C335.36 430.47 335.41 430.93 335.43 431.47C335.49 432.75 335.56 434.47 335.64 436.53C335.83 440.81 336.17 446.71 336.75 453.2C337.33 459.69 338.07 465.57 338.66 469.8C338.95 471.86 339.19 473.55 339.36 474.8C339.44 475.34 339.5 475.8 339.54 476.17C339.567 476.329 339.567 476.491 339.54 476.65C339.475 476.5 339.432 476.342 339.41 476.18C339.34 475.82 339.24 475.37 339.13 474.83C338.9 473.66 338.6 471.95 338.26 469.83C337.59 465.6 336.8 459.73 336.21 453.22C335.62 446.71 335.34 440.8 335.21 436.52C335.21 434.38 335.15 432.64 335.21 431.45C335.21 430.897 335.21 430.437 335.21 430.07C335.224 429.917 335.254 429.766 335.3 429.62Z" />
  <path fill="var(--color-05)" d="M346.51 452.74C346.58 452.74 346.16 454.06 345.59 456.18C344.848 458.936 344.293 461.739 343.93 464.57C343.586 467.403 343.439 470.256 343.49 473.11C343.49 475.3 343.62 476.66 343.54 476.67C343.439 476.366 343.378 476.05 343.36 475.73C343.27 475.11 343.19 474.22 343.12 473.12C342.964 470.244 343.061 467.359 343.41 464.5C343.768 461.641 344.381 458.82 345.24 456.07C345.57 455.02 345.86 454.18 346.1 453.61C346.34 453.04 346.47 452.72 346.51 452.74Z" />
  <path fill="var(--color-05)" d="M479.62 421C479.463 421.155 479.292 421.295 479.11 421.42L477.57 422.53L476.45 423.32C476.05 423.62 475.64 423.98 475.18 424.32C474.29 425.07 473.18 425.86 472.18 426.89L470.49 428.45C469.9 429 469.36 429.63 468.76 430.25C467.53 431.47 466.38 432.92 465.15 434.41C459.906 441.032 456.083 448.664 453.92 456.83C453.48 458.72 453.01 460.51 452.78 462.22C452.65 463.07 452.47 463.89 452.4 464.69C452.33 465.49 452.24 466.25 452.17 466.98C451.98 468.44 452.02 469.77 451.97 470.98C451.97 471.56 451.92 472.11 451.97 472.61C452.02 473.11 451.97 473.61 451.97 473.97C451.97 474.75 451.97 475.38 452.03 475.87C452.052 476.089 452.052 476.311 452.03 476.53C451.975 476.318 451.944 476.099 451.94 475.88C451.94 475.39 451.85 474.76 451.79 473.98C451.79 473.56 451.73 473.11 451.69 472.61C451.65 472.11 451.69 471.61 451.69 470.98C451.69 469.8 451.69 468.46 451.83 466.98C451.89 466.24 451.95 465.47 452.02 464.67C452.09 463.87 452.25 463.04 452.37 462.18C452.59 460.45 453.04 458.65 453.48 456.74C454.569 452.637 456.06 448.651 457.93 444.84C459.868 441.061 462.165 437.478 464.79 434.14C466.05 432.64 467.22 431.2 468.47 429.98C469.08 429.37 469.63 428.73 470.23 428.2L471.96 426.64C473.03 425.64 474.13 424.85 475.05 424.12C475.51 423.77 475.93 423.42 476.35 423.12L477.49 422.36L479.09 421.36C479.253 421.221 479.431 421.101 479.62 421Z" />
  <path fill="var(--color-05)" d="M473.69 448.18C473.75 448.26 472.19 449.37 469.95 451.49C468.648 452.734 467.419 454.053 466.27 455.44C464.87 457.141 463.587 458.935 462.43 460.81C461.303 462.702 460.301 464.667 459.43 466.69C458.729 468.35 458.124 470.05 457.62 471.78C456.76 474.78 456.48 476.63 456.39 476.61C456.384 476.16 456.427 475.71 456.52 475.27C456.58 474.84 456.66 474.32 456.79 473.72C456.92 473.12 457.05 472.42 457.26 471.72C457.722 469.943 458.303 468.199 459 466.5C460.692 462.368 463.027 458.531 465.92 455.13C467.099 453.744 468.368 452.438 469.72 451.22C470.29 450.69 470.85 450.22 471.32 449.87C471.723 449.515 472.143 449.182 472.58 448.87C472.923 448.598 473.295 448.367 473.69 448.18Z" />
  <path fill="var(--color-06)" d="M198.14 225.78L198.35 225.73C197.19 225.722 196.043 225.982 195 226.49C194.011 226.957 193.084 227.545 192.24 228.24C190.47 229.64 188.92 231.32 187.03 232.55C184.074 234.469 180.496 235.185 177.03 234.55C178.65 237.33 182.27 238.37 185.46 237.95C188.65 237.53 191.52 235.95 194.39 234.48C199.09 232.133 203.952 230.128 208.94 228.48C207.428 227.301 205.686 226.452 203.826 225.987C201.966 225.522 200.029 225.452 198.14 225.78Z" />
  <path fill="var(--color-07)" d="M357.08 284.3C357.08 284.3 363.82 286.75 369.27 284.72C374.72 282.69 377.54 281.81 377.54 281.81L379.62 281.67L381.05 294.52L377.28 299.16L375 296.49L374.16 289.09C374.16 289.09 362.95 291.39 355.48 289.37L357.08 284.3Z" />
  <path fill="var(--color-06)" d="M319.48 232.93L313.13 200.93C313.13 200.93 281.2 140.93 272.81 119.63C264.42 98.33 270.81 35.71 270.81 35.71C226.54 83.58 234.63 148.67 234.63 148.67C267.73 185.94 262.28 225.16 262.28 225.16L319.48 232.93ZM255.17 110.67C254.878 110.547 254.62 110.357 254.416 110.115C254.212 109.872 254.068 109.585 253.997 109.277C253.926 108.968 253.929 108.647 254.006 108.34C254.083 108.033 254.232 107.748 254.44 107.51L256.44 105.2C258.38 102.94 261.91 103.2 264.13 103.12C266.35 103.04 267.13 112.02 263.75 112.76C261.59 113.22 257.73 111.78 255.17 110.67Z" />
  <path fill="var(--color-08)" opacity="0.3" d="M262.92 225.16C262.92 225.16 286.07 229.16 289.66 226.46C293.25 223.76 300.25 214.72 300.25 214.72L311.03 197.16L301.98 179.64C301.98 179.64 304.23 204.26 293.36 210.33C282.49 216.4 262.52 218.52 262.52 218.52L262.92 225.16Z" />
  <path fill="var(--color-03)" opacity="0.2" d="M262.73 212.43C273.222 206.729 283.141 200.032 292.35 192.43C293.43 191.54 294.58 189.99 293.67 188.92C293.01 188.14 291.77 188.36 290.79 188.65L261.9 197.16C261.332 197.261 260.814 197.549 260.43 197.98C260.123 198.603 260.077 199.322 260.3 199.98L263.15 213.52" />
  <path fill="var(--color-03)" opacity="0.2" d="M268.75 65.848C262.77 67.138 256.461 68.6089 252.131 72.7289C256.907 76.1933 262.548 78.2697 268.43 78.7289C268.47 74.942 268.501 69.7556 268.75 65.848ZM260.498 90.645C260.277 90.6637 260.06 90.7083 259.85 90.7778L239.211 95.1079C237.772 100.904 236.651 106.482 235.871 111.749C244.841 107.287 253.214 101.714 260.791 95.1589C261.49 94.6333 262.052 93.9474 262.43 93.1589C262.606 92.7586 262.64 92.3098 262.526 91.8874C262.411 91.465 262.155 91.0948 261.801 90.8386C261.388 90.6726 260.941 90.6061 260.498 90.645ZM235.871 111.749C235.87 111.749 235.87 111.749 235.869 111.749V111.759C235.87 111.756 235.87 111.752 235.871 111.749ZM272.109 117.698C268.489 118.698 264.741 121.798 260.711 122.698C256.681 123.598 252.481 123.859 248.711 125.419C247.181 126.039 245.5 127.309 245.82 128.929C246.14 130.549 247.92 131.04 249.44 131.31C258.845 132.94 268.466 132.879 277.85 131.13C275.65 126.13 274.02 123.02 272.16 117.72L272.109 117.698ZM260.316 141.145C259.909 141.177 259.506 141.259 259.119 141.389C257.571 141.918 256.097 142.64 254.73 143.538C248.744 146.94 241.965 148.697 235.08 148.63C235.08 148.63 245.98 162.059 249.33 168.249C252.82 174.709 258.539 157.349 262.689 151.249C263.717 149.921 264.483 148.412 264.949 146.799C265.173 145.991 265.18 145.138 264.972 144.325C264.763 143.513 264.345 142.769 263.759 142.168C262.778 141.413 261.551 141.048 260.316 141.145ZM287.609 152.518L287.59 152.528C285.18 157.758 282.34 163.529 277.59 167.239C272.84 170.949 267.191 173.418 261.471 175.528C259.961 176.088 258.151 177.038 258.291 178.528C258.431 180.018 260.381 180.68 261.971 180.88C273.442 182.349 285.094 180.538 295.58 175.659C296.029 175.512 296.446 175.277 296.804 174.968C297.163 174.658 297.457 174.282 297.669 173.858C297.831 173.052 297.677 172.215 297.24 171.519C295.03 166.939 290.649 159.218 287.609 152.518Z" />
  <path fill="var(--color-07)" d="M264.27 224.68C263.59 211.6 262.87 198.33 258.66 185.93C253.87 171.86 244.78 159.61 234.51 148.86C252.15 169.66 261.51 197.86 260.33 225.15L264.27 224.68Z" />
  <path fill="var(--color-06)" d="M484.6 90.748C419.6 86.748 370.13 108.228 334.91 153.118C334.91 153.118 309.07 204.728 298.26 217.708C287.72 230.368 266.26 235.188 266.26 235.188L324.96 263.018L331.15 272.148L356.95 289.358C356.95 289.358 367.06 271.508 360.67 253.208C347.34 214.968 370.05 197.378 370.05 197.378C377.719 174.068 394.12 154.634 415.81 143.158C430.16 111.748 484.6 90.748 484.6 90.748ZM365.31 186.848C364.887 187.203 364.349 187.392 363.797 187.379C363.245 187.366 362.716 187.153 362.31 186.778C361.936 186.374 361.718 185.851 361.694 185.302C361.67 184.752 361.843 184.212 362.18 183.778L362.63 183.378C363.096 183.086 363.654 182.978 364.195 183.075C364.737 183.172 365.222 183.468 365.557 183.904C365.892 184.34 366.053 184.886 366.007 185.434C365.961 185.982 365.713 186.493 365.31 186.868V186.848ZM371.66 177.958C369.5 178.428 365.66 176.958 363.08 175.878C362.787 175.755 362.528 175.563 362.324 175.32C362.12 175.076 361.977 174.788 361.906 174.478C361.836 174.168 361.84 173.846 361.919 173.538C361.998 173.23 362.149 172.946 362.36 172.708L364.36 170.408C366.3 168.148 369.83 168.408 372.05 168.328C374.27 168.248 375.05 177.228 371.66 177.958Z" />
  <path fill="var(--color-03)" opacity="0.2" d="M455.84 94.629C455.84 94.629 442.331 95.3583 439.891 96.4083C437.451 97.4583 448.731 103.158 448.731 103.158L455.84 94.629ZM417.52 103.115C416.524 103.138 415.513 103.677 414.042 104.158C409.282 105.778 400.042 108.748 400.042 108.748L400.052 108.758C406.032 117.255 415.051 123.127 425.241 125.158C425.754 125.334 426.3 125.396 426.84 125.341C427.38 125.286 427.902 125.114 428.369 124.838C429.699 123.738 429.03 121.608 428.26 120.068C426.053 115.668 423.839 111.264 421.619 106.857C421.093 105.47 420.146 104.281 418.91 103.459C418.423 103.203 417.973 103.105 417.52 103.115ZM375.25 124.988L354.301 140.517C355.075 141.345 356.012 142.003 357.053 142.451C358.094 142.898 359.217 143.125 360.35 143.117C362.616 143.087 364.865 142.713 367.02 142.008C377.353 139.104 387.396 135.251 397.02 130.498C398.26 129.888 399.72 128.617 399.02 127.417C398.751 127.093 398.408 126.839 398.02 126.675C397.632 126.512 397.211 126.444 396.791 126.478C390.271 125.978 381.79 125.478 375.25 124.988Z" />
  <path fill="var(--color-06)" d="M375 287.42C374.198 287.32 373.408 287.142 372.64 286.89C372.64 286.89 362.72 291.98 358.84 290.45C354.96 288.92 339.25 274.59 340.95 264.79C346.29 259.04 349.52 250.52 336.71 241.38C313.71 225.01 267.86 224.76 267.86 224.76C262.442 224.485 257.011 224.542 251.6 224.93C243.1 225.57 236.03 221.74 233.6 220.33C231.17 218.92 222.26 211.5 222.26 211.5C222.26 211.5 252.26 191.45 251.69 190.83C251.12 190.21 208.34 205.89 208.34 205.89C208.34 205.89 154.73 232.16 149.05 237.45C144.12 242.05 145.74 242.78 145.74 242.78C169.5 229.58 196.59 226.21 198.67 226.06C200.793 226.015 202.911 226.275 204.96 226.83C204.96 226.83 201.05 228.01 188.04 236.24C179.04 241.91 163.63 250.92 160.13 253.62C156.63 256.32 156.86 256.71 159.13 257.17C161.4 257.63 200.69 241.71 206.39 239.45C212.93 236.87 222.57 233.68 222.57 233.68C231.91 242.11 254.16 253.39 254.16 253.39C254.16 253.39 274.1 258.39 288.71 257.32C304.23 258.03 315.87 260.01 328.71 268.94C328.71 268.94 342.33 291.42 352.31 294.69C357.979 296.68 364.173 296.574 369.77 294.39L370.89 302.1L372.99 304.43L377.64 301.69C377.64 301.69 375.31 298.94 375 287.42Z" />
  <path fill="var(--color-03)" d="M212.23 217.45C212.286 218.279 212.094 219.107 211.679 219.827C211.265 220.547 210.645 221.128 209.9 221.497C209.155 221.865 208.318 222.004 207.493 221.896C206.669 221.788 205.896 221.438 205.271 220.89C204.646 220.342 204.197 219.621 203.982 218.818C203.767 218.015 203.795 217.166 204.063 216.379C204.331 215.592 204.826 214.902 205.486 214.397C206.146 213.892 206.941 213.593 207.77 213.54C208.32 213.503 208.871 213.576 209.393 213.752C209.915 213.929 210.397 214.207 210.811 214.57C211.225 214.933 211.564 215.375 211.807 215.869C212.051 216.363 212.194 216.9 212.23 217.45Z" />
  <path fill="var(--color-07)" d="M211.49 217.48C211.536 218.163 211.378 218.844 211.037 219.438C210.696 220.031 210.186 220.51 209.573 220.813C208.959 221.117 208.269 221.232 207.591 221.143C206.912 221.055 206.275 220.767 205.759 220.316C205.244 219.866 204.874 219.272 204.697 218.611C204.519 217.95 204.541 217.251 204.761 216.603C204.98 215.954 205.387 215.386 205.93 214.969C206.473 214.552 207.127 214.305 207.81 214.26C208.263 214.229 208.718 214.287 209.149 214.432C209.579 214.578 209.977 214.806 210.319 215.105C210.661 215.405 210.94 215.768 211.141 216.176C211.342 216.583 211.461 217.027 211.49 217.48Z" />
  <path fill="var(--color-07)" d="M170.73 227.82C170.56 227.87 178.73 222.25 179.03 222.76C179.33 223.27 178.83 225.64 170.73 227.82Z" />
  <path fill="var(--color-07)" d="M377.17 300.79L376.257 301.908L376.255 301.91L374.452 303.181L374.449 303.176L372.486 304.532C372.486 304.532 374.556 308.773 374.773 308.719C374.99 308.664 379.44 309.704 379.44 309.704L377.893 307.682C379.273 307.971 381.231 308.422 381.231 308.422L379.357 305.966C380.412 305.81 383.775 305.506 383.775 305.506L377.17 300.79Z" />
  <path fill="var(--color-08)" d="M198.138 225.778L198.348 225.728C197.188 225.72 196.041 225.98 194.998 226.488C194.009 226.955 193.082 227.543 192.238 228.238C190.468 229.638 188.918 231.318 187.028 232.548C184.072 234.467 180.494 235.183 177.028 234.548C178.648 237.328 182.268 238.368 185.458 237.948C188.648 237.528 191.518 235.948 194.388 234.478C199.088 232.131 203.95 230.126 208.938 228.478C207.426 227.299 205.684 226.45 203.824 225.985C201.964 225.52 200.027 225.45 198.138 225.778Z" />
  <path fill="var(--color-03)" opacity="0.2" d="M221.96 219.28C219.73 219.37 216.18 219.1 214.22 221.36L212.23 223.671C212.021 223.908 211.871 224.192 211.794 224.499C211.716 224.805 211.712 225.126 211.782 225.434C211.852 225.743 211.994 226.03 212.197 226.273C212.4 226.516 212.657 226.707 212.948 226.831C215.498 227.941 219.409 229.381 221.579 228.911C224.989 228.181 224.19 219.19 221.96 219.28ZM228.191 221.35C227.928 221.34 227.719 221.407 227.599 221.571C226.829 222.621 225.4 224.13 225.72 225.84C225.84 226.47 225.95 227.08 226.04 227.59C226.072 227.772 226.147 227.943 226.258 228.091C226.369 228.238 226.513 228.357 226.679 228.438C226.844 228.519 227.027 228.559 227.211 228.556C227.395 228.553 227.576 228.507 227.739 228.421C229.179 227.661 231.259 226.42 231.829 225.26C232.605 223.725 229.609 221.407 228.191 221.35Z" />
  <path fill="var(--color-03)" opacity="0.7" d="M252.48 236.28C252.288 236.278 252.1 236.336 251.941 236.445C251.783 236.555 251.663 236.711 251.597 236.891C251.503 237.15 251.486 237.431 251.548 237.7C251.633 237.96 251.769 238.199 251.95 238.404C252.13 238.609 252.35 238.775 252.597 238.891C252.709 238.962 252.834 239.008 252.965 239.027C253.096 239.046 253.23 239.037 253.357 239.001C253.477 238.937 253.58 238.845 253.659 238.734C253.737 238.623 253.788 238.495 253.808 238.36C253.857 238.108 253.854 237.848 253.799 237.597C253.744 237.347 253.638 237.11 253.488 236.901C253.34 236.705 253.157 236.539 252.947 236.411C252.806 236.327 252.644 236.282 252.48 236.28ZM245.435 238.792C244.002 238.827 241.588 239.573 241.628 240.28C241.708 241.34 241.558 243.36 242.298 243.79C243.038 244.22 243.297 244.06 244.607 243.79C245.917 243.52 247.388 243.171 247.138 241.651C246.888 240.131 247.208 239.301 246.228 238.891C246.044 238.814 245.766 238.784 245.435 238.792ZM257.398 240.36C255.168 240.45 251.618 240.18 249.658 242.44C248.948 243.27 248.258 244.071 247.658 244.751C247.449 244.989 247.301 245.274 247.224 245.581C247.147 245.888 247.144 246.209 247.215 246.518C247.286 246.826 247.43 247.113 247.634 247.356C247.838 247.598 248.096 247.788 248.388 247.911C250.938 249.021 254.837 250.461 257.007 249.991C260.427 249.261 259.628 240.27 257.398 240.36ZM265.314 247.155C264.945 247.15 264.584 247.259 264.28 247.468C263.976 247.677 263.744 247.975 263.617 248.321C263.424 248.822 263.386 249.369 263.507 249.891C263.671 250.386 263.933 250.842 264.276 251.234C264.62 251.625 265.038 251.944 265.507 252.171C265.72 252.308 265.959 252.399 266.209 252.437C266.46 252.475 266.715 252.459 266.959 252.391C267.193 252.27 267.394 252.093 267.545 251.878C267.696 251.662 267.793 251.413 267.828 251.151C267.926 250.665 267.921 250.165 267.815 249.681C267.708 249.197 267.502 248.74 267.209 248.341C266.942 247.966 266.601 247.65 266.209 247.411C265.938 247.248 265.63 247.16 265.314 247.155ZM260.586 249.802C260.029 249.815 259.062 250.107 259.078 250.391C259.078 250.801 259.078 251.591 259.338 251.761C259.598 251.931 259.718 251.861 260.248 251.761C260.778 251.661 261.338 251.521 261.248 250.921C261.158 250.321 261.248 250.001 260.888 249.841C260.821 249.811 260.714 249.799 260.586 249.802Z" />
  <path fill="var(--color-03)" opacity="0.2" d="M192.82 218.21C192.89 219.27 192.75 221.29 193.48 221.72C194.21 222.15 194.48 221.98 195.8 221.72C197.12 221.46 198.58 221.1 198.33 219.58C198.08 218.06 198.39 217.23 197.42 216.82C196.45 216.41 192.73 217.34 192.82 218.21Z" />
  <path fill="var(--color-07)" d="M180.67 222.16C180.73 222.16 180.86 222.55 180.73 223.21C180.533 224.053 180.074 224.813 179.42 225.38C178.787 225.93 178.063 226.367 177.28 226.67C176.69 226.91 176.28 227.01 176.28 226.95C176.28 226.89 176.58 226.68 177.12 226.36C177.83 225.982 178.5 225.533 179.12 225.02C179.701 224.502 180.148 223.85 180.42 223.12C180.6 222.55 180.59 222.16 180.67 222.16Z" />
  <path fill="var(--color-07)" d="M159.56 256.9C159.56 256.9 159.64 256.83 159.82 256.71L160.6 256.21L163.6 254.3L174.84 247.38L191.58 237.16C194.829 235.069 198.221 233.207 201.73 231.59C203.611 230.758 205.571 230.118 207.58 229.68C208.608 229.456 209.651 229.302 210.7 229.22C211.211 229.204 211.72 229.141 212.22 229.03C212.438 228.988 212.642 228.894 212.816 228.756C212.99 228.619 213.128 228.442 213.22 228.24C213.281 228.027 213.283 227.801 213.227 227.586C213.17 227.372 213.058 227.176 212.9 227.02C212.556 226.682 212.116 226.458 211.64 226.38C210.649 226.215 209.64 226.181 208.64 226.28C206.632 226.475 204.672 227.005 202.84 227.85C199.383 229.524 196.042 231.428 192.84 233.55L176.18 243.84L164.93 250.73L161.85 252.59L161.05 253.06L160.76 253.21C160.842 253.141 160.929 253.077 161.02 253.02L161.8 252.51L164.8 250.57L175.98 243.57L192.59 233.16C195.809 231.014 199.17 229.089 202.65 227.4C204.545 226.527 206.573 225.98 208.65 225.78C209.714 225.677 210.786 225.714 211.84 225.89C212.411 225.995 212.938 226.27 213.35 226.68C213.565 226.903 213.718 227.178 213.793 227.478C213.869 227.778 213.864 228.092 213.78 228.39C213.659 228.671 213.471 228.919 213.232 229.111C212.993 229.303 212.711 229.433 212.41 229.49C211.88 229.606 211.342 229.677 210.8 229.7C209.767 229.782 208.741 229.936 207.73 230.16C205.752 230.588 203.822 231.214 201.97 232.03C198.475 233.634 195.094 235.475 191.85 237.54L175.1 247.67L163.73 254.47L160.64 256.29L159.83 256.76L159.56 256.9Z" />
  <path fill="var(--color-07)" d="M207.33 226.23C207.308 226.232 207.291 226.238 207.281 226.249C207.181 226.369 207.831 226.9 208.281 227.83C208.731 228.76 208.592 229.66 208.732 229.66C208.812 229.71 209.242 228.75 208.762 227.64C208.327 226.634 207.547 226.211 207.33 226.23ZM201.514 228.892C201.476 228.893 201.451 228.902 201.441 228.919C201.381 229.029 201.842 229.399 202.162 230.029C202.482 230.659 202.481 231.279 202.611 231.279C202.731 231.329 202.991 230.62 202.601 229.82C202.272 229.145 201.716 228.889 201.514 228.892ZM195.168 231.814C195.141 231.816 195.121 231.824 195.111 231.839C195.031 231.959 195.512 232.389 195.902 233.029C196.292 233.669 196.432 234.289 196.572 234.289C196.732 234.289 196.782 233.549 196.322 232.779C195.92 232.105 195.356 231.8 195.168 231.814ZM188.01 236.425C187.971 236.428 187.944 236.444 187.932 236.47C187.852 236.64 188.353 237.01 188.803 237.64C189.253 238.27 189.471 238.849 189.611 238.849C189.731 238.839 189.721 238.089 189.201 237.359C188.762 236.743 188.218 236.412 188.01 236.425ZM183.564 239.31C183.516 239.31 183.482 239.323 183.463 239.349C183.363 239.489 183.841 239.869 184.361 240.349C184.881 240.829 185.302 241.24 185.412 241.16C185.522 241.06 185.261 240.49 184.691 239.97C184.228 239.548 183.773 239.309 183.564 239.31ZM177.766 242.48C177.706 242.482 177.672 242.498 177.672 242.529C177.672 242.669 178.112 242.97 178.672 243.46C179.232 243.95 179.542 244.4 179.672 244.4C179.802 244.36 179.572 243.689 178.982 243.109C178.522 242.656 177.98 242.472 177.766 242.48ZM173.447 245.199C173.422 245.199 173.404 245.207 173.393 245.22C173.303 245.33 173.701 245.79 174.111 246.39C174.521 246.99 174.782 247.5 174.912 247.5C175.042 247.47 174.981 246.799 174.521 246.119C174.119 245.524 173.625 245.198 173.447 245.199ZM168.57 248.175C168.445 248.161 168.194 248.814 168.582 249.55C168.982 250.31 169.732 250.44 169.732 250.31C169.812 250.16 169.322 249.88 169.012 249.32C168.702 248.76 168.702 248.239 168.582 248.179C168.578 248.177 168.574 248.176 168.57 248.175ZM164.449 250.755C164.316 250.743 164.09 251.436 164.332 252.211C164.582 253.011 165.272 253.331 165.332 253.211C165.412 253.091 165.043 252.71 164.793 252.05C164.543 251.39 164.593 250.819 164.463 250.759C164.459 250.757 164.454 250.755 164.449 250.755Z" />
  <path fill="var(--color-07)" d="M208.29 212.74C207.71 212.724 207.135 212.838 206.604 213.072C205.645 213.64 204.792 214.371 204.085 215.232C203.533 215.886 202.809 216.371 201.995 216.633C201.446 216.789 200.859 216.739 200.345 216.492C199.985 216.312 199.826 216.132 199.806 216.142C199.786 216.152 199.875 216.402 200.255 216.662C200.798 216.998 201.451 217.109 202.075 216.972C202.973 216.736 203.783 216.242 204.405 215.553C205.1 214.765 205.914 214.09 206.816 213.553C207.289 213.341 207.804 213.237 208.322 213.247C208.841 213.257 209.351 213.382 209.816 213.611C210.599 213.968 211.302 214.478 211.886 215.111C212.394 215.748 212.938 216.356 213.515 216.931C213.431 216.703 213.31 216.49 213.155 216.303C212.833 215.791 212.475 215.303 212.085 214.842C211.502 214.138 210.776 213.565 209.956 213.162C209.439 212.899 208.87 212.755 208.29 212.74ZM202.626 218.213C202.819 218.988 203.181 219.711 203.684 220.332C204.191 221.05 204.842 221.656 205.595 222.111C206.536 222.684 207.64 222.931 208.735 222.812C209.285 222.754 209.816 222.583 210.296 222.309C210.776 222.036 211.194 221.666 211.524 221.222C211.967 220.512 212.473 219.842 213.036 219.222C213.432 218.845 213.941 218.61 214.485 218.552C214.865 218.542 215.095 218.651 215.095 218.601C215.105 218.591 214.925 218.411 214.485 218.351C213.874 218.333 213.279 218.543 212.815 218.941C212.193 219.545 211.639 220.215 211.165 220.941C210.868 221.331 210.493 221.654 210.064 221.892C209.636 222.13 209.163 222.276 208.675 222.322C207.682 222.429 206.681 222.219 205.815 221.722C205.101 221.309 204.471 220.766 203.956 220.121C203.066 219.011 202.706 218.213 202.626 218.213Z" />
  <path fill="var(--color-07)" d="M215.62 219.38C215.62 219.38 215.62 219.63 215.45 220.03C215.223 220.595 214.92 221.126 214.55 221.61C213.332 223.255 211.522 224.362 209.502 224.696C207.483 225.03 205.413 224.565 203.73 223.4C203.222 223.058 202.762 222.651 202.36 222.19C202.09 221.86 201.97 221.66 201.99 221.64C202.01 221.62 202.64 222.34 203.91 223.11C205.558 224.139 207.525 224.533 209.442 224.218C211.36 223.904 213.097 222.902 214.33 221.4C214.799 220.752 215.23 220.078 215.62 219.38Z" />
  <path fill="var(--color-07)" d="M167.29 228.93C168.748 227.739 170.307 226.678 171.95 225.76C173.507 224.701 175.153 223.781 176.87 223.01C175.413 224.202 173.854 225.262 172.21 226.18C170.652 227.236 169.006 228.156 167.29 228.93Z" />
  <path fill="var(--color-08)" opacity="0.3" d="M280.64 242.9C293.19 247.98 307.64 246.96 320.28 251.9C328.67 255.16 335.85 261.05 341.79 267.82C347.56 274.499 352.777 281.636 357.39 289.16C354.95 279.16 352.53 269.1 347.39 260.16C342.25 251.22 333.73 243.72 323.67 241.5C309.89 238.5 289.72 248.36 281.14 242.64" />
  <path fill="var(--color-07)" d="M357.39 289.16C357.348 289.079 357.321 288.991 357.31 288.9C357.25 288.7 357.18 288.44 357.1 288.12C356.91 287.4 356.66 286.4 356.33 285.12C355.66 282.51 354.67 278.74 353.18 274.12C351.477 268.759 349.182 263.604 346.34 258.75C342.791 252.831 337.727 247.967 331.67 244.66C328.534 242.984 325.135 241.855 321.62 241.32C318.331 240.915 315.002 240.942 311.72 241.4C305.41 242.14 299.84 243.56 295.07 244.29C292.921 244.634 290.745 244.775 288.57 244.71C286.92 244.646 285.287 244.35 283.72 243.83C282.735 243.505 281.795 243.058 280.92 242.5L280.26 242.03L280.04 241.86C281.205 242.613 282.462 243.215 283.78 243.65C285.336 244.13 286.952 244.393 288.58 244.43C290.737 244.474 292.894 244.31 295.02 243.94C299.75 243.18 305.32 241.72 311.67 240.94C314.984 240.468 318.346 240.431 321.67 240.83C325.242 241.369 328.695 242.516 331.88 244.22C338.032 247.579 343.162 252.537 346.73 258.57C349.578 263.463 351.853 268.667 353.51 274.08C354.97 278.67 355.91 282.46 356.51 285.08C356.81 286.39 357.04 287.41 357.18 288.08L357.34 288.87C357.374 288.963 357.391 289.061 357.39 289.16Z" />
  <path fill="var(--color-08)" opacity="0.2" d="M280.93 242.49C291.93 238.62 303.34 234.26 311.15 225.58C323.8 211.58 324.09 189.49 336.58 175.29C337.65 174.07 338.97 172.85 340.58 172.77C341.58 172.77 342.64 173.17 343.68 173.19C346.06 173.19 347.85 171.1 349.27 169.19C351.83 165.72 354.4 159.68 352.06 156.05C351.29 154.86 343.8 157.94 343.16 156.68C342.52 155.42 346.16 151.35 345.04 150.97C336.82 160.04 333.88 164.25 328.2 171.13C321.27 179.53 318.93 191.55 314.34 201.41C306.901 217.284 294.827 230.533 279.71 239.41" />
  <path fill="var(--color-07)" d="M270.2 236.58C271.95 240.07 275.2 242.21 280.64 242.49C280.64 242.49 308.39 222.94 310.64 221.12C312.89 219.3 330.37 172.04 332.64 169.49C334.91 166.94 341.9 156.24 341.9 156.24L342.77 151.78C342.77 151.78 330.48 162.7 329.57 164.35C328.66 166 304.86 210.01 298.26 216.26C290.73 223.38 282.01 235.98 270.2 236.58Z" />
  <path fill="var(--color-07)" d="M335.06 161.16C335.4 160.98 342.78 151.83 342.78 151.83C375.99 111.83 425.12 91.15 484.6 90.83C426.37 95.22 376.11 114.37 344.2 153.16L338.48 160.91L335.06 161.16Z" />
  <path fill="var(--color-07)" d="M415.81 143.16C415.549 143.267 415.282 143.357 415.01 143.43L412.7 144.13C411.7 144.44 410.46 144.78 409.01 145.13C407.56 145.48 405.93 145.95 404.1 146.37C396.8 148.14 386.62 150.08 375.38 152.23C369.76 153.32 364.38 154.42 359.59 155.51C357.18 156.1 354.88 156.61 352.75 157.19L349.67 158L346.85 158.82C345.04 159.32 343.43 159.82 342.02 160.32L340.02 160.95L338.38 161.55L336.11 162.36C335.848 162.468 335.577 162.552 335.3 162.61C335.55 162.483 335.807 162.369 336.07 162.27L338.32 161.37L339.94 160.73L341.94 160.06C343.35 159.57 344.94 159.06 346.76 158.49L349.58 157.63L352.66 156.8C354.79 156.2 357.09 155.67 359.49 155.07C364.33 153.96 369.67 152.84 375.29 151.75C386.54 149.6 396.73 147.75 404.03 146.03C405.86 145.63 407.51 145.22 408.96 144.87C410.41 144.52 411.65 144.21 412.66 143.93L414.99 143.32C415.257 143.239 415.532 143.186 415.81 143.16Z" />
  <path fill="var(--color-07)" d="M370.07 197.38C369.836 197.278 369.609 197.161 369.39 197.03C368.95 196.8 368.33 196.4 367.49 195.97C365.135 194.711 362.692 193.625 360.18 192.72C356.472 191.356 352.597 190.495 348.66 190.16C347.55 190.03 346.41 190.06 345.25 190.02C344.09 189.98 342.9 190.11 341.7 190.3C339.22 190.605 336.8 191.28 334.52 192.3C330.113 194.313 326.287 197.409 323.4 201.3C322.103 202.968 320.901 204.707 319.8 206.51C318.74 208.19 317.8 209.8 316.96 211.26C315.27 214.19 313.9 216.57 312.96 218.19C312.47 218.96 312.09 219.58 311.8 220.04C311.678 220.263 311.53 220.471 311.36 220.66C311.463 220.43 311.58 220.206 311.71 219.99L312.79 218.09L316.7 211.09C317.54 209.61 318.44 207.99 319.5 206.29C320.595 204.466 321.793 202.706 323.09 201.02C326.002 197.054 329.882 193.9 334.36 191.86C336.687 190.832 339.154 190.158 341.68 189.86C342.875 189.71 344.076 189.623 345.28 189.6C346.46 189.6 347.62 189.6 348.74 189.75C352.713 190.108 356.617 191.016 360.34 192.45C362.857 193.383 365.292 194.524 367.62 195.86C368.45 196.31 369.06 196.74 369.49 196.99C369.697 197.099 369.891 197.23 370.07 197.38Z" />
  <path fill="var(--color-07)" d="M273.73 236.37C273.313 236.649 272.837 236.827 272.34 236.89C271.161 237.15 269.944 237.191 268.75 237.01C267.56 236.823 266.412 236.427 265.36 235.84C264.57 235.37 264.16 234.98 264.19 234.93C265.658 235.667 267.219 236.202 268.83 236.52C270.463 236.686 272.11 236.635 273.73 236.37Z" />
  <path fill="var(--color-07)" d="M229.15 230.35C229.15 230.35 229.02 230.45 228.74 230.6C228.46 230.75 228.04 230.94 227.49 231.18C226.4 231.66 224.81 232.32 222.83 233.11C218.88 234.7 213.4 236.83 207.33 239.11L191.73 245L187 246.74C185.88 247.14 185.28 247.38 185.26 247.35C185.24 247.32 185.39 247.26 185.68 247.12C185.97 246.98 186.39 246.8 186.93 246.56C188.03 246.1 189.63 245.46 191.61 244.67C195.61 243.11 201.06 240.99 207.13 238.67L229.15 230.35Z" />
  <path fill="var(--color-09)" d="M96.43 265V383.74L83 370.73L76.72 373.73C76.72 373.73 90.72 392.73 96.39 400.18V476.48H113V265H96.43Z" />
  <path fill="var(--color-09)" d="M34.88 354.41L24.67 307.6L200.9 269.13L204.41 285.23L197.27 293.58L206.59 295.19L211.12 315.94L34.88 354.41Z" />
  <path fill="var(--color-05)" d="M200.9 269.13L200 269.329L197.381 269.868L187.311 271.999L150 279.999L24.5695 307.249L24.2101 307.329L24.2785 307.698C24.9104 310.72 25.5903 313.992 26.2414 317.118L25.8801 317.079C25.8801 317.079 26.1543 317.125 26.2453 317.142C26.9036 320.302 27.5568 323.432 28.2297 326.665C28.1823 326.67 27.8684 326.698 27.8684 326.698C27.8684 326.698 28.1849 326.681 28.2336 326.679C28.5883 328.383 28.9209 329.981 29.2785 331.698L34.1594 355.198L34.2395 355.569L34.6086 355.489L160.219 327.489L197.559 319.108L207.629 316.81L210.238 316.189C210.818 316.049 211.117 315.96 211.117 315.96L210.218 316.118L207.597 316.669L197.497 318.839L160.116 326.999L34.8264 354.628L33.6994 349.192C33.7675 349.152 33.7497 349.167 33.842 349.108L35.2815 348.198C36.5315 347.418 38.3619 346.3 40.6819 345.05C43.3966 343.572 46.2461 342.356 49.1917 341.419C52.7949 340.263 56.5899 339.825 60.3617 340.13C61.3403 340.193 62.2992 340.433 63.1918 340.839C64.0469 341.25 64.7201 341.962 65.0824 342.839C65.2425 343.256 65.2996 343.706 65.249 344.15C65.1983 344.594 65.0413 345.019 64.7914 345.39C64.2869 346.106 63.6315 346.704 62.8715 347.14C61.4369 347.941 59.9091 348.562 58.3227 348.989C57.576 349.189 56.8466 349.35 56.1332 349.47C55.4791 349.632 54.7992 349.663 54.1332 349.56C53.9936 349.519 53.8638 349.45 53.7516 349.358C53.6395 349.266 53.5473 349.151 53.4808 349.022C53.4143 348.893 53.3748 348.751 53.3647 348.606C53.3546 348.461 53.3742 348.316 53.4222 348.179C53.4887 347.92 53.6134 347.681 53.7867 347.478C53.96 347.275 54.1774 347.115 54.4222 347.009C55.2639 346.726 56.1439 346.575 57.0316 346.56C57.4224 346.566 57.8097 346.486 58.166 346.326C58.5222 346.165 58.8385 345.927 59.0921 345.63C58.9459 345.745 58.7881 345.846 58.6214 345.929C58.1251 346.197 57.5753 346.351 57.012 346.38C56.1033 346.38 55.1998 346.518 54.3323 346.788C54.0631 346.906 53.8232 347.082 53.6298 347.304C53.4363 347.525 53.2941 347.787 53.2132 348.069C53.1128 348.398 53.1301 348.752 53.2621 349.069C53.3382 349.228 53.4469 349.369 53.5812 349.483C53.7155 349.596 53.8723 349.681 54.0413 349.729C54.7418 349.855 55.4605 349.834 56.1526 349.669C56.8727 349.549 57.6116 349.398 58.3616 349.198C59.979 348.776 61.5378 348.155 63.0023 347.349C63.7974 346.892 64.4806 346.263 65.0022 345.509C65.2823 345.105 65.4588 344.639 65.5164 344.151C65.5739 343.663 65.5107 343.168 65.3323 342.71C64.95 341.778 64.2381 341.02 63.3323 340.579C62.407 340.15 61.4105 339.896 60.3928 339.829C59.6326 339.768 58.8703 339.737 58.1076 339.735C55.0532 339.73 52.017 340.207 49.1115 341.149C46.1544 342.105 43.2977 343.347 40.5822 344.858C38.205 346.164 35.9061 347.607 33.6974 349.181L31.9494 340.749C32.1751 340.558 32.2528 340.495 32.8225 339.999C33.3865 339.504 33.9773 339.04 34.592 338.609C35.3996 337.98 36.2406 337.396 37.1115 336.859C42.6907 333.407 48.8899 331.077 55.3615 329.999C59.811 329.191 64.3197 328.753 68.8415 328.689C73.7115 328.579 78.9225 328.879 84.3925 329.259C89.8625 329.639 95.5625 330.179 101.562 330.429C107.727 330.781 113.91 330.554 120.031 329.749C126.14 328.905 132.162 327.53 138.031 325.64C143.731 323.79 149.132 321.788 154.222 319.788C164.412 315.708 173.492 311.819 181.322 309.099C187.483 306.875 193.801 305.111 200.222 303.82C202.492 303.34 204.282 303.19 205.492 302.97L207.332 302.679L205.521 302.849C204.311 303.049 202.512 303.18 200.232 303.65C193.795 304.891 187.462 306.626 181.291 308.839C173.441 311.539 164.342 315.41 154.162 319.47C149.072 321.51 143.672 323.509 137.982 325.289C132.114 327.18 126.09 328.552 119.982 329.39C113.877 330.195 107.71 330.423 101.562 330.07C95.6021 329.82 89.8821 329.3 84.4021 328.92C78.9221 328.54 73.7121 328.261 68.8221 328.381C64.292 328.456 59.7762 328.91 55.3221 329.74C48.8316 330.851 42.6236 333.23 37.0521 336.74C36.1796 337.286 35.3379 337.88 34.5306 338.519C33.7806 339.059 33.2306 339.529 32.7806 339.949C32.2232 340.451 32.1601 340.519 31.9427 340.722L30.0404 331.55C29.6863 329.864 29.3665 328.311 29.017 326.638C30.0782 326.583 31.869 326.476 35.1108 326.199C39.7908 325.799 46.5008 325.279 54.7908 324.199C64.5064 323.012 74.111 321.046 83.5118 318.32C89.0531 316.654 94.4674 314.593 99.7128 312.15C105.315 309.479 110.669 306.316 115.713 302.699C120.943 299.059 125.912 295.309 130.992 292.109C133.468 290.521 136.032 289.075 138.671 287.779C139.981 287.159 141.271 286.56 142.591 286.07L144.591 285.3C145.271 285.07 145.931 284.87 146.591 284.66C157.121 281.3 167.24 281.089 175.53 281.419C182.111 281.775 188.67 282.466 195.18 283.49L200.501 284.32C201.711 284.51 202.35 284.589 202.35 284.589C202.35 284.589 199.82 284.11 195.19 283.4C188.679 282.338 182.116 281.614 175.53 281.23C173.465 281.143 171.283 281.088 169.005 281.109C162.169 281.172 154.473 281.907 146.53 284.419C145.85 284.639 145.19 284.84 144.53 285.07L142.53 285.839C141.2 286.329 139.9 286.93 138.59 287.55C135.936 288.848 133.358 290.297 130.869 291.89C125.779 295.09 120.8 298.84 115.58 302.48C110.539 306.093 105.184 309.249 99.5805 311.91C94.3531 314.353 88.9556 316.415 83.4305 318.08C74.0456 320.813 64.459 322.799 54.7605 324.019C46.4805 325.079 39.7505 325.68 35.1005 326.08L29.7411 326.529C29.2583 326.568 29.3049 326.568 29.0067 326.595C28.3438 323.424 27.7083 320.372 27.0653 317.279L29.7411 317.689L31.8114 318C32.5714 318.09 33.3999 318.14 34.2899 318.22C36.0699 318.36 38.0907 318.599 40.3407 318.599L43.8602 318.679C45.0902 318.699 46.3703 318.57 47.6903 318.57C50.3303 318.53 53.1005 318.2 56.1005 317.91C62.5005 317.103 68.8224 315.765 75.0005 313.91C81.1718 311.956 87.1692 309.49 92.9305 306.539C95.5305 305.099 98.0313 303.78 100.231 302.31C101.341 301.59 102.44 300.95 103.44 300.24L106.311 298.179C108.171 296.909 109.691 295.559 111.081 294.439C111.771 293.849 112.421 293.359 113.001 292.849L114.491 291.449L116.6 289.449C117.08 288.989 117.321 288.74 117.321 288.74C117.321 288.74 117.14 288.939 116.6 289.439C116.06 289.939 115.342 290.581 114.462 291.381L112.911 292.789C112.331 293.279 111.671 293.789 110.981 294.349C109.581 295.449 108.05 296.791 106.19 298.051L103.321 300.051C102.321 300.751 101.22 301.389 100.11 302.099C97.9102 303.559 95.4114 304.859 92.8114 306.289C87.0854 309.216 81.1283 311.668 75.0004 313.619C68.7947 315.477 62.4466 316.822 56.0204 317.64C53.0704 317.93 50.2717 318.27 47.6317 318.32C46.3117 318.36 45.0414 318.449 43.8114 318.449L40.2899 318.39C38.0899 318.41 36.0699 318.17 34.2899 318.06C33.3999 317.98 32.5711 317.939 31.8211 317.859L29.7508 317.57L27.0516 317.213C26.4104 314.128 25.7328 310.891 25.1161 307.92L150.166 280.481L187.416 272.231L197.416 269.971L200.016 269.36C200.606 269.22 200.897 269.131 200.897 269.131L200.9 269.13ZM186.869 272.626C186.863 272.625 186.859 272.627 186.859 272.63C187.019 272.783 187.193 272.92 187.381 273.038C187.869 273.399 188.376 273.733 188.9 274.038C190.626 275.029 192.466 275.805 194.381 276.349C196.298 276.897 198.276 277.203 200.269 277.259C201.069 277.309 201.65 277.259 202.07 277.259C202.293 277.259 202.514 277.232 202.73 277.179C202.73 277.119 201.789 277.168 200.279 277.038C198.313 276.911 196.366 276.576 194.471 276.038C192.573 275.501 190.739 274.76 189 273.829C187.753 273.154 186.963 272.646 186.869 272.626ZM77.219 298.003C76.5583 298.038 75.8998 298.107 75.2463 298.21C72.3029 298.584 69.4564 299.51 66.8557 300.939L66.7659 300.999L66.8362 301.069C67.1572 301.388 67.55 301.625 67.9816 301.761C68.4132 301.896 68.871 301.926 69.3167 301.849C69.6263 301.806 69.9212 301.69 70.1761 301.509C69.8902 301.621 69.5907 301.696 69.2854 301.73C68.877 301.782 68.462 301.743 68.0703 301.616C67.6786 301.489 67.3199 301.277 67.0198 300.995C69.5969 299.655 72.3928 298.786 75.2757 298.429C77.2081 298.16 79.1697 298.18 81.096 298.489C81.5903 298.601 82.046 298.843 82.4163 299.189C82.5837 299.364 82.6937 299.586 82.7313 299.825C82.769 300.065 82.7327 300.31 82.6273 300.528C82.1273 301.438 80.9066 301.749 79.9066 302.149C72.8049 304.725 65.2051 305.629 57.6976 304.79C59.3566 305.083 61.0336 305.263 62.7171 305.329C68.61 305.454 74.4742 304.473 80.0061 302.438C81.0261 302.018 82.2667 301.759 82.8967 300.659C83.0277 300.387 83.0722 300.08 83.024 299.782C82.9758 299.483 82.8373 299.207 82.6271 298.989C82.2205 298.606 81.7199 298.337 81.1759 298.21C79.8677 298.004 78.5416 297.934 77.219 298.003ZM57.6976 304.79C57.2142 304.747 56.7321 304.695 56.2507 304.634L57.4069 304.778C57.5039 304.783 57.6005 304.786 57.6976 304.79ZM56.2507 304.634L55.9675 304.599L55.4675 304.55C55.7283 304.581 55.9894 304.609 56.2507 304.634ZM206.511 308.88C206.199 308.883 205.888 308.91 205.581 308.96C205.001 309.02 204.091 309.148 203.001 309.368C197.313 310.486 191.946 312.857 187.29 316.31C186.44 316.95 185.75 317.538 185.29 317.948C185.038 318.144 184.807 318.365 184.6 318.608C184.871 318.438 185.128 318.247 185.37 318.038C185.85 317.658 186.56 317.119 187.45 316.489C189.785 314.834 192.277 313.414 194.891 312.249C197.508 311.094 200.23 310.196 203.02 309.569C204.09 309.339 204.961 309.169 205.571 309.069C205.889 309.033 206.204 308.97 206.511 308.88Z" />
  <path fill="var(--color-03)" d="M155.21 298.85C154.555 298.844 153.855 298.917 153.12 299.073L146.751 300.412L149.851 315.111L153.261 314.393L152.392 310.303L155.392 309.672H155.562L159.261 313.172L162.921 312.371L158.62 308.371C159.463 307.805 160.11 306.991 160.47 306.042C160.83 305.093 160.887 304.055 160.632 303.072C160.063 300.383 158.048 298.876 155.21 298.85ZM154.634 301.787C156.069 301.78 156.945 302.513 157.222 303.813C157.562 305.413 156.712 306.601 154.632 307.041L151.86 307.621L150.78 302.502L153.552 301.912C153.942 301.83 154.303 301.789 154.634 301.787ZM138.269 302.221C137.58 302.211 136.868 302.279 136.142 302.432C131.492 303.412 128.77 307.363 129.7 311.733C130.62 316.093 134.721 318.603 139.341 317.633C143.961 316.663 146.701 312.722 145.781 308.332C145.004 304.628 141.986 302.277 138.269 302.221ZM137.361 305.45C138.487 305.352 139.61 305.664 140.524 306.328C141.439 306.991 142.084 307.962 142.341 309.063C142.5 309.673 142.531 310.31 142.433 310.933C142.335 311.556 142.11 312.152 141.771 312.684C141.432 313.216 140.988 313.672 140.465 314.025C139.942 314.377 139.352 314.618 138.732 314.733C138.105 314.863 137.458 314.864 136.83 314.736C136.203 314.607 135.609 314.352 135.084 313.985C134.559 313.618 134.114 313.148 133.777 312.604C133.44 312.059 133.218 311.452 133.125 310.818C133.031 310.185 133.068 309.539 133.233 308.92C133.398 308.301 133.688 307.723 134.085 307.22C134.481 306.717 134.976 306.301 135.54 305.996C136.103 305.692 136.723 305.506 137.361 305.45ZM122.05 305.844C121.395 305.837 120.697 305.909 119.962 306.063L113.591 307.412L116.69 322.111L120.1 321.393L119.231 317.303L122.231 316.672H122.401L126.1 320.162L129.77 319.342L125.472 315.342C126.31 314.777 126.952 313.965 127.31 313.02C127.668 312.075 127.725 311.041 127.472 310.063C126.903 307.373 124.888 305.873 122.05 305.844ZM121.473 308.787C122.908 308.78 123.785 309.513 124.061 310.813C124.401 312.413 123.552 313.592 121.472 314.032L118.7 314.622L117.62 309.493L120.391 308.913C120.781 308.83 121.142 308.789 121.473 308.787ZM106.653 309.149C105.998 309.143 105.299 309.216 104.562 309.371L98.1613 310.653L101.261 325.352L104.661 324.643L103.802 320.541L106.802 319.922H106.972L110.671 323.422L114.36 322.652L110.071 318.652C110.91 318.087 111.553 317.276 111.911 316.33C112.269 315.384 112.325 314.35 112.071 313.371C111.503 310.682 109.494 309.175 106.653 309.149ZM95.2215 311.371L84.1105 313.672L87.2121 328.371L98.6011 325.961L98.021 323.242L89.9722 324.922L89.2613 321.522L96.0816 320.082L95.521 317.432L88.7007 318.871L88.021 315.682L95.7925 314.102L95.2215 311.371ZM106.035 312.039C107.467 312.037 108.363 312.781 108.631 314.073C108.961 315.663 108.121 316.851 106.041 317.291L103.27 317.872L102.19 312.752L104.961 312.162C105.348 312.08 105.705 312.04 106.035 312.039Z" />
</svg>