<svg width="327" height="253" viewBox="0 0 327 253" fill="none" xmlns="http://www.w3.org/2000/svg">
  <defs>
    <style>
      /* Light Scheme */
      :root {
        --primary: #d70718;
      }

      /* Dark Scheme */
      @media (prefers-color-scheme: dark) {
        :root {
          --primary: #d70718;
        }
      }
    </style>
  </defs>
  <path d="M219.122 66.2155C200.666 50.0875 175.683 66.2155 151.41 100.155C127.137 134.094 115.596 119.811 94.9621 134.77C74.3283 149.728 68.8095 211.005 141.506 205.047C214.203 199.09 267.37 108.32 219.122 66.2155Z" fill="#F0F0F0" />
  <path d="M241.535 228.378C241.535 228.448 206.538 228.509 163.38 228.509C120.223 228.509 85.2097 228.448 85.2097 228.378C85.2097 228.307 120.202 228.247 163.38 228.247C206.558 228.247 241.535 228.312 241.535 228.378Z" fill="#263238" />
  <path d="M207.435 166.678C199.648 161.24 197.884 151.145 198.191 142.068C198.242 140.556 198.075 138.953 198.796 137.627C199.517 136.302 201.2 135.39 202.556 136.025C203.68 136.554 204.169 137.864 204.799 138.948C205.639 140.391 206.871 141.567 208.352 142.34C209.315 142.844 210.509 143.146 211.462 142.622C212.772 141.901 212.923 140.102 212.913 138.59C212.913 135.778 212.896 132.969 212.863 130.163C212.772 128.657 212.925 127.145 213.316 125.688C213.785 124.256 214.828 122.931 216.255 122.527C217.681 122.124 219.46 122.956 219.783 124.428C219.838 125.051 219.853 125.677 219.828 126.302C219.868 126.932 220.161 127.623 220.75 127.814C221.34 128.006 221.955 127.567 222.409 127.124C223.961 125.612 225.019 123.641 226.002 121.696C226.985 119.75 227.947 117.75 229.359 116.091C230.77 114.433 232.72 113.118 234.903 112.992C237.085 112.866 239.358 114.206 239.902 116.323C240.447 118.44 239.212 120.602 237.886 122.321C235.886 124.872 233.528 127.121 230.886 128.999C230.37 129.281 229.958 129.72 229.711 130.254C229.384 131.262 230.336 132.27 231.329 132.587C232.453 132.96 233.673 132.844 234.857 132.985C236.042 133.127 237.302 133.641 237.75 134.749C238.365 136.292 237.075 137.905 235.81 138.963C233.27 141.08 230.385 142.745 227.282 143.887C226.173 144.29 225.009 144.648 224.112 145.424C223.215 146.2 222.681 147.556 223.22 148.62C223.759 149.683 225.145 150.021 226.309 149.804C227.474 149.587 228.507 148.962 229.616 148.544C231.687 147.763 234.358 147.904 235.664 149.693C236.068 150.309 236.324 151.011 236.412 151.743C236.499 152.475 236.416 153.217 236.168 153.912C235.663 155.293 234.887 156.56 233.885 157.636C230.584 161.58 226.295 164.577 221.456 166.32C216.653 167.983 212.203 168.437 207.43 166.688" fill="var(--primary)" opacity=".8" />
  <path d="M237.685 114.237C237.685 114.237 237.639 114.287 237.539 114.378L237.09 114.776C236.697 115.129 236.117 115.643 235.387 116.323C233.315 118.247 231.391 120.325 229.631 122.538C228.507 123.934 227.343 125.516 226.103 127.235C224.863 128.954 223.583 130.808 222.313 132.779C220.959 134.857 219.719 137.007 218.598 139.22C218.014 140.374 217.5 141.579 216.97 142.809L215.408 146.563C213.349 151.293 211.555 156.134 210.035 161.063C208.811 165.097 207.968 169.236 207.515 173.427C207.222 176.255 207.175 179.103 207.374 181.939C207.455 182.947 207.53 183.718 207.601 184.242C207.631 184.494 207.651 184.696 207.672 184.842V185.049C207.65 184.983 207.635 184.916 207.626 184.847C207.601 184.701 207.571 184.504 207.53 184.252C207.44 183.748 207.344 182.952 207.253 181.944C207.01 179.103 207.027 176.245 207.304 173.406C207.728 169.198 208.553 165.039 209.768 160.988C211.275 156.044 213.064 151.191 215.126 146.452L216.728 142.713C217.258 141.488 217.777 140.273 218.366 139.114C219.495 136.895 220.745 134.739 222.111 132.658C223.401 130.642 224.702 128.818 225.926 127.114C227.151 125.41 228.336 123.818 229.454 122.427C231.232 120.22 233.182 118.157 235.286 116.258C236.032 115.588 236.626 115.084 237.03 114.746L237.498 114.368C237.556 114.318 237.618 114.274 237.685 114.237Z" fill="#263238" />
  <path d="M218.432 139.104C218.361 138.897 218.312 138.682 218.286 138.464C218.205 138.046 218.114 137.456 218.009 136.69C217.792 135.178 217.57 133.107 217.333 130.813C217.096 128.52 216.829 126.444 216.608 124.947C216.492 124.201 216.391 123.601 216.32 123.183C216.265 122.969 216.236 122.749 216.235 122.528C216.321 122.73 216.384 122.941 216.421 123.158C216.532 123.571 216.658 124.166 216.799 124.917C217.086 126.429 217.369 128.485 217.605 130.783C217.842 133.081 218.044 135.097 218.2 136.665C218.276 137.37 218.341 137.97 218.392 138.449C218.431 138.665 218.444 138.885 218.432 139.104Z" fill="#263238" />
  <path d="M237.826 135.485C237.581 135.539 237.331 135.569 237.08 135.576C236.576 135.621 235.86 135.682 234.973 135.783C233.199 135.974 230.76 136.327 228.084 136.831C225.407 137.335 223.003 137.904 221.275 138.343C220.413 138.565 219.717 138.766 219.259 138.902C219.014 138.989 218.76 139.05 218.503 139.084C218.735 138.967 218.978 138.871 219.228 138.797C219.702 138.63 220.388 138.398 221.244 138.151C222.963 137.647 225.367 137.048 228.053 136.534C230.329 136.098 232.625 135.779 234.933 135.576C235.825 135.5 236.546 135.47 237.05 135.46C237.309 135.442 237.569 135.451 237.826 135.485Z" fill="#263238" />
  <path d="M210.015 160.635C209.961 160.562 209.917 160.482 209.884 160.398L209.551 159.697C209.264 159.088 208.876 158.185 208.412 157.082C207.475 154.864 206.281 151.759 205.01 148.312C203.74 144.865 202.571 141.76 201.684 139.517C201.251 138.429 200.893 137.537 200.626 136.871L200.343 136.151C200.304 136.067 200.277 135.979 200.263 135.888C200.316 135.961 200.361 136.041 200.394 136.125L200.726 136.826C201.009 137.436 201.402 138.338 201.865 139.442C202.803 141.659 203.997 144.764 205.267 148.211C206.538 151.659 207.707 154.763 208.594 157.006C209.027 158.095 209.385 158.987 209.647 159.652C209.763 159.939 209.859 160.156 209.935 160.373C209.974 160.456 210.001 160.544 210.015 160.635Z" fill="#263238" />
  <path d="M235.759 152.334C235.679 152.38 235.592 152.416 235.502 152.44L234.757 152.692L232 153.584C229.671 154.34 226.456 155.418 222.928 156.608C219.4 157.797 216.169 158.856 213.825 159.561C212.656 159.919 211.704 160.191 211.043 160.373L210.282 160.569C210.194 160.597 210.103 160.616 210.01 160.625C210.091 160.578 210.177 160.543 210.267 160.519L211.013 160.267L213.77 159.375C216.098 158.619 219.314 157.54 222.842 156.351C226.37 155.161 229.596 154.103 231.939 153.397C233.113 153.04 234.061 152.767 234.726 152.586L235.487 152.389C235.576 152.361 235.667 152.343 235.759 152.334Z" fill="#263238" />
  <path d="M225.256 30.0788L222.661 31.0061L221.547 27.6142C219.5 21.3596 212.979 18.0382 206.986 20.15C200.994 22.2617 197.803 29.1212 199.85 35.3758L200.963 38.7677L198.358 39.7001C197.364 40.0855 196.557 40.839 196.105 41.8039C195.652 42.7688 195.589 43.8709 195.928 44.8812L203.151 66.9514C203.301 67.4515 203.55 67.9164 203.883 68.3185C204.216 68.7205 204.626 69.0515 205.09 69.2917C205.553 69.5319 206.061 69.6766 206.581 69.7169C207.102 69.7573 207.625 69.6927 208.12 69.5268L235.019 59.9055C236.025 59.5208 236.844 58.7606 237.301 57.7849C237.759 56.8093 237.821 55.6941 237.473 54.674L230.246 32.6038C230.092 32.1051 229.839 31.6424 229.503 31.2435C229.166 30.8446 228.753 30.5175 228.287 30.2818C227.821 30.0462 227.313 29.9067 226.792 29.8719C226.272 29.837 225.749 29.9073 225.256 30.0788ZM204.753 33.6068C204.202 31.9805 204.301 30.2037 205.03 28.6488C205.759 27.0939 207.061 25.8815 208.664 25.2656C209.456 24.9947 210.294 24.8861 211.129 24.9462C211.963 25.0063 212.777 25.2339 213.521 25.6154C214.266 25.9968 214.926 26.5244 215.462 27.1666C215.999 27.8087 216.4 28.5523 216.643 29.353L217.752 32.7449L205.862 36.9987L204.753 33.6068ZM219.873 53.1922L221.718 58.8269C221.752 58.9399 221.741 59.0616 221.688 59.1667C221.634 59.2718 221.542 59.3523 221.431 59.3914L218.845 60.3137C218.742 60.3422 218.632 60.3298 218.538 60.2791C218.445 60.2284 218.374 60.1432 218.341 60.0416L216.482 54.432C215.456 54.3762 214.472 54.0083 213.661 53.3778C212.851 52.7473 212.252 51.8842 211.946 50.904C211.507 49.6082 211.587 48.1931 212.169 46.9549C212.75 45.7167 213.788 44.7515 215.065 44.2613C215.696 44.0459 216.363 43.9596 217.028 44.0076C217.693 44.0556 218.341 44.2369 218.934 44.5407C219.527 44.8446 220.053 45.2647 220.48 45.776C220.907 46.2874 221.227 46.8795 221.421 47.5172C221.745 48.5128 221.772 49.5815 221.498 50.5921C221.224 51.6028 220.661 52.5117 219.878 53.2073L219.873 53.1922Z" fill="var(--primary)" opacity=".8" />
  <path d="M198.721 190.169L148.376 189.937C145.469 189.921 142.686 188.752 140.641 186.686C138.595 184.621 137.452 181.827 137.464 178.92L137.999 52.7134C138.005 51.273 138.294 49.8479 138.851 48.5195C139.408 47.1912 140.222 45.9856 141.245 44.9718C142.268 43.958 143.481 43.1557 144.815 42.6109C146.148 42.0661 147.576 41.7895 149.016 41.7968L199.356 42.0286C202.263 42.0433 205.046 43.2113 207.092 45.2761C209.139 47.3409 210.283 50.1336 210.272 53.041L209.738 179.243C209.732 180.684 209.442 182.109 208.885 183.438C208.329 184.767 207.515 185.973 206.492 186.988C205.469 188.002 204.256 188.806 202.923 189.352C201.589 189.897 200.161 190.175 198.721 190.169Z" fill="#455A64" />
  <path d="M199.28 46.368H189.523C189.204 46.3739 188.89 46.4425 188.598 46.5698C188.306 46.6971 188.042 46.8807 187.822 47.11C187.601 47.3394 187.427 47.61 187.311 47.9064C187.194 48.2028 187.138 48.5193 187.144 48.8376V50.6067C187.15 50.9248 187.093 51.241 186.977 51.5371C186.86 51.8333 186.687 52.1035 186.466 52.3325C186.245 52.5614 185.981 52.7445 185.689 52.8713C185.397 52.998 185.083 53.066 184.765 53.0712L165.744 52.9855C165.1 52.9684 164.49 52.6966 164.047 52.2297C163.604 51.7629 163.364 51.1393 163.38 50.4958V48.7267C163.396 48.0841 163.157 47.4612 162.715 46.9945C162.273 46.5279 161.664 46.2555 161.021 46.237H157.589L149.046 46.1967C147.014 46.1846 145.06 46.9781 143.612 48.4036C142.164 49.829 141.34 51.7702 141.32 53.802L140.816 176.99C140.811 177.998 141.005 178.997 141.387 179.93C141.768 180.863 142.33 181.712 143.039 182.428C143.749 183.144 144.592 183.713 145.522 184.103C146.451 184.493 147.449 184.696 148.457 184.701L198.695 184.933C199.704 184.937 200.704 184.743 201.637 184.362C202.571 183.98 203.42 183.418 204.137 182.708C204.854 181.998 205.423 181.154 205.813 180.224C206.204 179.294 206.407 178.296 206.412 177.287L206.916 54.0994C206.928 52.0618 206.13 50.1028 204.698 48.653C203.267 47.2032 201.318 46.3814 199.28 46.368Z" fill="white" />
  <path d="M162.604 82.5603H149.641V84.9392H162.604V82.5603Z" fill="var(--primary)" opacity=".8" />
  <path opacity="0.1" d="M162.604 82.5603H149.641V84.9392H162.604V82.5603Z" fill="black" />
  <path d="M200.616 97.1865C200.717 97.1762 200.817 97.1524 200.913 97.1159C201.052 97.0614 201.174 96.9686 201.263 96.8482C201.352 96.7279 201.405 96.5848 201.417 96.4355C201.417 95.6341 201.417 94.4649 201.417 92.9629C201.417 92.212 201.417 91.3703 201.417 90.4429C201.417 90.2161 201.417 89.9793 201.417 89.7424C201.45 89.5125 201.4 89.2785 201.276 89.0821C201.206 88.988 201.116 88.9112 201.012 88.8579C200.908 88.8045 200.793 88.7761 200.676 88.7747H199.89H192.607L150.452 88.6185C150.345 88.6166 150.238 88.6409 150.141 88.6891C150.045 88.7374 149.961 88.8082 149.898 88.8957C149.776 89.0928 149.73 89.3272 149.767 89.5559C149.767 90.0599 149.767 90.5639 149.767 91.0679C149.767 92.0759 149.767 93.0839 149.767 94.0919C149.767 94.5959 149.767 95.0999 149.767 95.6039C149.746 95.8386 149.746 96.0748 149.767 96.3095C149.794 96.4101 149.843 96.5034 149.911 96.582C149.979 96.6606 150.064 96.7226 150.16 96.7631C150.259 96.8026 150.366 96.8215 150.473 96.8185H153.038L164.232 96.879L183.182 96.9949L195.959 97.0957L199.431 97.1361H200.333C200.54 97.1361 200.641 97.1361 200.641 97.1361H200.333H199.431H195.959H183.182L164.232 97.0756L153.038 97.0302H150.473C150.331 97.0359 150.191 97.0119 150.059 96.9597C149.927 96.903 149.809 96.8168 149.714 96.7076C149.62 96.5985 149.552 96.4692 149.515 96.3297C149.486 96.1974 149.476 96.0616 149.485 95.9265V95.5535C149.485 95.0495 149.485 94.5455 149.485 94.0415C149.485 93.0335 149.485 92.0255 149.485 91.0175C149.485 90.5135 149.485 90.0095 149.485 89.5055C149.475 89.3713 149.475 89.2365 149.485 89.1023C149.504 88.954 149.561 88.8133 149.651 88.6941C149.738 88.5724 149.853 88.4736 149.987 88.406C150.12 88.3384 150.268 88.3041 150.417 88.306L192.572 88.5378L199.855 88.5882H200.641C200.779 88.5883 200.916 88.6218 201.039 88.6859C201.161 88.7499 201.267 88.8426 201.346 88.9561C201.489 89.1753 201.546 89.4387 201.508 89.697C201.508 89.9339 201.508 90.1708 201.508 90.3976C201.508 91.3149 201.508 92.1565 201.508 92.9176C201.508 94.4296 201.472 95.5888 201.462 96.3952C201.45 96.5502 201.394 96.6985 201.3 96.8226C201.206 96.9467 201.079 97.0415 200.933 97.0957C200.838 97.1548 200.728 97.1863 200.616 97.1865Z" fill="#E0E0E0" />
  <path d="M176.827 91.7332H153.119V93.9558H176.827V91.7332Z" fill="var(--primary)" opacity=".8" />
  <path opacity="0.2" d="M176.827 91.7332H153.119V93.9558H176.827V91.7332Z" fill="white" />
  <path d="M162.513 104.262H149.55V106.641H162.513V104.262Z" fill="var(--primary)" opacity=".8" />
  <path opacity="0.1" d="M162.513 104.262H149.55V106.641H162.513V104.262Z" fill="black" />
  <path d="M200.288 118.889C200.39 118.876 200.491 118.857 200.59 118.833C200.731 118.788 200.861 118.714 200.97 118.615C201.08 118.516 201.167 118.394 201.225 118.259C201.305 118.055 201.336 117.836 201.316 117.618C201.316 117.377 201.316 117.114 201.316 116.822C201.316 116.237 201.316 115.572 201.316 114.806V111.606C201.34 111.374 201.289 111.141 201.17 110.94C201.046 110.735 200.85 110.583 200.621 110.512C200.37 110.467 200.114 110.454 199.86 110.472H192.607L150.599 110.315C150.373 110.316 150.155 110.399 149.985 110.548C149.815 110.697 149.706 110.903 149.676 111.127C149.676 111.606 149.676 112.135 149.676 112.639C149.676 113.647 149.676 114.655 149.676 115.663C149.676 116.167 149.676 116.671 149.676 117.175C149.658 117.41 149.668 117.647 149.707 117.881C149.769 118.085 149.899 118.262 150.074 118.385C150.261 118.503 150.479 118.559 150.699 118.546H151.4H152.857L164.01 118.601L182.895 118.717L195.626 118.818L199.088 118.858H199.991H200.293H199.991H199.088H195.626H182.895L164 118.838L152.846 118.798H150.654C150.381 118.814 150.111 118.741 149.883 118.591C149.654 118.432 149.486 118.199 149.409 117.931C149.364 117.675 149.35 117.414 149.369 117.155C149.369 116.651 149.369 116.147 149.369 115.643C149.369 114.635 149.369 113.627 149.369 112.619C149.369 112.115 149.369 111.611 149.369 111.107C149.406 110.819 149.546 110.554 149.764 110.362C149.982 110.17 150.263 110.064 150.553 110.063L192.562 110.295L199.814 110.351C200.084 110.334 200.355 110.353 200.621 110.406C200.882 110.492 201.103 110.671 201.241 110.91C201.371 111.132 201.427 111.39 201.402 111.646C201.402 111.883 201.402 112.115 201.402 112.347C201.402 113.259 201.402 114.095 201.402 114.867C201.402 115.638 201.402 116.288 201.402 116.883C201.402 117.17 201.402 117.437 201.402 117.684C201.42 117.909 201.384 118.136 201.296 118.344C201.231 118.483 201.136 118.607 201.018 118.706C200.901 118.805 200.764 118.878 200.616 118.919C200.505 118.928 200.395 118.918 200.288 118.889Z" fill="#E0E0E0" />
  <path d="M162.417 126.902H149.455V129.281H162.417V126.902Z" fill="var(--primary)" opacity=".8" />
  <path opacity="0.1" d="M162.417 126.902H149.455V129.281H162.417V126.902Z" fill="black" />
  <path d="M200.187 141.523C200.289 141.511 200.39 141.493 200.49 141.468C200.63 141.423 200.759 141.35 200.868 141.251C200.978 141.153 201.065 141.033 201.125 140.898C201.204 140.695 201.235 140.476 201.215 140.258C201.215 140.011 201.215 139.754 201.215 139.457C201.215 138.877 201.215 138.207 201.215 137.441V134.241C201.239 134.009 201.188 133.776 201.069 133.575C200.942 133.374 200.747 133.224 200.52 133.152C200.269 133.105 200.013 133.09 199.759 133.107H192.506L150.498 132.95C150.272 132.951 150.054 133.033 149.884 133.183C149.715 133.332 149.605 133.538 149.576 133.762C149.576 134.266 149.576 134.77 149.576 135.274C149.576 136.282 149.576 137.29 149.576 138.298C149.576 138.802 149.576 139.306 149.576 139.81C149.557 140.044 149.567 140.279 149.606 140.51C149.666 140.716 149.796 140.894 149.974 141.014C150.159 141.135 150.378 141.192 150.599 141.176H152.791L163.945 141.236L182.829 141.352L195.56 141.453L199.023 141.493H199.925C200.127 141.493 200.228 141.493 200.228 141.493C200.228 141.493 200.127 141.493 199.925 141.493H199.023H195.56H182.829L163.945 141.438L152.791 141.392H150.599C150.326 141.411 150.055 141.338 149.828 141.186C149.598 141.027 149.431 140.794 149.354 140.525C149.309 140.269 149.295 140.009 149.313 139.749C149.313 139.245 149.313 138.741 149.313 138.237C149.313 137.229 149.313 136.221 149.313 135.213C149.313 134.709 149.313 134.205 149.313 133.676C149.349 133.388 149.489 133.123 149.706 132.931C149.923 132.739 150.203 132.633 150.493 132.633L192.501 132.865L199.754 132.92C200.024 132.904 200.295 132.922 200.56 132.976C200.822 133.061 201.043 133.241 201.18 133.48C201.31 133.702 201.367 133.959 201.341 134.215C201.341 134.452 201.341 134.689 201.341 134.916C201.341 135.828 201.341 136.665 201.341 137.436C201.341 138.207 201.341 138.857 201.341 139.452C201.341 139.739 201.341 140.006 201.341 140.253C201.361 140.479 201.324 140.705 201.236 140.914C201.17 141.053 201.075 141.176 200.958 141.275C200.841 141.374 200.703 141.447 200.555 141.488C200.437 141.529 200.311 141.541 200.187 141.523Z" fill="#E0E0E0" />
  <path d="M176.736 113.435H153.028V115.658H176.736V113.435Z" fill="var(--primary)" opacity=".8" />
  <path opacity="0.2" d="M176.736 113.435H153.028V115.658H176.736V113.435Z" fill="white" />
  <path d="M155.185 137.411C155.17 137.613 155.096 137.807 154.972 137.968C154.848 138.129 154.679 138.25 154.487 138.316C154.295 138.383 154.088 138.391 153.891 138.34C153.694 138.289 153.516 138.182 153.38 138.031C153.243 137.881 153.154 137.693 153.123 137.492C153.093 137.291 153.121 137.086 153.206 136.901C153.291 136.716 153.428 136.561 153.601 136.453C153.774 136.346 153.974 136.291 154.177 136.297C154.458 136.312 154.721 136.438 154.91 136.647C155.099 136.855 155.197 137.13 155.185 137.411Z" fill="var(--primary)" opacity=".8" />
  <path d="M158.395 137.426C158.405 137.568 158.386 137.71 158.338 137.845C158.291 137.979 158.216 138.102 158.119 138.206C158.022 138.31 157.904 138.393 157.774 138.45C157.643 138.507 157.502 138.536 157.36 138.536C157.217 138.536 157.076 138.507 156.946 138.45C156.815 138.393 156.698 138.31 156.6 138.206C156.503 138.102 156.429 137.979 156.381 137.845C156.334 137.71 156.314 137.568 156.324 137.426C156.314 137.284 156.334 137.141 156.381 137.007C156.429 136.873 156.503 136.749 156.6 136.645C156.698 136.541 156.815 136.458 156.946 136.401C157.076 136.344 157.217 136.315 157.36 136.315C157.502 136.315 157.643 136.344 157.774 136.401C157.904 136.458 158.022 136.541 158.119 136.645C158.216 136.749 158.291 136.873 158.338 137.007C158.386 137.141 158.405 137.284 158.395 137.426Z" fill="var(--primary)" opacity=".8" />
  <path d="M161.611 137.441C161.596 137.644 161.522 137.838 161.398 137.999C161.274 138.16 161.105 138.281 160.913 138.347C160.721 138.413 160.514 138.421 160.317 138.37C160.12 138.32 159.942 138.212 159.806 138.062C159.669 137.911 159.58 137.723 159.549 137.522C159.519 137.322 159.547 137.116 159.632 136.931C159.717 136.747 159.854 136.591 160.027 136.483C160.2 136.376 160.4 136.322 160.603 136.327C160.883 136.344 161.146 136.47 161.334 136.678C161.523 136.886 161.622 137.16 161.611 137.441Z" fill="var(--primary)" opacity=".8" />
  <path d="M164.822 137.456C164.807 137.659 164.733 137.853 164.609 138.014C164.484 138.175 164.316 138.296 164.124 138.362C163.931 138.428 163.724 138.436 163.527 138.385C163.33 138.335 163.153 138.227 163.016 138.077C162.88 137.926 162.791 137.739 162.76 137.538C162.729 137.337 162.758 137.131 162.843 136.946C162.928 136.762 163.065 136.606 163.237 136.499C163.41 136.391 163.61 136.337 163.814 136.342C164.094 136.359 164.356 136.485 164.545 136.693C164.733 136.902 164.833 137.175 164.822 137.456Z" fill="var(--primary)" opacity=".8" />
  <path d="M168.032 137.466C168.018 137.669 167.945 137.864 167.821 138.025C167.698 138.187 167.529 138.309 167.337 138.376C167.145 138.443 166.937 138.452 166.74 138.401C166.543 138.351 166.365 138.244 166.228 138.094C166.091 137.943 166.001 137.755 165.97 137.554C165.939 137.353 165.968 137.147 166.052 136.962C166.137 136.777 166.275 136.622 166.447 136.514C166.62 136.406 166.821 136.352 167.024 136.357C167.303 136.374 167.565 136.5 167.753 136.707C167.942 136.914 168.042 137.186 168.032 137.466Z" fill="var(--primary)" opacity=".8" />
  <path d="M171.247 137.481C171.234 137.683 171.161 137.877 171.039 138.038C170.917 138.199 170.75 138.321 170.559 138.389C170.368 138.457 170.162 138.467 169.965 138.419C169.768 138.371 169.59 138.266 169.452 138.118C169.314 137.97 169.222 137.785 169.188 137.585C169.154 137.386 169.179 137.181 169.26 136.995C169.341 136.81 169.475 136.652 169.644 136.541C169.814 136.43 170.012 136.372 170.214 136.372C170.498 136.383 170.766 136.505 170.96 136.713C171.154 136.921 171.257 137.197 171.247 137.481Z" fill="var(--primary)" opacity=".8" />
  <path d="M174.458 137.496C174.468 137.638 174.448 137.781 174.401 137.915C174.353 138.049 174.279 138.173 174.182 138.277C174.084 138.381 173.967 138.464 173.836 138.521C173.706 138.578 173.565 138.607 173.422 138.607C173.28 138.607 173.139 138.578 173.008 138.521C172.878 138.464 172.76 138.381 172.663 138.277C172.566 138.173 172.491 138.049 172.444 137.915C172.396 137.781 172.377 137.638 172.387 137.496C172.377 137.354 172.396 137.212 172.444 137.077C172.491 136.943 172.566 136.82 172.663 136.716C172.76 136.612 172.878 136.529 173.008 136.472C173.139 136.415 173.28 136.386 173.422 136.386C173.565 136.386 173.706 136.415 173.836 136.472C173.967 136.529 174.084 136.612 174.182 136.716C174.279 136.82 174.353 136.943 174.401 137.077C174.448 137.212 174.468 137.354 174.458 137.496Z" fill="var(--primary)" opacity=".8" />
  <path d="M177.668 137.511C177.655 137.713 177.582 137.907 177.46 138.068C177.337 138.23 177.171 138.352 176.98 138.419C176.789 138.487 176.583 138.497 176.386 138.449C176.189 138.401 176.011 138.297 175.873 138.149C175.735 138 175.643 137.815 175.609 137.616C175.575 137.416 175.6 137.211 175.681 137.025C175.762 136.84 175.896 136.682 176.065 136.571C176.235 136.461 176.433 136.402 176.635 136.403C176.919 136.413 177.187 136.536 177.381 136.744C177.575 136.951 177.678 137.227 177.668 137.511Z" fill="var(--primary)" opacity=".8" />
  <path d="M180.879 137.527C180.865 137.73 180.792 137.924 180.668 138.086C180.545 138.248 180.376 138.369 180.184 138.436C179.992 138.503 179.784 138.512 179.587 138.462C179.39 138.412 179.212 138.305 179.075 138.154C178.938 138.004 178.848 137.816 178.817 137.615C178.786 137.414 178.815 137.208 178.899 137.023C178.984 136.838 179.121 136.682 179.294 136.574C179.467 136.467 179.667 136.412 179.871 136.418C180.15 136.435 180.412 136.56 180.6 136.767C180.789 136.974 180.889 137.247 180.879 137.527Z" fill="var(--primary)" opacity=".8" />
  <g opacity="0.2">
    <path d="M155.185 137.411C155.17 137.613 155.096 137.807 154.972 137.968C154.848 138.129 154.679 138.25 154.487 138.316C154.295 138.383 154.088 138.391 153.891 138.34C153.694 138.289 153.516 138.182 153.38 138.031C153.243 137.881 153.154 137.693 153.123 137.492C153.093 137.291 153.121 137.086 153.206 136.901C153.291 136.716 153.428 136.561 153.601 136.453C153.774 136.346 153.974 136.291 154.177 136.297C154.458 136.312 154.721 136.438 154.91 136.647C155.099 136.855 155.197 137.13 155.185 137.411Z" fill="white" />
    <path d="M158.395 137.426C158.405 137.568 158.386 137.71 158.338 137.845C158.291 137.979 158.216 138.102 158.119 138.206C158.022 138.31 157.904 138.393 157.774 138.45C157.643 138.507 157.502 138.536 157.36 138.536C157.217 138.536 157.076 138.507 156.946 138.45C156.815 138.393 156.698 138.31 156.6 138.206C156.503 138.102 156.429 137.979 156.381 137.845C156.334 137.71 156.314 137.568 156.324 137.426C156.314 137.284 156.334 137.141 156.381 137.007C156.429 136.873 156.503 136.749 156.6 136.645C156.698 136.541 156.815 136.458 156.946 136.401C157.076 136.344 157.217 136.315 157.36 136.315C157.502 136.315 157.643 136.344 157.774 136.401C157.904 136.458 158.022 136.541 158.119 136.645C158.216 136.749 158.291 136.873 158.338 137.007C158.386 137.141 158.405 137.284 158.395 137.426Z" fill="white" />
    <path d="M161.611 137.441C161.596 137.644 161.522 137.838 161.398 137.999C161.274 138.16 161.105 138.281 160.913 138.347C160.721 138.413 160.514 138.421 160.317 138.37C160.12 138.32 159.942 138.212 159.806 138.062C159.669 137.911 159.58 137.723 159.549 137.522C159.519 137.322 159.547 137.116 159.632 136.931C159.717 136.747 159.854 136.591 160.027 136.483C160.2 136.376 160.4 136.322 160.603 136.327C160.883 136.344 161.146 136.47 161.334 136.678C161.523 136.886 161.622 137.16 161.611 137.441Z" fill="white" />
    <path d="M164.822 137.456C164.807 137.659 164.733 137.853 164.609 138.014C164.484 138.175 164.316 138.296 164.124 138.362C163.931 138.428 163.724 138.436 163.527 138.385C163.33 138.335 163.153 138.227 163.016 138.077C162.88 137.926 162.791 137.739 162.76 137.538C162.729 137.337 162.758 137.131 162.843 136.946C162.928 136.762 163.065 136.606 163.237 136.499C163.41 136.391 163.61 136.337 163.814 136.342C164.094 136.359 164.356 136.485 164.545 136.693C164.733 136.902 164.833 137.175 164.822 137.456Z" fill="white" />
    <path d="M168.032 137.466C168.018 137.669 167.945 137.864 167.821 138.025C167.698 138.187 167.529 138.309 167.337 138.376C167.145 138.443 166.937 138.452 166.74 138.401C166.543 138.351 166.365 138.244 166.228 138.094C166.091 137.943 166.001 137.755 165.97 137.554C165.939 137.353 165.968 137.147 166.052 136.962C166.137 136.777 166.275 136.622 166.447 136.514C166.62 136.406 166.821 136.352 167.024 136.357C167.303 136.374 167.565 136.5 167.753 136.707C167.942 136.914 168.042 137.186 168.032 137.466Z" fill="white" />
    <path d="M171.247 137.481C171.234 137.683 171.161 137.877 171.039 138.038C170.917 138.199 170.75 138.321 170.559 138.389C170.368 138.457 170.162 138.467 169.965 138.419C169.768 138.371 169.59 138.266 169.452 138.118C169.314 137.97 169.222 137.785 169.188 137.585C169.154 137.386 169.179 137.181 169.26 136.995C169.341 136.81 169.475 136.652 169.644 136.541C169.814 136.43 170.012 136.372 170.214 136.372C170.498 136.383 170.766 136.505 170.96 136.713C171.154 136.921 171.257 137.197 171.247 137.481Z" fill="white" />
    <path d="M174.458 137.496C174.468 137.638 174.448 137.781 174.401 137.915C174.353 138.049 174.279 138.173 174.182 138.277C174.084 138.381 173.967 138.464 173.836 138.521C173.706 138.578 173.565 138.607 173.422 138.607C173.28 138.607 173.139 138.578 173.008 138.521C172.878 138.464 172.76 138.381 172.663 138.277C172.566 138.173 172.491 138.049 172.444 137.915C172.396 137.781 172.377 137.638 172.387 137.496C172.377 137.354 172.396 137.212 172.444 137.077C172.491 136.943 172.566 136.82 172.663 136.716C172.76 136.612 172.878 136.529 173.008 136.472C173.139 136.415 173.28 136.386 173.422 136.386C173.565 136.386 173.706 136.415 173.836 136.472C173.967 136.529 174.084 136.612 174.182 136.716C174.279 136.82 174.353 136.943 174.401 137.077C174.448 137.212 174.468 137.354 174.458 137.496Z" fill="white" />
    <path d="M177.668 137.511C177.655 137.713 177.582 137.907 177.46 138.068C177.337 138.23 177.171 138.352 176.98 138.419C176.789 138.487 176.583 138.497 176.386 138.449C176.189 138.401 176.011 138.297 175.873 138.149C175.735 138 175.643 137.815 175.609 137.616C175.575 137.416 175.6 137.211 175.681 137.025C175.762 136.84 175.896 136.682 176.065 136.571C176.235 136.461 176.433 136.402 176.635 136.403C176.919 136.413 177.187 136.536 177.381 136.744C177.575 136.951 177.678 137.227 177.668 137.511Z" fill="white" />
    <path d="M180.879 137.526C180.865 137.729 180.792 137.924 180.668 138.086C180.545 138.247 180.376 138.369 180.184 138.436C179.992 138.503 179.784 138.512 179.587 138.462C179.39 138.411 179.212 138.304 179.075 138.154C178.938 138.003 178.848 137.816 178.817 137.615C178.786 137.414 178.815 137.208 178.899 137.023C178.984 136.838 179.121 136.682 179.294 136.574C179.467 136.467 179.667 136.412 179.871 136.418C180.15 136.435 180.412 136.56 180.6 136.767C180.789 136.974 180.889 137.247 180.879 137.526Z" fill="white" />
  </g>
  <path d="M176.318 64.7691C176.668 64.6149 176.965 64.3612 177.172 64.0395C177.379 63.7178 177.487 63.3423 177.482 62.9597C177.495 62.7111 177.457 62.4623 177.371 62.2287C177.285 61.9951 177.152 61.7815 176.981 61.6008C176.809 61.4202 176.603 61.2763 176.374 61.178C176.145 61.0797 175.899 61.0291 175.65 61.0291C175.401 61.0291 175.154 61.0797 174.926 61.178C174.697 61.2763 174.491 61.4202 174.319 61.6008C174.148 61.7815 174.015 61.9951 173.929 62.2287C173.843 62.4623 173.805 62.7111 173.818 62.9597C173.81 63.3461 173.917 63.7261 174.125 64.0517C174.333 64.3773 174.633 64.634 174.987 64.7893C172.165 65.2126 172.291 68.2769 172.291 68.2769L178.964 68.3072C178.964 68.3072 179.12 65.1874 176.318 64.7691Z" fill="var(--primary)" opacity=".8" />
  <path opacity="0.1" d="M176.318 64.7691C176.668 64.6149 176.965 64.3612 177.172 64.0395C177.379 63.7178 177.487 63.3423 177.482 62.9597C177.495 62.7111 177.457 62.4623 177.371 62.2287C177.285 61.9951 177.152 61.7815 176.981 61.6008C176.809 61.4202 176.603 61.2763 176.374 61.178C176.145 61.0797 175.899 61.0291 175.65 61.0291C175.401 61.0291 175.154 61.0797 174.926 61.178C174.697 61.2763 174.491 61.4202 174.319 61.6008C174.148 61.7815 174.015 61.9951 173.929 62.2287C173.843 62.4623 173.805 62.7111 173.818 62.9597C173.81 63.3461 173.917 63.7261 174.125 64.0517C174.333 64.3773 174.633 64.634 174.987 64.7893C172.165 65.2126 172.291 68.2769 172.291 68.2769L178.964 68.3072C178.964 68.3072 179.12 65.1874 176.318 64.7691Z" fill="black" />
  <path d="M187.149 70.2424H163.365V73.085H187.149V70.2424Z" fill="var(--primary)" opacity=".8" />
  <path opacity="0.2" d="M187.149 70.2424H163.365V73.085H187.149V70.2424Z" fill="white" />
  <path d="M99.7249 85.0147H99.488L98.8025 85.0651C98.4316 85.0874 98.0627 85.1362 97.6988 85.2113C97.463 85.2444 97.2292 85.2898 96.9982 85.3473L96.217 85.564C94.8874 85.972 93.6329 86.5933 92.5025 87.4036C91.0091 88.4876 89.7621 89.8755 88.8435 91.476C88.3036 92.3985 87.8739 93.3814 87.5633 94.4042C87.237 95.5159 87.0491 96.6636 87.0039 97.8213C86.9739 98.4295 86.984 99.039 87.0341 99.6458C87.0341 99.9532 87.1198 100.261 87.1601 100.573C87.194 100.888 87.253 101.2 87.3365 101.506C87.7897 103.528 88.7093 105.417 90.0219 107.021C91.3345 108.624 93.0037 109.9 94.8965 110.744C96.2665 111.335 97.7348 111.665 99.2259 111.717C100.766 111.801 102.308 111.58 103.762 111.066L104.205 110.9H104.266L104.316 110.93L110.672 114.156L110.485 114.317C109.805 112.211 109.15 110.169 108.515 108.209V108.133L108.57 108.078C110.112 106.525 111.256 104.623 111.907 102.534C112.495 100.624 112.667 98.6092 112.411 96.6268C112.182 94.8651 111.616 93.1641 110.742 91.6171C109.989 90.2882 109.018 89.0955 107.869 88.0891C106.922 87.2925 105.873 86.6248 104.75 86.1033C103.9 85.7369 103.015 85.4582 102.109 85.2717L101.101 85.1054L100.37 85.05L99.9265 85.0197H99.7753C99.8255 85.0142 99.8762 85.0142 99.9265 85.0197H100.375L101.106 85.05L102.114 85.1961C103.031 85.369 103.928 85.6375 104.79 85.9975C105.932 86.5127 107 87.1789 107.965 87.9782C109.135 88.9802 110.127 90.1731 110.899 91.5062C111.797 93.0698 112.381 94.7939 112.617 96.5815C112.895 98.5944 112.735 100.644 112.148 102.589C111.494 104.722 110.332 106.664 108.762 108.249L108.792 108.118C109.427 110.079 110.087 112.12 110.773 114.221L110.868 114.529L110.581 114.383L104.226 111.162H104.336L103.883 111.329C102.401 111.85 100.83 112.076 99.2612 111.994C97.7379 111.936 96.2389 111.594 94.8411 110.986C92.1748 109.844 89.9564 107.859 88.526 105.336C87.8677 104.171 87.387 102.914 87.0997 101.606C87.021 101.293 86.9621 100.975 86.9233 100.654C86.8829 100.336 86.8174 100.024 86.8023 99.7113C86.6659 97.918 86.8554 96.1148 87.3617 94.3891C87.68 93.3522 88.1217 92.3572 88.6772 91.4256C89.6177 89.8106 90.8907 88.4139 92.4118 87.328C93.5608 86.5156 94.8363 85.8991 96.1868 85.5036L96.9781 85.302C97.2109 85.2479 97.4465 85.2059 97.6837 85.176C98.0514 85.1079 98.4237 85.0674 98.7975 85.055L99.488 85.0298C99.5665 85.0192 99.6456 85.0142 99.7249 85.0147Z" fill="var(--primary)" opacity=".8" />
  <path d="M102.598 96.7679H101.665L99.6492 93.9354V92.0756C99.6492 92.0756 98.2078 91.9849 98.3792 94.4192C98.5505 96.8535 98.3792 96.2336 98.3792 96.2336C98.3792 96.2336 95.3199 96.2336 95.0679 96.5108C94.8159 96.788 94.8008 99.7415 94.7655 101.39C94.7462 101.787 94.8602 102.179 95.0894 102.504C95.3186 102.829 95.6498 103.069 96.0305 103.184C96.1372 103.213 96.2474 103.229 96.3581 103.229C97.1242 103.229 101.02 102.609 101.02 102.609H102.628L102.598 96.7679Z" fill="var(--primary)" opacity=".8" />
  <path d="M105.264 96.269L104.689 102.64H103.097V96.4001L105.264 96.269Z" fill="var(--primary)" opacity=".8" />
  <path d="M124.26 225.963V221.654L116.533 221.599L116.468 228.115L116.947 228.151C119.078 228.287 127.793 228.488 129.224 228.045C130.817 227.551 124.26 225.963 124.26 225.963Z" fill="var(--primary)" opacity=".8" />
  <path d="M129.405 227.642C129.405 227.712 126.512 227.773 122.949 227.773C119.386 227.773 116.493 227.712 116.493 227.642C116.493 227.571 119.386 227.51 122.949 227.51C126.512 227.51 129.405 227.571 129.405 227.642Z" fill="#263238" />
  <path d="M124.396 226.845C124.33 226.81 124.396 226.583 124.552 226.341C124.708 226.099 124.92 225.999 124.97 226.049C125.021 226.099 124.915 226.291 124.764 226.498C124.612 226.704 124.461 226.881 124.396 226.845Z" fill="#263238" />
  <path d="M124.89 227.127C124.819 227.127 124.854 226.845 125.006 226.578C125.157 226.311 125.358 226.15 125.414 226.19C125.469 226.23 125.378 226.457 125.237 226.694C125.096 226.931 124.955 227.153 124.89 227.127Z" fill="#263238" />
  <path d="M118.821 227.621C118.791 227.621 118.675 227.531 118.509 227.339C118.306 227.093 118.08 226.867 117.834 226.664C117.592 226.47 117.303 226.344 116.997 226.296C116.76 226.266 116.609 226.296 116.594 226.266C116.579 226.235 116.725 226.13 117.002 226.109C117.368 226.102 117.725 226.223 118.01 226.452C118.277 226.67 118.503 226.935 118.675 227.233C118.791 227.455 118.852 227.601 118.821 227.621Z" fill="#263238" />
  <path d="M124.421 226.034C124.456 226.094 124.325 226.246 124.103 226.326C123.882 226.407 123.685 226.377 123.675 226.326C123.665 226.276 123.821 226.17 124.013 226.099C124.204 226.029 124.381 225.973 124.421 226.034Z" fill="#263238" />
  <path d="M124.3 225.616C124.3 225.691 124.098 225.752 123.836 225.757C123.574 225.762 123.368 225.701 123.373 225.631C123.378 225.56 123.584 225.495 123.836 225.49C124.088 225.485 124.29 225.545 124.3 225.616Z" fill="#263238" />
  <path d="M143.286 225.963V221.654L135.559 221.599L135.494 228.05L135.973 228.085C138.104 228.221 146.824 228.488 148.25 228.045C149.843 227.551 143.286 225.963 143.286 225.963Z" fill="var(--primary)" opacity=".8" />
  <path d="M148.431 227.652C148.431 227.722 145.544 227.783 141.975 227.783C138.407 227.783 135.524 227.722 135.524 227.652C135.524 227.581 138.412 227.521 141.975 227.521C145.538 227.521 148.431 227.581 148.431 227.652Z" fill="#263238" />
  <path d="M143.422 226.845C143.361 226.81 143.422 226.583 143.578 226.341C143.734 226.099 143.946 225.999 143.996 226.049C144.047 226.099 143.941 226.291 143.79 226.498C143.638 226.704 143.487 226.881 143.422 226.845Z" fill="#263238" />
  <path d="M143.916 227.127C143.85 227.127 143.88 226.845 144.037 226.578C144.193 226.311 144.389 226.15 144.445 226.19C144.5 226.23 144.404 226.457 144.263 226.694C144.122 226.931 143.986 227.153 143.916 227.127Z" fill="#263238" />
  <path d="M137.847 227.621C137.817 227.621 137.706 227.531 137.535 227.339C137.332 227.093 137.106 226.867 136.86 226.664C136.618 226.47 136.329 226.344 136.023 226.296C135.791 226.266 135.635 226.296 135.62 226.266C135.605 226.235 135.751 226.13 136.028 226.109C136.394 226.102 136.751 226.223 137.036 226.452C137.305 226.669 137.53 226.934 137.701 227.233C137.817 227.455 137.878 227.601 137.847 227.621Z" fill="#263238" />
  <path d="M143.447 226.034C143.482 226.094 143.351 226.246 143.129 226.326C142.908 226.407 142.711 226.377 142.701 226.326C142.691 226.276 142.847 226.17 143.039 226.099C143.23 226.029 143.407 225.973 143.447 226.034Z" fill="#263238" />
  <path d="M143.336 225.616C143.336 225.691 143.134 225.752 142.872 225.757C142.61 225.762 142.409 225.701 142.414 225.631C142.419 225.56 142.62 225.495 142.872 225.49C143.124 225.485 143.336 225.545 143.336 225.616Z" fill="#263238" />
  <path d="M171.752 97.9975C171.55 97.7909 171.051 97.8917 171.051 97.8917C171.101 97.6015 171.101 97.3049 171.051 97.0147C170.96 96.7325 170.325 96.7879 170.325 96.7879C170.296 96.5503 170.296 96.3099 170.325 96.0722C170.33 96.0196 170.319 95.9666 170.293 95.9206C170.267 95.8746 170.227 95.8378 170.179 95.8152C169.879 95.6927 169.556 95.6343 169.232 95.6439C168.843 95.3667 170.416 93.1642 171.001 92.4586C171.585 91.753 171.479 91.2036 170.96 91.2036C170.602 91.2036 168.768 93.3204 168.203 94.0311C167.639 94.7417 166.142 96.7174 166.092 95.1399C166.041 93.5623 165.406 92.3729 165.008 92.1713C164.61 91.9697 164.186 92.4434 164.403 92.8819C164.594 93.3801 164.712 93.9027 164.756 94.4342C164.811 94.8576 164.792 95.2873 164.701 95.7043C164.533 96.4803 164.306 97.2419 164.02 97.9824H163.98C163.98 97.9824 152.983 108.531 152.186 109.282C151.476 109.957 137.182 108.481 134.314 108.178C133.34 108.036 132.356 107.968 131.371 107.977C130.126 108.032 129.904 108.209 128.665 108.224C125.533 108.258 122.41 108.533 119.32 109.045C117.922 109.283 116.615 109.9 115.543 110.83C114.471 111.76 113.675 112.966 113.242 114.317C110.354 123.339 103.812 144.693 102.658 156.688C101.786 158.27 100.999 159.897 100.299 161.562C99.488 163.77 99.6846 163.845 99.9567 163.896C100.693 164.032 101.529 160.07 101.842 161.028C102.154 161.985 100.254 165.75 101.025 165.861C102.033 166.002 102.835 161.829 102.93 161.496C103.026 161.164 103.525 161.27 103.434 161.582C103.288 162.026 101.872 166.728 102.86 166.879C103.404 166.96 103.465 165.967 103.465 165.967C103.465 165.967 104.473 161.466 104.931 161.557C105.39 161.648 104.901 164.304 104.669 165.191C104.437 166.078 104.76 166.526 105.234 166.31C105.556 166.158 106.327 163.462 106.539 162.585C106.751 161.708 107.28 159.279 107.99 160.685C108.701 162.091 109.78 162.908 110.223 162.928C110.323 162.916 110.417 162.875 110.494 162.81C110.57 162.744 110.625 162.657 110.652 162.56C110.678 162.463 110.675 162.36 110.643 162.265C110.61 162.17 110.55 162.087 110.47 162.026C110.089 161.653 109.761 161.229 109.497 160.766C109.262 160.405 109.092 160.006 108.993 159.586C108.79 158.75 108.672 157.896 108.641 157.036L108.56 156.532C109.689 150.943 112.94 134.538 117.632 124.059L119.557 128.021L120.394 130.954L115.263 143.62L137.147 143.332L133.881 130.763L137.847 117.659C142.136 117.754 153.149 117.916 154.983 117.084C157.292 116.076 169.232 100.996 169.232 100.996C170.01 100.392 170.755 99.7455 171.464 99.061C171.464 99.061 172.19 98.4511 171.752 97.9975Z" fill="#FFBE9D" />
  <path d="M114.301 134.261C114.936 132.093 118.197 121.378 118.197 121.378C118.197 121.378 119.799 130.113 119.376 131.166C118.986 132.068 118.526 132.937 118 133.767C114.301 139.396 114.784 142.214 114.784 142.214L137.137 141.533C137.187 138.408 135.338 131.141 134.955 129.982C134.571 128.822 135.847 125.027 135.847 125.027C135.847 125.027 138.367 122.462 138.276 121.141C138.228 119.955 138.081 118.775 137.837 117.613L151.445 118.117L151.017 108.894L131.472 106.939C130.791 108.859 124.638 107.916 124.638 107.916C117.995 108.138 117.582 109.358 114.82 111.505C112.058 113.652 107.487 132.078 107.487 132.078L114.301 134.261Z" fill="var(--primary)" opacity=".8" />
  <path d="M127.515 132.078C127.128 132.147 126.734 132.168 126.341 132.139C125.61 132.139 124.607 132.088 123.504 131.977C122.4 131.867 121.402 131.71 120.691 131.569C120.299 131.519 119.915 131.421 119.547 131.277C119.941 131.277 120.334 131.314 120.722 131.388C121.437 131.478 122.43 131.604 123.529 131.715C124.627 131.826 125.625 131.902 126.346 131.952C126.739 131.957 127.131 131.999 127.515 132.078Z" fill="#263238" />
  <path d="M129.048 130.178C128.66 130.368 128.25 130.508 127.828 130.596C125.817 131.125 123.743 131.371 121.664 131.327C121.234 131.341 120.804 131.3 120.384 131.206C120.808 131.153 121.236 131.131 121.664 131.141C122.455 131.115 123.544 131.06 124.743 130.919C125.943 130.778 127.011 130.576 127.767 130.415C128.187 130.303 128.615 130.224 129.048 130.178Z" fill="#263238" />
  <path d="M136.567 121.701C136.557 122.085 136.505 122.467 136.411 122.84C136.28 123.54 136.078 124.498 135.821 125.546C135.564 126.595 135.317 127.562 135.096 128.217C135.006 128.592 134.875 128.956 134.703 129.301C134.731 128.918 134.802 128.539 134.914 128.172C135.106 127.386 135.322 126.479 135.564 125.486C135.806 124.493 136.038 123.586 136.23 122.799C136.298 122.421 136.411 122.052 136.567 121.701Z" fill="#263238" />
  <path d="M114.537 132.975C113.371 132.795 112.221 132.527 111.095 132.174C109.945 131.905 108.816 131.551 107.718 131.115C108.884 131.298 110.034 131.566 111.161 131.917C112.311 132.185 113.44 132.539 114.537 132.975Z" fill="#263238" />
  <path d="M138.079 117.503C137.889 117.535 137.695 117.535 137.505 117.503C136.978 117.449 136.461 117.325 135.967 117.135C135.143 116.825 134.392 116.346 133.764 115.729C133.136 115.112 132.643 114.37 132.319 113.551C131.96 112.651 131.806 111.681 131.87 110.714C131.892 109.916 132.131 109.139 132.56 108.466C132.862 108.012 133.314 107.679 133.836 107.523C133.975 107.485 134.119 107.466 134.264 107.468C134.365 107.468 134.415 107.468 134.415 107.468C134.415 107.468 134.204 107.468 133.866 107.604C133.387 107.781 132.981 108.113 132.712 108.546C132.026 109.625 131.835 111.596 132.565 113.435C132.906 114.303 133.438 115.082 134.123 115.713C134.684 116.23 135.33 116.646 136.033 116.943C136.693 117.204 137.379 117.391 138.079 117.503Z" fill="#263238" />
  <path d="M149.828 117.936C149.701 116.39 149.661 114.839 149.707 113.289C149.667 111.74 149.714 110.191 149.848 108.647C149.974 110.191 150.014 111.741 149.969 113.289C150.011 114.839 149.964 116.391 149.828 117.936Z" fill="#263238" />
  <path d="M131.341 107.503C131.396 106.379 131.512 105.109 131.512 105.109C131.512 105.109 134.294 104.802 134.461 101.929C134.627 99.056 134.461 92.4284 134.461 92.4284L129.421 89.8479L123.826 94.2478L124.688 108.612L129.819 108.939C130.211 108.95 130.591 108.805 130.877 108.536C131.162 108.267 131.329 107.895 131.341 107.503Z" fill="#FFBE9D" />
  <path d="M131.84 99.6557C131.84 99.6557 131.84 99.7111 131.794 99.7766C131.757 99.8242 131.708 99.8619 131.653 99.8864C131.598 99.911 131.537 99.9218 131.477 99.9178C131.154 99.9178 130.842 99.5448 130.731 99.1114C130.678 98.9013 130.678 98.6814 130.731 98.4713C130.741 98.3796 130.774 98.2919 130.827 98.2162C130.88 98.1405 130.951 98.0792 131.033 98.0378C131.101 98.0098 131.177 98.0098 131.245 98.0378C131.295 98.0628 131.336 98.1035 131.361 98.1538C131.396 98.2394 131.361 98.2949 131.361 98.2898C131.361 98.2848 131.361 98.2394 131.311 98.189C131.284 98.1529 131.246 98.1278 131.202 98.1185C131.158 98.1092 131.112 98.1164 131.074 98.1386C131.012 98.176 130.961 98.2284 130.924 98.291C130.888 98.3536 130.869 98.4242 130.867 98.4965C130.825 98.684 130.825 98.8785 130.867 99.066C130.968 99.4591 131.24 99.7766 131.482 99.8069C131.529 99.8133 131.577 99.8099 131.623 99.7969C131.669 99.7839 131.712 99.7616 131.749 99.7313C131.81 99.691 131.83 99.6506 131.84 99.6557Z" fill="#EB996E" />
  <path d="M136.189 90.8761C135.801 89.5556 134.395 88.9004 133.115 88.5376C131.164 87.9832 129.058 87.7412 127.153 88.4418C125.247 89.1424 122.959 90.3721 122.959 92.4738C121.835 92.3831 121.19 93.3659 120.747 94.5856C120.463 95.3286 120.293 96.1102 120.243 96.904C120.102 99.6558 119.33 103.456 117.546 105.472C116.538 106.596 115.142 107.372 114.568 108.773C114.064 109.988 114.326 111.429 113.857 112.659C113.439 113.743 112.516 114.514 111.841 115.456C111.153 116.525 110.748 117.752 110.664 119.021C110.581 120.289 110.821 121.558 111.362 122.709C111.908 123.83 112.676 124.828 113.619 125.642C114.563 126.457 115.662 127.071 116.851 127.446C119.205 128.163 121.715 128.187 124.083 127.517C125.86 127.092 127.518 126.27 128.932 125.113C130.378 123.931 131.372 122.286 131.744 120.456C132.102 118.4 131.527 116.308 131.099 114.262C129.758 107.795 130.141 107.458 131.835 101.455C131.875 101.349 131.895 101.238 131.925 101.133C131.956 101.027 131.971 100.976 131.991 100.896C132.039 100.658 132.064 100.417 132.067 100.175C131.819 100.267 131.551 100.286 131.293 100.231C131.035 100.176 130.798 100.048 130.61 99.8624C130.422 99.6648 130.29 99.4199 130.23 99.1537C130.17 98.8875 130.183 98.6099 130.267 98.3504C130.386 98.0666 130.563 97.811 130.787 97.6C131.011 97.389 131.277 97.2275 131.568 97.1257C132.127 96.8939 132.727 96.7729 133.276 96.5159C134.44 95.9615 135.247 94.8124 135.796 93.6078C136.248 92.773 136.387 91.8045 136.189 90.8761Z" fill="#263238" />
  <path d="M132.041 99.792C132.148 99.9493 132.236 100.118 132.303 100.296C132.455 100.614 132.656 101.062 132.878 101.581L132.918 101.677H132.813L132.309 101.722C131.961 101.722 131.668 101.788 131.326 101.783C131.296 101.776 131.268 101.762 131.245 101.742C131.222 101.721 131.205 101.696 131.195 101.667C131.18 101.621 131.18 101.572 131.195 101.526C131.206 101.458 131.221 101.391 131.24 101.324L131.331 100.966C131.376 100.728 131.447 100.494 131.542 100.271C131.533 100.514 131.498 100.756 131.437 100.992L131.366 101.349C131.341 101.47 131.295 101.657 131.366 101.642C131.618 101.642 131.976 101.586 132.309 101.566L132.813 101.521L132.747 101.632C132.53 101.128 132.349 100.654 132.243 100.326C132.15 100.159 132.082 99.9789 132.041 99.792Z" fill="var(--primary)" opacity=".8" />
  <path d="M114.784 142.214L137.137 141.533L146.864 179.505L145.075 223.06H133.256L134.702 180.432L126.059 153.997L127.389 224.749L115.445 224.925L114.19 158.422C114.134 156.573 113.529 152.404 113.756 150.57L114.784 142.214Z" fill="#263238" />
  <path d="M129.032 154.536C128.667 154.559 128.299 154.537 127.939 154.471C127.263 154.39 126.341 154.249 125.328 154.047C124.315 153.846 123.408 153.614 122.753 153.427C122.402 153.35 122.064 153.228 121.745 153.065C121.745 152.989 123.388 153.382 125.404 153.79C127.42 154.199 129.043 154.461 129.032 154.536Z" fill="#455A64" />
  <path d="M144.954 220.671C144.954 220.742 142.278 220.802 138.976 220.802C135.675 220.802 132.994 220.742 132.994 220.671C132.994 220.601 135.67 220.54 138.976 220.54C142.283 220.54 144.954 220.596 144.954 220.671Z" fill="#455A64" />
  <path d="M127.284 222.909C127.284 222.984 124.683 223.04 121.478 223.04C118.272 223.04 115.677 222.984 115.677 222.909C115.677 222.833 118.277 222.778 121.478 222.778C124.678 222.778 127.284 222.838 127.284 222.909Z" fill="#455A64" />
  <path d="M125.741 222.728C125.671 222.728 125.358 207.27 125.041 188.204C124.723 169.137 124.537 153.669 124.602 153.669C124.668 153.669 124.99 169.122 125.303 188.198C125.615 207.275 125.817 222.728 125.741 222.728Z" fill="#455A64" />
  <path d="M143.366 220.671C143.361 220.603 143.361 220.533 143.366 220.465V219.86C143.366 219.316 143.407 218.534 143.437 217.541C143.507 215.525 143.608 212.597 143.734 209.009C144.006 201.791 144.389 191.842 144.808 180.86C144.808 180.755 144.808 180.654 144.808 180.563V180.598C142.162 170.014 139.768 160.408 138.029 153.458L136.013 145.238C135.781 144.275 135.605 143.524 135.479 143C135.418 142.753 135.378 142.561 135.343 142.415C135.323 142.35 135.311 142.282 135.307 142.214C135.333 142.277 135.354 142.343 135.368 142.41C135.408 142.551 135.459 142.743 135.529 142.985C135.665 143.489 135.862 144.255 136.114 145.212C136.618 147.158 137.328 149.96 138.215 153.413C139.969 160.358 142.389 169.939 145.07 180.538V180.573C145.07 180.664 145.07 180.77 145.07 180.87C144.621 191.853 144.213 201.796 143.916 209.014C143.759 212.607 143.628 215.515 143.538 217.541C143.487 218.549 143.447 219.316 143.422 219.86C143.422 220.117 143.391 220.318 143.386 220.465C143.387 220.534 143.38 220.603 143.366 220.671Z" fill="#455A64" />
  <path d="M139.511 179.676C138.662 179.955 137.787 180.149 136.9 180.255C135.811 180.442 134.884 180.573 134.466 180.593V180.492C134.602 180.533 134.672 180.558 134.672 180.578C134.672 180.598 134.587 180.578 134.445 180.578H134.143L134.445 180.487C134.839 180.371 135.766 180.18 136.855 179.983C137.728 179.794 138.617 179.691 139.511 179.676Z" fill="#455A64" />
  <path d="M139.304 181.122C138.518 181.158 137.73 181.123 136.95 181.016C136.163 181 135.379 180.914 134.607 180.759C136.182 180.631 137.767 180.753 139.304 181.122Z" fill="#455A64" />
  <path opacity="0.2" d="M114.689 143.015C114.953 143.355 115.287 143.635 115.667 143.838C116.048 144.04 116.466 144.16 116.896 144.189C117.796 144.296 118.707 144.279 119.603 144.139C125.373 143.499 131.487 142.909 137.137 141.533C129.824 141.941 122.097 141.805 114.784 142.214L114.709 142.839" fill="black" />
  <g opacity="0.2">
    <path d="M122.223 153.322L126.346 169.319L126.059 153.997L122.223 153.322Z" fill="black" />
  </g>
</svg>