<svg width="100" height="100" version="1.1" viewBox="0 0 26.458 26.458" xmlns="http://www.w3.org/2000/svg">
  <path fill="#000" d="m4.2449 3.9937c-0.28644 0-0.55251 0.042833-0.79802 0.1287-0.24552 0.085873-0.46024 0.2061-0.64438 0.36067-0.17391 0.15458-0.31192 0.33506-0.41423 0.54115-0.1023 0.2061-0.15364 0.42498-0.15364 0.65683v15.096c0 0.24044 0.051341 0.46376 0.15364 0.66985 0.1023 0.2061 0.24032 0.38629 0.41423 0.54085 0.18413 0.14598 0.39887 0.26207 0.64438 0.34795 0.24552 0.08587 0.51159 0.1287 0.79802 0.1287h15.145c0.88999 0 1.6421-0.13293 2.2558-0.39913 0.61379-0.2748 1.11-0.6142 1.4885-1.0178 0.38874-0.4036 0.66477-0.84136 0.82845-1.3137 0.17391-0.4723 0.26089-0.9145 0.26089-1.3267v-0.6441c0-0.65263-0.08697-1.2493-0.26089-1.7903-0.17391-0.54098-0.40917-1.0263-0.70584-1.4557-0.29667-0.42936-0.64458-0.80716-1.0435-1.1335-0.38874-0.32632-0.80792-0.60546-1.258-0.83731 0.52172-0.60968 0.90014-1.2536 1.1354-1.932 0.23528-0.68697 0.35277-1.3268 0.35277-1.9193v-0.63109c0-0.74708-0.16368-1.3783-0.49104-1.8936-0.31712-0.51523-0.72091-0.93173-1.2119-1.2495-0.4808-0.32631-1.0027-0.56233-1.5653-0.70832-0.56264-0.14598-1.0894-0.21894-1.5804-0.21894zm1.9797 3.3489h11.371c0.5524 0 0.82845 0.24045 0.82845 0.72133v0.63109c0 0.43794-0.08184 0.83288-0.24552 1.185-0.15345 0.34349-0.37845 0.63977-0.67512 0.8888-0.29667 0.24903-0.65485 0.44222-1.0743 0.57961-0.41942 0.1288-0.88995 0.1932-1.4117 0.1932h-7.1966v3.3749h8.9922c0.52172 0 0.99226 0.06852 1.4117 0.20593 0.41942 0.12881 0.77761 0.31786 1.0743 0.56689 0.29667 0.24903 0.5268 0.54944 0.69048 0.90152 0.16368 0.34349 0.24552 0.7343 0.24552 1.1722v0.61836c0 0.18033-0.03081 0.32182-0.09218 0.42487-0.06137 0.10305-0.13296 0.17601-0.2148 0.21894-0.08183 0.04295-0.17395 0.06894-0.27625 0.07752-0.1023 0.0085-0.18928 0.01273-0.26088 0.01273h-13.166z" />
</svg>